<?xml version="1.0" encoding="utf-8"?>
<!-- Generator: Adobe Illustrator 15.1.0, SVG Export Plug-In  -->
<!DOCTYPE svg PUBLIC "-//W3C//DTD SVG 1.1//EN" "http://www.w3.org/Graphics/SVG/1.1/DTD/svg11.dtd" [
	<!ENTITY ns_flows "http://ns.adobe.com/Flows/1.0/">
]>
<svg version="1.1"
	 xmlns="http://www.w3.org/2000/svg" xmlns:xlink="http://www.w3.org/1999/xlink" xmlns:a="http://ns.adobe.com/AdobeSVGViewerExtensions/3.0/"
	 x="0px" y="0px" width="192px" height="33px" viewBox="-1.25 -1.045 192 33"
	 overflow="visible" enable-background="new -1.25 -1.045 192 33" xml:space="preserve">
<defs>
</defs>
<path fill="#3B5998" d="M187,28.825c-2.61,2.14-7.7,2.1-11.93,2.08H15.36c-0.61,0-1.22-0.03-1.81-0.08
	c-4.03,0.02-8.62-0.09-11.05-2.08c-2.59-2.13-2.5-6.64-2.5-9.83v-6.92c0-3.2-0.11-7.76,2.5-9.91c2.61-2.14,7.7-2.1,11.93-2.08
	H174.14c0.61,0,1.221,0.03,1.811,0.08c0.01,0,0.01,0,0.02,0c4.03-0.01,8.601,0.091,11.03,2.08c2.59,2.13,2.5,6.649,2.5,9.84v6.91
	C189.5,22.115,189.611,26.674,187,28.825z"/>
<path fill="#FFFFFF" d="M17.271,10.007v2.305h2.705v2.803h-2.705v8.117h-3.008v-8.117h-2.679v-2.803h2.679V9.276
	c0-1.821,1.654-3.044,2.987-3.044h3v2.544h-1.387C18.181,8.776,17.271,9.326,17.271,10.007z"/>
<g>
	<rect x="32.35" y="9.578" fill="none" width="147.566" height="13.055"/>
	<path fill="#FFFFFF" d="M33.82,17.931c0.15,0.183,0.327,0.336,0.53,0.462s0.417,0.228,0.643,0.308s0.458,0.138,0.697,0.174
		c0.239,0.037,0.473,0.055,0.701,0.055c0.36,0,0.69-0.035,0.991-0.105s0.56-0.176,0.776-0.314s0.385-0.311,0.506-0.513
		s0.181-0.438,0.181-0.708c0-0.301-0.08-0.557-0.239-0.769s-0.368-0.399-0.625-0.563s-0.553-0.312-0.885-0.441
		s-0.671-0.263-1.015-0.4s-0.683-0.284-1.015-0.441s-0.628-0.344-0.885-0.561s-0.466-0.472-0.625-0.766s-0.239-0.644-0.239-1.049
		c0-0.438,0.103-0.821,0.308-1.152s0.476-0.606,0.813-0.827s0.72-0.389,1.148-0.502s0.868-0.171,1.319-0.171
		c0.26,0,0.526,0.016,0.8,0.047c0.273,0.032,0.537,0.088,0.79,0.17s0.488,0.189,0.704,0.323c0.216,0.133,0.397,0.302,0.543,0.506
		l-0.567,0.766c-0.137-0.15-0.293-0.277-0.468-0.379s-0.362-0.185-0.561-0.246s-0.402-0.106-0.612-0.133s-0.417-0.041-0.622-0.041
		c-0.278,0-0.556,0.028-0.834,0.085s-0.529,0.148-0.752,0.274c-0.223,0.125-0.406,0.287-0.547,0.485
		c-0.141,0.199-0.212,0.439-0.212,0.722c0,0.292,0.08,0.544,0.239,0.756c0.16,0.212,0.369,0.4,0.629,0.564
		c0.26,0.165,0.555,0.315,0.885,0.452s0.669,0.276,1.015,0.417c0.346,0.141,0.685,0.294,1.015,0.458
		c0.331,0.165,0.625,0.358,0.885,0.582c0.26,0.224,0.469,0.485,0.629,0.784c0.16,0.298,0.239,0.65,0.239,1.057
		c0,0.323-0.052,0.614-0.157,0.871c-0.105,0.258-0.249,0.485-0.431,0.682c-0.182,0.195-0.396,0.363-0.643,0.502
		c-0.246,0.14-0.512,0.252-0.796,0.34c-0.285,0.086-0.582,0.15-0.892,0.191s-0.618,0.061-0.923,0.061
		c-0.333,0-0.649-0.029-0.95-0.088c-0.301-0.06-0.579-0.145-0.834-0.254s-0.484-0.241-0.687-0.396
		c-0.203-0.154-0.37-0.328-0.502-0.52L33.82,17.931z"/>
	<path fill="#FFFFFF" d="M41.996,12.771h1.128v7.014h-1.128V12.771z M43.096,9.79v1.06H42.05V9.79H43.096z"/>
	<path fill="#FFFFFF" d="M45.667,21.062c0.36,0.224,0.738,0.388,1.135,0.492c0.396,0.105,0.786,0.158,1.169,0.158
		c0.401,0,0.76-0.045,1.077-0.134s0.584-0.226,0.803-0.41s0.386-0.419,0.502-0.704s0.174-0.623,0.174-1.016v-0.867
		c-0.273,0.4-0.619,0.701-1.036,0.902c-0.417,0.2-0.874,0.301-1.371,0.301c-0.506,0-0.957-0.085-1.354-0.254
		c-0.396-0.168-0.731-0.405-1.005-0.711c-0.273-0.305-0.483-0.672-0.629-1.1c-0.146-0.429-0.219-0.905-0.219-1.43
		c0-0.496,0.068-0.969,0.205-1.418s0.342-0.841,0.615-1.176s0.616-0.602,1.029-0.8s0.892-0.297,1.439-0.297
		c0.533,0,0.985,0.097,1.357,0.291s0.694,0.475,0.967,0.844c0-0.078,0.002-0.172,0.007-0.284s0.009-0.218,0.014-0.318
		c0.004-0.119,0.011-0.239,0.021-0.362h1.128c-0.009,0.219-0.016,0.435-0.021,0.649c-0.009,0.182-0.015,0.372-0.017,0.567
		s-0.003,0.367-0.003,0.513v4.279c0,0.311-0.018,0.621-0.055,0.934s-0.103,0.611-0.198,0.898s-0.228,0.557-0.396,0.807
		c-0.168,0.251-0.386,0.469-0.653,0.653s-0.589,0.331-0.967,0.438s-0.823,0.161-1.333,0.161c-0.456,0-0.895-0.046-1.316-0.137
		c-0.421-0.092-0.821-0.232-1.2-0.424L45.667,21.062z M50.527,16.028c0-0.347-0.05-0.673-0.15-0.979s-0.245-0.571-0.434-0.797
		c-0.189-0.226-0.418-0.405-0.687-0.537s-0.572-0.199-0.909-0.199c-0.369,0-0.694,0.074-0.974,0.223
		c-0.28,0.148-0.515,0.349-0.704,0.602c-0.189,0.253-0.331,0.546-0.424,0.879c-0.093,0.333-0.14,0.682-0.14,1.047
		c0,0.396,0.038,0.756,0.113,1.074c0.075,0.32,0.201,0.593,0.376,0.818c0.175,0.227,0.404,0.4,0.687,0.523s0.631,0.186,1.046,0.186
		c0.41,0,0.756-0.082,1.039-0.244c0.283-0.161,0.509-0.375,0.68-0.639c0.171-0.266,0.294-0.567,0.369-0.908
		C50.489,16.738,50.527,16.388,50.527,16.028z"/>
	<path fill="#FFFFFF" d="M55.052,19.785h-1.128v-5.326c0-0.209-0.002-0.416-0.007-0.619s-0.009-0.384-0.014-0.543
		c-0.009-0.182-0.016-0.358-0.021-0.526h1.142l0.027,0.971c0.273-0.387,0.603-0.674,0.988-0.861s0.84-0.28,1.364-0.28
		c0.51,0,0.932,0.084,1.265,0.253s0.596,0.404,0.79,0.708s0.328,0.664,0.403,1.083s0.113,0.879,0.113,1.381v3.76h-1.128v-3.631
		c0-0.396-0.017-0.757-0.051-1.083s-0.107-0.604-0.219-0.834s-0.277-0.408-0.496-0.533s-0.513-0.188-0.882-0.188
		c-0.342,0-0.645,0.066-0.909,0.198s-0.488,0.292-0.67,0.479s-0.322,0.384-0.42,0.591s-0.147,0.389-0.147,0.543V19.785z"/>
	<path fill="#FFFFFF" d="M66.332,12.771h1.128v7.014h-1.128V12.771z M67.432,9.79v1.06h-1.046V9.79H67.432z"/>
	<path fill="#FFFFFF" d="M70.905,19.785h-1.128v-5.326c0-0.209-0.002-0.416-0.007-0.619s-0.009-0.384-0.014-0.543
		c-0.009-0.182-0.016-0.358-0.021-0.526h1.142l0.027,0.971c0.273-0.387,0.603-0.674,0.988-0.861s0.84-0.28,1.364-0.28
		c0.51,0,0.932,0.084,1.265,0.253s0.596,0.404,0.79,0.708s0.328,0.664,0.404,1.083c0.074,0.419,0.112,0.879,0.112,1.381v3.76h-1.128
		v-3.631c0-0.396-0.017-0.757-0.051-1.083s-0.107-0.604-0.219-0.834s-0.277-0.408-0.496-0.533s-0.513-0.188-0.882-0.188
		c-0.342,0-0.645,0.066-0.909,0.198s-0.488,0.292-0.67,0.479s-0.322,0.384-0.42,0.591s-0.147,0.389-0.147,0.543V19.785z"/>
	<path fill="#FFFFFF" d="M82.417,12.771l1.702,5.073c0.019,0.055,0.037,0.119,0.059,0.194c0.02,0.075,0.042,0.149,0.064,0.222
		c0.022,0.082,0.048,0.167,0.075,0.254c0.027-0.073,0.053-0.148,0.075-0.227c0.022-0.063,0.046-0.131,0.068-0.201
		s0.046-0.133,0.068-0.188l1.812-5.127h1.135l1.695,5.059c0.019,0.055,0.038,0.119,0.058,0.194c0.021,0.075,0.043,0.147,0.065,0.216
		c0.022,0.082,0.048,0.166,0.075,0.252c0.032-0.082,0.062-0.164,0.089-0.246c0.022-0.068,0.047-0.14,0.071-0.215
		c0.025-0.075,0.05-0.145,0.072-0.209l1.641-5.051h1.155l-2.516,7.014h-1.094l-1.921-5.681l-2.051,5.681h-1.107l-2.495-7.014H82.417
		z"/>
	<path fill="#FFFFFF" d="M93.771,12.771h1.128v7.014h-1.128V12.771z M94.872,9.79v1.06h-1.046V9.79H94.872z"/>
	<path fill="#FFFFFF" d="M97.729,13.502h-1.388v-0.731h1.388l0.034-1.859l1.094-0.321v2.181h1.75v0.731h-1.75v4.191
		c0,0.154,0.005,0.312,0.014,0.475s0.04,0.311,0.092,0.444c0.053,0.134,0.134,0.243,0.243,0.328s0.265,0.126,0.465,0.126
		c0.146,0,0.299-0.02,0.458-0.058s0.335-0.093,0.526-0.161l-0.007,0.842c-0.159,0.091-0.333,0.156-0.52,0.194
		s-0.398,0.058-0.636,0.058c-0.383,0-0.689-0.064-0.919-0.194c-0.23-0.13-0.408-0.304-0.533-0.522
		c-0.126-0.219-0.209-0.475-0.25-0.766c-0.041-0.292-0.062-0.6-0.062-0.924V13.502z"/>
	<path fill="#FFFFFF" d="M103.334,9.585V13.7c0.287-0.387,0.622-0.667,1.005-0.841s0.834-0.26,1.354-0.26
		c0.511,0,0.931,0.083,1.261,0.25c0.331,0.167,0.593,0.384,0.787,0.653c0.193,0.269,0.328,0.572,0.402,0.909
		c0.076,0.337,0.113,0.679,0.113,1.025v4.348h-1.128v-4.279c0-0.292-0.028-0.56-0.085-0.804c-0.058-0.244-0.153-0.454-0.287-0.629
		c-0.135-0.175-0.314-0.312-0.541-0.41c-0.225-0.098-0.504-0.147-0.837-0.147c-0.323,0-0.612,0.061-0.864,0.181
		c-0.254,0.121-0.467,0.285-0.64,0.492s-0.307,0.449-0.399,0.725c-0.094,0.276-0.141,0.566-0.141,0.871v4h-1.128v-10.2H103.334z"/>
	<path fill="#FFFFFF" d="M115.988,19.785h-1.176V9.831h5.763v1.012h-4.587v3.37h4.354v1.012h-4.354V19.785z"/>
	<path fill="#FFFFFF" d="M124.697,12.6c0.287,0,0.549,0.026,0.786,0.079s0.456,0.126,0.656,0.222s0.385,0.214,0.554,0.355
		s0.326,0.301,0.472,0.479l0.041-0.964h1.114l-0.027,1.729v5.285h-1.128l0.014-0.984c-0.109,0.146-0.247,0.287-0.413,0.427
		c-0.167,0.14-0.354,0.261-0.564,0.366c-0.21,0.104-0.441,0.188-0.693,0.252c-0.254,0.064-0.519,0.096-0.797,0.096
		c-0.392,0-0.747-0.051-1.066-0.153s-0.604-0.243-0.854-0.424s-0.468-0.391-0.653-0.632c-0.184-0.242-0.336-0.502-0.454-0.779
		c-0.118-0.278-0.207-0.566-0.267-0.865s-0.089-0.594-0.089-0.885c0-0.451,0.069-0.894,0.208-1.327
		c0.14-0.433,0.35-0.818,0.629-1.155c0.281-0.337,0.632-0.608,1.053-0.813C123.638,12.702,124.131,12.6,124.697,12.6z
		 M124.827,19.039c0.319,0,0.618-0.064,0.899-0.194c0.279-0.13,0.525-0.321,0.738-0.574c0.211-0.253,0.38-0.567,0.506-0.943
		c0.125-0.376,0.189-0.81,0.194-1.302c0-0.369-0.056-0.707-0.167-1.012c-0.112-0.305-0.271-0.57-0.476-0.793
		s-0.454-0.396-0.749-0.52c-0.293-0.123-0.623-0.185-0.987-0.185c-0.278,0-0.528,0.038-0.752,0.113s-0.422,0.179-0.595,0.311
		s-0.323,0.287-0.451,0.465s-0.232,0.368-0.314,0.571s-0.143,0.414-0.182,0.632c-0.038,0.219-0.058,0.436-0.058,0.65
		c0,0.209,0.015,0.424,0.044,0.646c0.03,0.222,0.079,0.435,0.147,0.64s0.162,0.398,0.28,0.58c0.118,0.183,0.266,0.342,0.441,0.476
		c0.175,0.134,0.385,0.241,0.629,0.321C124.219,19,124.503,19.039,124.827,19.039z"/>
	<path fill="#FFFFFF" d="M135.238,14.309c-0.219-0.273-0.485-0.474-0.8-0.602s-0.649-0.191-1.005-0.191
		c-0.378,0-0.716,0.073-1.012,0.219s-0.548,0.345-0.756,0.598c-0.207,0.253-0.365,0.549-0.475,0.889
		c-0.109,0.339-0.164,0.703-0.164,1.091c0,0.383,0.048,0.74,0.144,1.072c0.096,0.333,0.241,0.623,0.438,0.869
		s0.444,0.438,0.745,0.577s0.656,0.208,1.066,0.208c0.771,0,1.461-0.264,2.071-0.793l0.314,0.943
		c-0.333,0.265-0.704,0.456-1.114,0.574c-0.41,0.119-0.863,0.178-1.36,0.178c-0.579,0-1.086-0.094-1.521-0.283
		c-0.436-0.189-0.799-0.447-1.089-0.772s-0.508-0.708-0.652-1.146c-0.146-0.438-0.218-0.902-0.218-1.395
		c0-0.51,0.077-0.993,0.231-1.449c0.153-0.456,0.378-0.854,0.673-1.193s0.659-0.608,1.092-0.807s0.928-0.297,1.483-0.297
		c0.552,0,1.034,0.086,1.449,0.26s0.738,0.413,0.971,0.718L135.238,14.309z"/>
	<path fill="#FFFFFF" d="M143.475,18.998c-0.378,0.328-0.798,0.568-1.258,0.719s-0.982,0.225-1.565,0.225
		c-0.552,0-1.044-0.09-1.477-0.27s-0.799-0.431-1.098-0.752c-0.298-0.321-0.525-0.705-0.684-1.152
		c-0.156-0.446-0.235-0.936-0.235-1.469c0-0.506,0.077-0.982,0.232-1.429s0.381-0.838,0.677-1.176s0.657-0.604,1.084-0.8
		c0.426-0.196,0.912-0.294,1.459-0.294c0.538,0,1.005,0.088,1.401,0.263s0.723,0.417,0.978,0.725s0.445,0.673,0.57,1.097
		c0.126,0.424,0.188,0.884,0.188,1.381c0,0.05-0.001,0.107-0.003,0.174c-0.003,0.066-0.006,0.127-0.011,0.182h-5.373l0.021,0.307
		c0.027,0.342,0.097,0.654,0.208,0.938c0.111,0.282,0.266,0.525,0.461,0.73s0.434,0.363,0.713,0.476
		c0.28,0.112,0.6,0.167,0.96,0.167c0.481,0,0.923-0.084,1.324-0.252c0.4-0.169,0.76-0.41,1.078-0.725L143.475,18.998z
		 M142.566,15.621l-0.007-0.096c-0.022-0.296-0.081-0.567-0.174-0.813c-0.094-0.246-0.222-0.458-0.386-0.636
		s-0.363-0.315-0.598-0.414s-0.499-0.147-0.795-0.147c-0.318,0-0.604,0.056-0.859,0.167s-0.475,0.263-0.659,0.455
		c-0.184,0.191-0.333,0.415-0.446,0.67c-0.114,0.255-0.191,0.526-0.232,0.813H142.566z"/>
	<path fill="#FFFFFF" d="M146.565,19.785h-1.148c0.005-0.311,0.012-0.591,0.021-0.842c0.005-0.109,0.008-0.217,0.011-0.324
		c0.002-0.107,0.004-0.206,0.006-0.297c0.003-0.092,0.005-0.172,0.008-0.24c0.002-0.068,0.003-0.115,0.003-0.143V9.585h1.128v4.177
		c0.287-0.396,0.648-0.689,1.084-0.878c0.435-0.189,0.907-0.284,1.418-0.284c0.542,0,1.007,0.098,1.395,0.294
		s0.704,0.458,0.95,0.786s0.427,0.71,0.544,1.145c0.115,0.435,0.174,0.892,0.174,1.37c0,0.511-0.067,0.992-0.201,1.446
		c-0.135,0.454-0.336,0.851-0.602,1.192c-0.268,0.342-0.601,0.612-1.002,0.811s-0.866,0.297-1.395,0.297
		c-0.497,0-0.943-0.092-1.34-0.276s-0.738-0.457-1.025-0.817L146.565,19.785z M151.015,16.025c0-0.347-0.05-0.673-0.15-0.978
		s-0.245-0.571-0.435-0.796c-0.188-0.226-0.418-0.404-0.687-0.537s-0.572-0.198-0.909-0.198c-0.369,0-0.693,0.074-0.975,0.222
		c-0.279,0.148-0.515,0.349-0.703,0.602c-0.189,0.253-0.331,0.546-0.424,0.878c-0.094,0.333-0.141,0.681-0.141,1.045
		c0,0.396,0.037,0.755,0.113,1.074c0.074,0.318,0.2,0.591,0.375,0.816c0.176,0.226,0.405,0.4,0.688,0.523s0.631,0.184,1.046,0.184
		c0.41,0,0.757-0.08,1.039-0.242s0.509-0.375,0.681-0.639c0.17-0.265,0.293-0.566,0.369-0.906
		C150.977,16.734,151.015,16.384,151.015,16.025z"/>
	<path fill="#FFFFFF" d="M157.099,12.6c0.588,0,1.104,0.096,1.549,0.287c0.443,0.191,0.814,0.454,1.11,0.786s0.52,0.722,0.67,1.169
		s0.226,0.925,0.226,1.435c0,0.492-0.078,0.961-0.236,1.405c-0.156,0.444-0.387,0.834-0.689,1.169
		c-0.304,0.335-0.679,0.601-1.125,0.797c-0.446,0.195-0.957,0.293-1.531,0.293c-0.583,0-1.099-0.096-1.545-0.287
		s-0.821-0.451-1.125-0.779c-0.303-0.328-0.533-0.714-0.689-1.158c-0.158-0.444-0.236-0.92-0.236-1.426s0.08-0.983,0.239-1.432
		s0.394-0.841,0.7-1.176c0.309-0.335,0.687-0.599,1.135-0.793C156,12.696,156.516,12.6,157.099,12.6z M159.464,16.291
		c0-0.373-0.048-0.729-0.144-1.066s-0.242-0.632-0.438-0.885s-0.445-0.454-0.746-0.602s-0.657-0.222-1.068-0.222
		c-0.396,0-0.746,0.076-1.047,0.229s-0.554,0.358-0.757,0.615s-0.355,0.555-0.458,0.892c-0.104,0.337-0.154,0.688-0.154,1.052
		c0,0.365,0.051,0.711,0.154,1.039c0.103,0.328,0.255,0.619,0.458,0.872s0.458,0.454,0.764,0.602s0.662,0.222,1.067,0.222
		c0.402,0,0.751-0.074,1.048-0.225s0.543-0.353,0.739-0.605s0.343-0.545,0.438-0.875S159.464,16.656,159.464,16.291z"/>
	<path fill="#FFFFFF" d="M165.562,12.6c0.588,0,1.104,0.096,1.549,0.287c0.443,0.191,0.814,0.454,1.11,0.786s0.52,0.722,0.67,1.169
		s0.226,0.925,0.226,1.435c0,0.492-0.078,0.961-0.236,1.405c-0.156,0.444-0.387,0.834-0.689,1.169
		c-0.304,0.335-0.679,0.601-1.125,0.797c-0.446,0.195-0.957,0.293-1.531,0.293c-0.583,0-1.099-0.096-1.545-0.287
		s-0.821-0.451-1.125-0.779c-0.303-0.328-0.533-0.714-0.689-1.158c-0.158-0.444-0.236-0.92-0.236-1.426s0.08-0.983,0.239-1.432
		s0.394-0.841,0.7-1.176c0.309-0.335,0.687-0.599,1.135-0.793C164.462,12.696,164.979,12.6,165.562,12.6z M167.927,16.291
		c0-0.373-0.048-0.729-0.144-1.066s-0.242-0.632-0.438-0.885s-0.445-0.454-0.746-0.602s-0.657-0.222-1.068-0.222
		c-0.396,0-0.746,0.076-1.047,0.229s-0.554,0.358-0.757,0.615s-0.355,0.555-0.458,0.892c-0.104,0.337-0.154,0.688-0.154,1.052
		c0,0.365,0.051,0.711,0.154,1.039c0.103,0.328,0.255,0.619,0.458,0.872s0.458,0.454,0.764,0.602s0.662,0.222,1.067,0.222
		c0.402,0,0.751-0.074,1.048-0.225s0.543-0.353,0.739-0.605s0.343-0.545,0.438-0.875S167.927,16.656,167.927,16.291z"/>
	<path fill="#FFFFFF" d="M172.131,9.585v6.186l3.186-3h1.538l-3.623,3.309c0.643,0.615,1.29,1.232,1.941,1.852
		c0.651,0.62,1.299,1.238,1.941,1.854h-1.497l-3.486-3.426v3.426h-1.128v-10.2H172.131z"/>
</g>
</svg>
