<?xml version="1.0" encoding="utf-8"?>
<!-- Generator: Adobe Illustrator 15.1.0, SVG Export Plug-In  -->
<!DOCTYPE svg PUBLIC "-//W3C//DTD SVG 1.1//EN" "http://www.w3.org/Graphics/SVG/1.1/DTD/svg11.dtd" [
	<!ENTITY ns_flows "http://ns.adobe.com/Flows/1.0/">
]>
<svg version="1.1"
	 xmlns="http://www.w3.org/2000/svg" xmlns:xlink="http://www.w3.org/1999/xlink" xmlns:a="http://ns.adobe.com/AdobeSVGViewerExtensions/3.0/"
	 x="0px" y="0px" width="192px" height="33px" viewBox="-1.25 -1.045 192 33"
	 overflow="visible" enable-background="new -1.25 -1.045 192 33" xml:space="preserve">
<defs>
</defs>
<path d="M187,28.825c-2.61,2.14-7.7,2.1-11.93,2.08H15.36c-0.61,0-1.22-0.03-1.81-0.08c-4.03,0.02-8.62-0.09-11.05-2.08
	c-2.59-2.13-2.5-6.64-2.5-9.83v-6.92c0-3.2-0.11-7.76,2.5-9.91c2.61-2.14,7.7-2.1,11.93-2.08H174.14c0.61,0,1.221,0.03,1.811,0.08
	c0.01,0,0.01,0,0.02,0c4.03-0.01,8.601,0.091,11.03,2.08c2.59,2.13,2.5,6.649,2.5,9.84v6.91C189.5,22.115,189.611,26.674,187,28.825
	z"/>
<g>
	<rect x="47.184" y="9.578" fill="none" width="135.316" height="13.055"/>
	<path fill="#FFFFFF" d="M48.654,17.931c0.15,0.183,0.327,0.336,0.53,0.462s0.417,0.228,0.643,0.308s0.458,0.138,0.697,0.174
		c0.239,0.037,0.473,0.055,0.701,0.055c0.36,0,0.69-0.035,0.991-0.105s0.56-0.176,0.776-0.314s0.385-0.311,0.506-0.513
		s0.181-0.438,0.181-0.708c0-0.301-0.08-0.557-0.239-0.769s-0.368-0.399-0.625-0.563s-0.553-0.312-0.885-0.441
		s-0.671-0.263-1.015-0.4s-0.683-0.284-1.015-0.441s-0.628-0.344-0.885-0.561s-0.466-0.472-0.625-0.766s-0.239-0.644-0.239-1.049
		c0-0.438,0.103-0.821,0.308-1.152s0.476-0.606,0.813-0.827s0.72-0.389,1.148-0.502s0.868-0.171,1.319-0.171
		c0.26,0,0.526,0.016,0.8,0.047c0.273,0.032,0.537,0.088,0.79,0.17s0.488,0.189,0.704,0.323c0.216,0.133,0.397,0.302,0.543,0.506
		l-0.567,0.766c-0.137-0.15-0.293-0.277-0.468-0.379s-0.362-0.185-0.561-0.246s-0.402-0.106-0.612-0.133s-0.417-0.041-0.622-0.041
		c-0.278,0-0.556,0.028-0.834,0.085s-0.529,0.148-0.752,0.274c-0.223,0.125-0.406,0.287-0.547,0.485
		c-0.141,0.199-0.212,0.439-0.212,0.722c0,0.292,0.08,0.544,0.239,0.756c0.16,0.212,0.369,0.4,0.629,0.564
		c0.26,0.165,0.555,0.315,0.885,0.452s0.669,0.276,1.015,0.417c0.346,0.141,0.685,0.294,1.015,0.458
		c0.331,0.165,0.625,0.358,0.885,0.582c0.26,0.224,0.469,0.485,0.629,0.784c0.16,0.298,0.239,0.65,0.239,1.057
		c0,0.323-0.052,0.614-0.157,0.871c-0.105,0.258-0.249,0.485-0.431,0.682c-0.182,0.195-0.396,0.363-0.643,0.502
		c-0.246,0.14-0.512,0.252-0.796,0.34c-0.285,0.086-0.582,0.15-0.892,0.191s-0.618,0.061-0.923,0.061
		c-0.333,0-0.649-0.029-0.95-0.088c-0.301-0.06-0.579-0.145-0.834-0.254s-0.484-0.241-0.687-0.396
		c-0.203-0.154-0.37-0.328-0.502-0.52L48.654,17.931z"/>
	<path fill="#FFFFFF" d="M56.83,12.771h1.128v7.014H56.83V12.771z M57.93,9.79v1.06h-1.046V9.79H57.93z"/>
	<path fill="#FFFFFF" d="M60.5,21.062c0.36,0.224,0.738,0.388,1.135,0.492c0.396,0.105,0.786,0.158,1.169,0.158
		c0.401,0,0.76-0.045,1.077-0.134s0.584-0.226,0.803-0.41s0.386-0.419,0.502-0.704s0.174-0.623,0.174-1.016v-0.867
		c-0.273,0.4-0.619,0.701-1.036,0.902c-0.417,0.2-0.874,0.301-1.371,0.301c-0.506,0-0.957-0.085-1.354-0.254
		c-0.396-0.168-0.731-0.405-1.005-0.711c-0.273-0.305-0.483-0.672-0.629-1.1c-0.146-0.429-0.219-0.905-0.219-1.43
		c0-0.496,0.068-0.969,0.205-1.418s0.342-0.841,0.615-1.176s0.616-0.602,1.029-0.8S62.49,12.6,63.037,12.6
		c0.533,0,0.985,0.097,1.357,0.291s0.694,0.475,0.967,0.844c0-0.078,0.002-0.172,0.007-0.284s0.009-0.218,0.014-0.318
		c0.004-0.119,0.011-0.239,0.021-0.362h1.128c-0.009,0.219-0.016,0.435-0.021,0.649c-0.009,0.182-0.015,0.372-0.017,0.567
		s-0.003,0.367-0.003,0.513v4.279c0,0.311-0.018,0.621-0.055,0.934s-0.103,0.611-0.198,0.898s-0.228,0.557-0.396,0.807
		c-0.168,0.251-0.386,0.469-0.653,0.653s-0.589,0.331-0.967,0.438s-0.823,0.161-1.333,0.161c-0.456,0-0.895-0.046-1.316-0.137
		c-0.421-0.092-0.821-0.232-1.2-0.424L60.5,21.062z M65.361,16.028c0-0.347-0.05-0.673-0.15-0.979s-0.245-0.571-0.434-0.797
		c-0.189-0.226-0.418-0.405-0.687-0.537s-0.572-0.199-0.909-0.199c-0.369,0-0.694,0.074-0.974,0.223
		c-0.28,0.148-0.515,0.349-0.704,0.602c-0.189,0.253-0.331,0.546-0.424,0.879c-0.093,0.333-0.14,0.682-0.14,1.047
		c0,0.396,0.038,0.756,0.113,1.074c0.075,0.32,0.201,0.593,0.376,0.818c0.175,0.227,0.404,0.4,0.687,0.523s0.631,0.186,1.046,0.186
		c0.41,0,0.756-0.082,1.039-0.244c0.283-0.161,0.509-0.375,0.68-0.639c0.171-0.266,0.294-0.567,0.369-0.908
		C65.323,16.738,65.361,16.388,65.361,16.028z"/>
	<path fill="#FFFFFF" d="M69.886,19.785h-1.128v-5.326c0-0.209-0.002-0.416-0.007-0.619s-0.009-0.384-0.014-0.543
		c-0.009-0.182-0.016-0.358-0.021-0.526h1.142l0.027,0.971c0.273-0.387,0.603-0.674,0.988-0.861s0.84-0.28,1.364-0.28
		c0.51,0,0.932,0.084,1.265,0.253s0.596,0.404,0.79,0.708s0.328,0.664,0.403,1.083s0.113,0.879,0.113,1.381v3.76H73.68v-3.631
		c0-0.396-0.017-0.757-0.051-1.083s-0.107-0.604-0.219-0.834s-0.277-0.408-0.496-0.533s-0.513-0.188-0.882-0.188
		c-0.342,0-0.645,0.066-0.909,0.198s-0.488,0.292-0.67,0.479s-0.322,0.384-0.42,0.591s-0.147,0.389-0.147,0.543V19.785z"/>
	<path fill="#FFFFFF" d="M81.166,12.771h1.128v7.014h-1.128V12.771z M82.266,9.79v1.06H81.22V9.79H82.266z"/>
	<path fill="#FFFFFF" d="M85.739,19.785h-1.128v-5.326c0-0.209-0.003-0.416-0.007-0.619s-0.01-0.384-0.014-0.543
		c-0.01-0.182-0.016-0.358-0.021-0.526h1.142l0.027,0.971c0.273-0.387,0.603-0.674,0.988-0.861c0.385-0.187,0.84-0.28,1.363-0.28
		c0.51,0,0.932,0.084,1.265,0.253s0.596,0.404,0.79,0.708c0.193,0.303,0.327,0.664,0.403,1.083c0.074,0.419,0.112,0.879,0.112,1.381
		v3.76h-1.128v-3.631c0-0.396-0.017-0.757-0.052-1.083c-0.033-0.326-0.106-0.604-0.219-0.834c-0.111-0.23-0.276-0.408-0.495-0.533
		s-0.513-0.188-0.882-0.188c-0.342,0-0.645,0.066-0.909,0.198s-0.487,0.292-0.67,0.479s-0.322,0.384-0.421,0.591
		c-0.098,0.208-0.146,0.389-0.146,0.543V19.785z"/>
	<path fill="#FFFFFF" d="M97.25,12.771l1.702,5.073c0.019,0.055,0.037,0.119,0.059,0.194c0.02,0.075,0.042,0.149,0.064,0.222
		c0.022,0.082,0.048,0.167,0.075,0.254c0.027-0.073,0.053-0.148,0.075-0.227c0.022-0.063,0.046-0.131,0.068-0.201
		s0.046-0.133,0.068-0.188l1.812-5.127h1.135l1.695,5.059c0.019,0.055,0.038,0.119,0.058,0.194c0.021,0.075,0.043,0.147,0.065,0.216
		c0.022,0.082,0.048,0.166,0.075,0.252c0.032-0.082,0.062-0.164,0.089-0.246c0.022-0.068,0.047-0.14,0.071-0.215
		c0.025-0.075,0.05-0.145,0.072-0.209l1.641-5.051h1.155l-2.516,7.014h-1.094l-1.921-5.681l-2.051,5.681h-1.107l-2.495-7.014H97.25z
		"/>
	<path fill="#FFFFFF" d="M108.605,12.771h1.128v7.014h-1.128V12.771z M109.706,9.79v1.06h-1.046V9.79H109.706z"/>
	<path fill="#FFFFFF" d="M112.563,13.502h-1.388v-0.731h1.388l0.034-1.859l1.094-0.321v2.181h1.75v0.731h-1.75v4.191
		c0,0.154,0.005,0.312,0.014,0.475s0.04,0.311,0.092,0.444c0.053,0.134,0.134,0.243,0.243,0.328s0.265,0.126,0.465,0.126
		c0.146,0,0.299-0.02,0.458-0.058s0.335-0.093,0.526-0.161l-0.007,0.842c-0.159,0.091-0.333,0.156-0.52,0.194
		s-0.398,0.058-0.636,0.058c-0.383,0-0.689-0.064-0.919-0.194c-0.23-0.13-0.408-0.304-0.533-0.522
		c-0.126-0.219-0.209-0.475-0.25-0.766c-0.041-0.292-0.062-0.6-0.062-0.924V13.502z"/>
	<path fill="#FFFFFF" d="M118.168,9.585V13.7c0.287-0.387,0.622-0.667,1.005-0.841s0.834-0.26,1.354-0.26
		c0.511,0,0.931,0.083,1.261,0.25c0.331,0.167,0.593,0.384,0.787,0.653c0.193,0.269,0.328,0.572,0.402,0.909
		c0.076,0.337,0.113,0.679,0.113,1.025v4.348h-1.128v-4.279c0-0.292-0.028-0.56-0.085-0.804c-0.058-0.244-0.153-0.454-0.287-0.629
		c-0.135-0.175-0.314-0.312-0.541-0.41c-0.225-0.098-0.504-0.147-0.837-0.147c-0.323,0-0.612,0.061-0.864,0.181
		c-0.254,0.121-0.467,0.285-0.64,0.492s-0.307,0.449-0.399,0.725c-0.094,0.276-0.141,0.566-0.141,0.871v4h-1.128v-10.2H118.168z"/>
	<path fill="#FFFFFF" d="M136.906,11.602c-0.169-0.164-0.356-0.305-0.563-0.424c-0.208-0.119-0.429-0.216-0.664-0.294
		c-0.234-0.078-0.48-0.134-0.738-0.171c-0.257-0.037-0.518-0.055-0.782-0.055c-0.634,0-1.19,0.119-1.671,0.356
		c-0.481,0.237-0.883,0.553-1.203,0.947c-0.322,0.395-0.563,0.846-0.725,1.355c-0.162,0.508-0.243,1.036-0.243,1.583
		c0,0.598,0.079,1.145,0.239,1.639c0.159,0.495,0.4,0.919,0.724,1.272s0.728,0.628,1.212,0.825c0.484,0.195,1.055,0.293,1.711,0.293
		c0.387,0,0.762-0.031,1.126-0.096c0.364-0.063,0.71-0.161,1.038-0.293v-2.912h-2.468v-1.012h3.644v4.616
		c-0.552,0.259-1.115,0.441-1.691,0.549c-0.577,0.107-1.159,0.16-1.747,0.16c-0.82,0-1.543-0.118-2.167-0.355
		c-0.624-0.236-1.147-0.571-1.568-1.004c-0.422-0.434-0.74-0.954-0.954-1.562s-0.321-1.284-0.321-2.027
		c0-0.488,0.052-0.958,0.154-1.412c0.104-0.454,0.255-0.878,0.454-1.275s0.445-0.758,0.737-1.083s0.627-0.606,1.002-0.841
		c0.377-0.235,0.793-0.416,1.252-0.543c0.457-0.127,0.955-0.191,1.493-0.191c0.328,0,0.647,0.025,0.957,0.075
		s0.602,0.125,0.875,0.228s0.525,0.231,0.755,0.387c0.23,0.156,0.433,0.339,0.605,0.548L136.906,11.602z"/>
	<path fill="#FFFFFF" d="M142.997,12.6c0.588,0,1.104,0.096,1.549,0.287c0.443,0.191,0.814,0.454,1.11,0.786s0.52,0.722,0.67,1.169
		s0.226,0.925,0.226,1.435c0,0.492-0.078,0.961-0.236,1.405c-0.156,0.444-0.387,0.834-0.689,1.169
		c-0.304,0.335-0.679,0.601-1.125,0.797c-0.446,0.195-0.957,0.293-1.531,0.293c-0.583,0-1.099-0.096-1.545-0.287
		s-0.821-0.451-1.125-0.779c-0.303-0.328-0.533-0.714-0.689-1.158c-0.158-0.444-0.236-0.92-0.236-1.426s0.08-0.983,0.239-1.432
		s0.394-0.841,0.7-1.176c0.309-0.335,0.687-0.599,1.135-0.793C141.897,12.696,142.414,12.6,142.997,12.6z M145.362,16.291
		c0-0.373-0.048-0.729-0.144-1.066s-0.242-0.632-0.438-0.885s-0.445-0.454-0.746-0.602s-0.657-0.222-1.068-0.222
		c-0.396,0-0.746,0.076-1.047,0.229s-0.554,0.358-0.757,0.615s-0.355,0.555-0.458,0.892c-0.104,0.337-0.154,0.688-0.154,1.052
		c0,0.365,0.051,0.711,0.154,1.039c0.103,0.328,0.255,0.619,0.458,0.872s0.458,0.454,0.764,0.602s0.662,0.222,1.067,0.222
		c0.402,0,0.751-0.074,1.048-0.225s0.543-0.353,0.739-0.605s0.343-0.545,0.438-0.875S145.362,16.656,145.362,16.291z"/>
	<path fill="#FFFFFF" d="M151.459,12.6c0.588,0,1.104,0.096,1.549,0.287c0.443,0.191,0.814,0.454,1.11,0.786s0.52,0.722,0.67,1.169
		s0.226,0.925,0.226,1.435c0,0.492-0.078,0.961-0.236,1.405c-0.156,0.444-0.387,0.834-0.689,1.169
		c-0.304,0.335-0.679,0.601-1.125,0.797c-0.446,0.195-0.957,0.293-1.531,0.293c-0.583,0-1.099-0.096-1.545-0.287
		s-0.821-0.451-1.125-0.779c-0.303-0.328-0.533-0.714-0.689-1.158c-0.158-0.444-0.236-0.92-0.236-1.426s0.08-0.983,0.239-1.432
		s0.394-0.841,0.7-1.176c0.309-0.335,0.687-0.599,1.135-0.793C150.36,12.696,150.876,12.6,151.459,12.6z M153.825,16.291
		c0-0.373-0.048-0.729-0.144-1.066s-0.242-0.632-0.438-0.885s-0.445-0.454-0.746-0.602s-0.657-0.222-1.068-0.222
		c-0.396,0-0.746,0.076-1.047,0.229s-0.554,0.358-0.757,0.615s-0.355,0.555-0.458,0.892c-0.104,0.337-0.154,0.688-0.154,1.052
		c0,0.365,0.051,0.711,0.154,1.039c0.103,0.328,0.255,0.619,0.458,0.872s0.458,0.454,0.764,0.602s0.662,0.222,1.067,0.222
		c0.402,0,0.751-0.074,1.048-0.225s0.543-0.353,0.739-0.605s0.343-0.545,0.438-0.875S153.825,16.656,153.825,16.291z"/>
	<path fill="#FFFFFF" d="M157.058,21.062c0.36,0.224,0.738,0.388,1.135,0.492c0.396,0.105,0.786,0.158,1.169,0.158
		c0.401,0,0.76-0.045,1.076-0.134c0.317-0.089,0.585-0.226,0.804-0.41s0.386-0.419,0.503-0.704c0.115-0.285,0.174-0.623,0.174-1.016
		v-0.867c-0.273,0.4-0.619,0.701-1.035,0.902c-0.418,0.2-0.874,0.301-1.371,0.301c-0.506,0-0.957-0.085-1.354-0.254
		c-0.396-0.168-0.731-0.405-1.005-0.711c-0.273-0.305-0.483-0.672-0.629-1.1c-0.146-0.429-0.219-0.905-0.219-1.43
		c0-0.496,0.068-0.969,0.205-1.418s0.342-0.841,0.615-1.176s0.616-0.602,1.028-0.8c0.413-0.198,0.893-0.297,1.439-0.297
		c0.533,0,0.985,0.097,1.357,0.291c0.371,0.194,0.693,0.475,0.967,0.844c0-0.078,0.002-0.172,0.007-0.284s0.009-0.218,0.014-0.318
		c0.005-0.119,0.012-0.239,0.021-0.362h1.128c-0.009,0.219-0.016,0.435-0.021,0.649c-0.009,0.182-0.015,0.372-0.018,0.567
		c-0.002,0.196-0.003,0.367-0.003,0.513v4.279c0,0.311-0.019,0.621-0.055,0.934s-0.103,0.611-0.198,0.898s-0.228,0.557-0.396,0.807
		c-0.169,0.251-0.387,0.469-0.652,0.653c-0.268,0.185-0.59,0.331-0.968,0.438s-0.822,0.161-1.333,0.161
		c-0.456,0-0.895-0.046-1.316-0.137c-0.421-0.092-0.821-0.232-1.199-0.424L157.058,21.062z M161.918,16.028
		c0-0.347-0.05-0.673-0.15-0.979s-0.245-0.571-0.434-0.797c-0.189-0.226-0.419-0.405-0.688-0.537s-0.572-0.199-0.909-0.199
		c-0.369,0-0.694,0.074-0.974,0.223c-0.281,0.148-0.516,0.349-0.705,0.602c-0.188,0.253-0.33,0.546-0.424,0.879
		c-0.093,0.333-0.14,0.682-0.14,1.047c0,0.396,0.038,0.756,0.112,1.074c0.076,0.32,0.201,0.593,0.377,0.818
		c0.175,0.227,0.404,0.4,0.687,0.523s0.631,0.186,1.046,0.186c0.41,0,0.757-0.082,1.039-0.244c0.282-0.161,0.51-0.375,0.68-0.639
		c0.172-0.266,0.295-0.567,0.369-0.908C161.881,16.738,161.918,16.388,161.918,16.028z"/>
	<path fill="#FFFFFF" d="M166.444,9.585v10.2h-1.128v-10.2H166.444z"/>
	<path fill="#FFFFFF" d="M174.708,18.998c-0.378,0.328-0.798,0.568-1.258,0.719s-0.982,0.225-1.565,0.225
		c-0.552,0-1.044-0.09-1.477-0.27s-0.799-0.431-1.098-0.752c-0.298-0.321-0.525-0.705-0.684-1.152
		c-0.156-0.446-0.235-0.936-0.235-1.469c0-0.506,0.077-0.982,0.232-1.429s0.381-0.838,0.677-1.176s0.657-0.604,1.084-0.8
		c0.426-0.196,0.912-0.294,1.459-0.294c0.538,0,1.005,0.088,1.401,0.263s0.723,0.417,0.978,0.725s0.445,0.673,0.57,1.097
		c0.126,0.424,0.188,0.884,0.188,1.381c0,0.05-0.001,0.107-0.003,0.174c-0.003,0.066-0.006,0.127-0.011,0.182h-5.373l0.021,0.307
		c0.027,0.342,0.097,0.654,0.208,0.938c0.111,0.282,0.266,0.525,0.461,0.73s0.434,0.363,0.713,0.476
		c0.28,0.112,0.6,0.167,0.96,0.167c0.481,0,0.923-0.084,1.324-0.252c0.4-0.169,0.76-0.41,1.078-0.725L174.708,18.998z
		 M173.799,15.621l-0.007-0.096c-0.022-0.296-0.081-0.567-0.174-0.813c-0.094-0.246-0.222-0.458-0.386-0.636
		s-0.363-0.315-0.598-0.414s-0.499-0.147-0.795-0.147c-0.318,0-0.604,0.056-0.859,0.167s-0.475,0.263-0.659,0.455
		c-0.184,0.191-0.333,0.415-0.446,0.67c-0.114,0.255-0.191,0.526-0.232,0.813H173.799z"/>
</g>
<path fill-rule="evenodd" clip-rule="evenodd" fill="#FFFFFF" d="M23.423,17.205c-0.631-0.549-1.664-1.148-1.523-2.205
	c0.189-1.479,2.373-1.816,2.592-4.065c0.234-2.227-0.645-3.193-1.654-4.196c1.537,0.205,2.256-0.41,3.061-0.938
	c-3.91,0.081-7.588-0.462-9.667,1.472c-2.9,2.688-1.362,8.254,3.603,7.464c-0.658,0.99,0.104,2.279,0.396,2.865
	c-2.439,0.123-4.74,0.688-5.933,1.998c-1.092,1.209-1.157,3.289-0.066,4.471c2.806,3.053,10.892,1.588,11.199-2.998
	C25.562,19.058,24.507,18.128,23.423,17.205z M19.233,13.938c-2.139-0.901-3.875-6.541-0.535-7.2c2.24-0.446,3.436,1.823,3.67,3.999
	C22.589,12.942,21.394,14.847,19.233,13.938z M15.695,22.406c-0.322-0.887-0.043-2.285,0.602-2.938
	c0.658-0.658,1.611-0.959,3.201-1.127c0.445-0.053,0.967-0.17,1.398-0.076c0.535,0.127,1.15,0.748,1.531,1.072
	c0.455,0.379,1.393,1.223,1.406,2.402C23.878,25.548,16.779,25.359,15.695,22.406z M31.362,13.938V11.14h-1.598
	c0,0.029,0,0.066,0,0.104c-0.014,0.271-0.014,0.557,0,0.842c0,0.066,0,0.139,0,0.205c0.016,0.344,0.016,0.688,0,1.004v0.007
	c0,0.088-0.014,0.176-0.014,0.264c-0.014,0.088-0.014,0.169-0.029,0.249c-0.016,0.044-0.016,0.08-0.029,0.125l0,0h-2.666v1.596l0,0
	c0.146,0.008,0.293,0.016,0.439,0.016c0.072,0,0.162-0.008,0.234-0.008c0.131,0,0.264,0,0.396-0.008
	c0.32-0.008,0.645-0.014,0.951-0.008c0.117,0.008,0.248,0.016,0.365,0.023c0.031,0.006,0.074,0.006,0.104,0.014
	c0.014,0,0.014,0,0.029,0c0.029,0.008,0.059,0.008,0.088,0.016c0.045,0.006,0.088,0.014,0.131,0.021v2.664h1.598v-2.73h2.797v-1.596
	H31.362z"/>
<path fill-rule="evenodd" clip-rule="evenodd" fill="#FFFFFF" d="M23.423,17.205c-0.631-0.549-1.664-1.148-1.523-2.205
	c0.189-1.479,2.373-1.816,2.592-4.065c0.234-2.227-0.645-3.193-1.654-4.196c1.537,0.205,2.256-0.41,3.061-0.938
	c-3.91,0.081-7.588-0.462-9.667,1.472c-2.9,2.688-1.362,8.254,3.603,7.464c-0.658,0.99,0.104,2.279,0.396,2.865
	c-2.439,0.123-4.74,0.688-5.933,1.998c-1.092,1.209-1.157,3.289-0.066,4.471c2.806,3.053,10.892,1.588,11.199-2.998
	C25.562,19.058,24.507,18.128,23.423,17.205z M19.233,13.938c-2.139-0.901-3.875-6.541-0.535-7.2c2.24-0.446,3.436,1.823,3.67,3.999
	C22.589,12.942,21.394,14.847,19.233,13.938z M15.695,22.406c-0.322-0.887-0.043-2.285,0.602-2.938
	c0.658-0.658,1.611-0.959,3.201-1.127c0.445-0.053,0.967-0.17,1.398-0.076c0.535,0.127,1.15,0.748,1.531,1.072
	c0.455,0.379,1.393,1.223,1.406,2.402C23.878,25.548,16.779,25.359,15.695,22.406z"/>
<path fill-rule="evenodd" clip-rule="evenodd" fill="none" d="M19.233,13.938c-2.139-0.901-3.875-6.541-0.535-7.2
	c2.24-0.446,3.436,1.823,3.67,3.999C22.589,12.942,21.394,14.847,19.233,13.938z"/>
<path fill-rule="evenodd" clip-rule="evenodd" fill="#FFFFFF" d="M29.765,11.14c0.527,0,1.07,0,1.598,0c0,0.931,0,1.861,0,2.799
	c0.938,0,1.875,0,2.797,0c0,0.534,0,1.062,0,1.596c-0.922,0-1.859,0-2.797,0c0,0.914,0,1.824,0,2.73c-0.527,0-1.07,0-1.598,0
	c0-0.885,0-1.771,0-2.664c-0.775-0.155-1.844-0.021-2.738-0.066c0-0.535,0-1.062,0-1.596c0.895,0,1.787,0,2.666,0
	C29.854,13.14,29.722,12.048,29.765,11.14z"/>
<path fill-rule="evenodd" clip-rule="evenodd" fill="none" d="M23.833,21.74c0.045,3.809-7.054,3.619-8.138,0.666
	c-0.322-0.887-0.043-2.285,0.602-2.938c0.658-0.658,1.611-0.959,3.201-1.127c0.445-0.053,0.967-0.17,1.398-0.076
	c0.535,0.127,1.15,0.748,1.531,1.072C22.882,19.716,23.819,20.56,23.833,21.74z"/>
</svg>
