<?xml version="1.0" encoding="utf-8"?>
<!-- Generator: Adobe Illustrator 15.1.0, SVG Export Plug-In  -->
<!DOCTYPE svg PUBLIC "-//W3C//DTD SVG 1.1//EN" "http://www.w3.org/Graphics/SVG/1.1/DTD/svg11.dtd" [
	<!ENTITY ns_flows "http://ns.adobe.com/Flows/1.0/">
]>
<svg version="1.1"
	 xmlns="http://www.w3.org/2000/svg" xmlns:xlink="http://www.w3.org/1999/xlink" xmlns:a="http://ns.adobe.com/AdobeSVGViewerExtensions/3.0/"
	 x="0px" y="0px" width="48px" height="15px" viewBox="-3.583 0.792 48 15"
	 overflow="visible" enable-background="new -3.583 0.792 48 15" xml:space="preserve">
<defs>
</defs>
<g>
	<rect y="1.771" fill="none" width="54.084" height="11.188"/>
	<path fill="#FDA63C" d="M2.557,11.977H1.381V2.023h1.176v4.334h5.476V2.023h1.176v9.953H8.032V7.369H2.557V11.977z"/>
	<path fill="#FDA63C" d="M14.868,4.792c0.588,0,1.104,0.096,1.549,0.287c0.443,0.191,0.814,0.454,1.11,0.786s0.52,0.722,0.67,1.169
		s0.226,0.926,0.226,1.436c0,0.492-0.078,0.96-0.236,1.405c-0.156,0.443-0.387,0.834-0.689,1.168
		c-0.304,0.336-0.678,0.601-1.125,0.797s-0.957,0.294-1.531,0.294c-0.584,0-1.098-0.096-1.545-0.287
		c-0.447-0.191-0.821-0.451-1.125-0.779s-0.533-0.714-0.69-1.159c-0.157-0.443-0.236-0.919-0.236-1.425s0.08-0.983,0.239-1.432
		s0.393-0.841,0.701-1.176s0.686-0.599,1.134-0.793C13.769,4.889,14.284,4.792,14.868,4.792z M17.233,8.483
		c0-0.374-0.048-0.729-0.144-1.066c-0.097-0.337-0.242-0.632-0.438-0.885s-0.445-0.454-0.746-0.602s-0.657-0.222-1.068-0.222
		c-0.396,0-0.746,0.076-1.047,0.229s-0.553,0.358-0.756,0.615c-0.204,0.257-0.356,0.555-0.459,0.892
		c-0.103,0.338-0.154,0.688-0.154,1.053s0.051,0.711,0.154,1.039c0.103,0.328,0.256,0.618,0.459,0.872
		c0.203,0.252,0.457,0.453,0.763,0.602c0.306,0.147,0.661,0.222,1.067,0.222c0.402,0,0.752-0.075,1.048-0.226
		c0.297-0.15,0.543-0.352,0.739-0.605c0.196-0.252,0.342-0.544,0.438-0.875C17.186,9.195,17.233,8.848,17.233,8.483z"/>
	<path fill="#FDA63C" d="M21.349,4.963l0.027,0.943c0.273-0.383,0.598-0.664,0.975-0.844c0.375-0.18,0.805-0.27,1.288-0.27
		c0.265,0,0.514,0.033,0.749,0.099c0.234,0.066,0.448,0.158,0.643,0.277c0.193,0.119,0.363,0.263,0.509,0.434
		s0.263,0.361,0.349,0.571c0.264-0.479,0.604-0.828,1.019-1.049s0.923-0.332,1.524-0.332c0.496,0,0.906,0.081,1.23,0.243
		s0.58,0.375,0.77,0.639c0.188,0.264,0.32,0.566,0.396,0.906c0.074,0.339,0.112,0.689,0.112,1.049v4.348h-1.128V8.162
		c0-0.292-0.018-0.583-0.051-0.875c-0.035-0.292-0.109-0.555-0.227-0.79c-0.115-0.235-0.287-0.425-0.516-0.571
		s-0.535-0.219-0.923-0.219c-0.306,0-0.577,0.062-0.817,0.188c-0.238,0.125-0.441,0.293-0.607,0.502
		c-0.167,0.209-0.293,0.45-0.38,0.721s-0.13,0.553-0.13,0.844v4.013h-1.128V7.636c0-0.264-0.032-0.514-0.096-0.749
		s-0.165-0.438-0.304-0.612c-0.14-0.173-0.318-0.311-0.537-0.414s-0.482-0.154-0.793-0.154s-0.584,0.061-0.824,0.181
		c-0.238,0.121-0.44,0.284-0.604,0.489s-0.288,0.444-0.372,0.718c-0.085,0.273-0.127,0.563-0.127,0.868v4.013h-1.128V6.774
		c0-0.301-0.003-0.606-0.011-0.916c-0.006-0.31-0.017-0.608-0.03-0.896H21.349z"/>
	<path fill="#FDA63C" d="M39.19,11.19c-0.379,0.328-0.797,0.567-1.258,0.718s-0.982,0.226-1.565,0.226
		c-0.552,0-1.044-0.09-1.477-0.271c-0.433-0.18-0.799-0.43-1.097-0.752c-0.299-0.32-0.527-0.705-0.684-1.151
		c-0.158-0.446-0.236-0.937-0.236-1.47c0-0.506,0.078-0.982,0.232-1.429s0.381-0.838,0.677-1.176s0.657-0.604,1.083-0.8
		c0.427-0.196,0.913-0.294,1.46-0.294c0.538,0,1.005,0.088,1.401,0.263s0.723,0.417,0.978,0.725s0.445,0.673,0.571,1.097
		c0.125,0.424,0.188,0.884,0.188,1.381c0,0.05-0.001,0.108-0.004,0.174c-0.002,0.066-0.006,0.127-0.01,0.182h-5.373l0.021,0.308
		c0.027,0.342,0.097,0.654,0.208,0.937s0.266,0.526,0.461,0.731s0.434,0.363,0.713,0.476c0.28,0.111,0.6,0.167,0.959,0.167
		c0.482,0,0.924-0.084,1.324-0.253s0.76-0.41,1.079-0.725L39.19,11.19z M38.281,7.813l-0.007-0.096
		c-0.023-0.296-0.08-0.567-0.174-0.813s-0.223-0.458-0.386-0.636c-0.164-0.178-0.362-0.315-0.597-0.414s-0.5-0.147-0.795-0.147
		c-0.319,0-0.605,0.056-0.861,0.167c-0.254,0.112-0.474,0.263-0.658,0.455C34.62,6.521,34.471,6.745,34.356,7
		c-0.113,0.255-0.19,0.526-0.231,0.813H38.281z"/>
</g>
</svg>
