<?xml version="1.0" encoding="utf-8"?>
<!-- Generator: Adobe Illustrator 15.1.0, SVG Export Plug-In  -->
<!DOCTYPE svg PUBLIC "-//W3C//DTD SVG 1.1//EN" "http://www.w3.org/Graphics/SVG/1.1/DTD/svg11.dtd" [
	<!ENTITY ns_flows "http://ns.adobe.com/Flows/1.0/">
]>
<svg version="1.1"
	 xmlns="http://www.w3.org/2000/svg" xmlns:xlink="http://www.w3.org/1999/xlink" xmlns:a="http://ns.adobe.com/AdobeSVGViewerExtensions/3.0/"
	 x="0px" y="0px" width="420px" height="393px" viewBox="-2.987 -5.805 420 393"
	 overflow="visible" enable-background="new -2.987 -5.805 420 393" xml:space="preserve">
<defs>
</defs>
<path fill-rule="evenodd" clip-rule="evenodd" fill="#FFFFFF" d="M229.723,0.095c-0.34,0-0.68,0.02-1.02,0.05
	c0.51,0,1.02-0.03,1.5-0.05H229.723z"/>
<path fill-rule="evenodd" clip-rule="evenodd" d="M230.203,0.095c-0.48,0.02-0.99,0.05-1.5,0.05c0.34-0.03,0.68-0.05,1.02-0.05
	H230.203z"/>
<path fill-rule="evenodd" clip-rule="evenodd" d="M234.923,311.936c-41.141,0.95-77.95-20.8-107.26-11.34
	c-37.34,12.06-45.09,73.189-76.54,79.38c-25.06,4.93-52.94-21.99-51.03-45.36c2.97-36.25,72.07-41.54,82.21-85.05
	c6.44-27.61-20.31-68.98-14.64-103.22C108.763,188.305,187.203,266.575,234.923,311.936z"/>
<path fill-rule="evenodd" clip-rule="evenodd" d="M379.993,144.745c0,0.53,0,1.06-0.011,1.6c-0.97,78.36-55.29,137.24-127.58,162.76
	c-31.069-26.96-60.21-54.97-90.6-85.05c-0.2-0.2-0.4-0.4-0.6-0.57c-23.05-22.06-44.93-43.37-66.08-65.29
	c-0.31-0.28-0.57-0.57-0.82-0.85c-0.2-0.17-0.37-0.34-0.54-0.54c-0.54-0.51-1.08-1.05-1.59-1.59c-1.05-1.04-2.07-2.12-3.06-3.2
	c-0.51-0.51-0.99-1.05-1.48-1.59c-0.08-0.05-0.14-0.14-0.19-0.22c-5.7-5.99-11.34-12.02-16.96-18.12c0.85-2.66,1.76-5.33,2.75-7.94
	c0.11-0.42,0.26-0.82,0.46-1.22c11.9-32.34,30.64-60.89,55.05-82.24c26.11-22.99,58.66-37.76,96.19-40.31
	c0.71-0.06,1.42-0.09,2.16-0.14c0.53-0.03,1.08-0.06,1.61-0.09c0.51,0,1.02-0.03,1.5-0.05h0.229c1.25-0.03,2.53-0.06,3.771-0.09
	h0.649c22.09-0.2,43.641,5.19,63,14.94c1.28,0.62,2.55,1.28,3.8,1.96c0.021,0,0.021,0.02,0.021,0.02c1.53,0.83,3.07,1.68,4.57,2.56
	c1.5,0.87,3,1.75,4.479,2.69l0.03,0.03c1.47,0.93,2.92,1.87,4.359,2.86c5.65,3.83,11.061,8.08,16.131,12.67
	c0.88,0.8,1.729,1.59,2.579,2.38c0.091,0.09,0.181,0.18,0.261,0.23c1.05,0.99,2.069,1.99,3.06,3.01c2.01,2.01,4,4.11,5.9,6.23
	c0.93,1.08,1.899,2.16,2.8,3.26c0.03,0.03,0.06,0.09,0.12,0.12c1.95,2.35,3.85,4.76,5.689,7.23c1.061,1.39,2.051,2.83,3.04,4.25
	c0.57,0.88,1.16,1.73,1.73,2.61c14.57,22.05,23.189,47.88,23.56,74.78C379.993,142.805,380.003,143.775,379.993,144.745z"/>
</svg>
