<?xml version="1.0" encoding="utf-8"?>
<!-- Generator: Adobe Illustrator 15.1.0, SVG Export Plug-In  -->
<!DOCTYPE svg PUBLIC "-//W3C//DTD SVG 1.1//EN" "http://www.w3.org/Graphics/SVG/1.1/DTD/svg11.dtd" [
	<!ENTITY ns_flows "http://ns.adobe.com/Flows/1.0/">
]>
<svg version="1.1"
	 xmlns="http://www.w3.org/2000/svg" xmlns:xlink="http://www.w3.org/1999/xlink" xmlns:a="http://ns.adobe.com/AdobeSVGViewerExtensions/3.0/"
	 x="0px" y="0px" width="84px" height="84px" viewBox="-1 -1 84 84" overflow="visible" enable-background="new -1 -1 84 84"
	 xml:space="preserve">
<defs>
</defs>
<path fill="#FFFFFF" stroke="#FDA63C" stroke-width="2" stroke-miterlimit="10" d="M81,41c0,22.094-17.891,40-40,40
	C18.909,81,1,63.093,1,41C1,18.911,18.909,1,41,1C63.109,1,81,18.911,81,41z"/>
<g>
	<rect x="21.833" y="34.5" fill="none" width="42.667" height="16"/>
	<path d="M24.946,46.892h-1.428V34.806h2.831c0.47,0,0.931,0.021,1.382,0.062c0.451,0.041,0.879,0.113,1.283,0.216
		c0.404,0.102,0.776,0.24,1.117,0.415c0.34,0.174,0.633,0.396,0.88,0.664c0.246,0.268,0.438,0.588,0.577,0.958
		s0.208,0.805,0.208,1.303c0,0.631-0.137,1.174-0.411,1.627c-0.273,0.454-0.642,0.826-1.104,1.116
		c-0.462,0.291-0.995,0.505-1.598,0.644s-1.234,0.207-1.893,0.207h-1.843V46.892z M24.946,36.035v4.756h2.167
		c0.454,0,0.875-0.045,1.262-0.137s0.721-0.232,1-0.424c0.28-0.191,0.498-0.434,0.656-0.729c0.157-0.293,0.236-0.645,0.236-1.056
		c0-0.482-0.087-0.88-0.262-1.193c-0.174-0.313-0.417-0.56-0.73-0.74c-0.312-0.18-0.686-0.305-1.12-0.374
		c-0.435-0.069-0.915-0.104-1.44-0.104H24.946z"/>
	<path d="M35.171,34.507v12.385h-1.369V34.507H35.171z"/>
	<path d="M41.414,38.168c0.35,0,0.668,0.032,0.955,0.095c0.287,0.064,0.553,0.154,0.797,0.27s0.467,0.26,0.672,0.432
		s0.396,0.365,0.574,0.582l0.049-1.171h1.354l-0.033,2.101v6.416h-1.369l0.016-1.195c-0.133,0.177-0.301,0.35-0.502,0.519
		c-0.203,0.169-0.43,0.317-0.686,0.444c-0.254,0.127-0.535,0.229-0.842,0.307c-0.307,0.078-0.629,0.117-0.967,0.117
		c-0.476,0-0.908-0.062-1.295-0.188c-0.388-0.124-0.733-0.296-1.037-0.515c-0.305-0.219-0.569-0.475-0.793-0.768
		c-0.225-0.293-0.408-0.608-0.553-0.946c-0.144-0.338-0.251-0.688-0.323-1.05s-0.108-0.721-0.108-1.075
		c0-0.548,0.085-1.085,0.254-1.61s0.423-0.993,0.764-1.403c0.34-0.409,0.767-0.738,1.278-0.987S40.728,38.168,41.414,38.168z
		 M41.572,45.988c0.387,0,0.752-0.079,1.092-0.237c0.34-0.157,0.639-0.39,0.896-0.697c0.258-0.307,0.461-0.688,0.613-1.146
		c0.152-0.456,0.232-0.983,0.238-1.581c0-0.448-0.068-0.857-0.205-1.229c-0.135-0.371-0.326-0.691-0.576-0.963
		c-0.248-0.271-0.553-0.481-0.908-0.631c-0.357-0.149-0.758-0.224-1.199-0.224c-0.338,0-0.643,0.045-0.915,0.137
		c-0.271,0.091-0.512,0.217-0.722,0.377c-0.21,0.161-0.393,0.35-0.548,0.564c-0.155,0.217-0.282,0.447-0.382,0.693
		s-0.173,0.502-0.22,0.768s-0.07,0.529-0.07,0.789c0,0.255,0.018,0.516,0.054,0.784s0.095,0.527,0.179,0.776
		c0.082,0.249,0.196,0.484,0.34,0.705c0.144,0.222,0.322,0.414,0.535,0.577s0.468,0.294,0.764,0.391S41.18,45.988,41.572,45.988z"/>
	<path d="M47.051,38.375h1.502l2.756,7.097l2.832-7.097h1.451l-3.768,9.114c-0.15,0.365-0.33,0.711-0.539,1.037
		c-0.211,0.327-0.451,0.619-0.723,0.876c-0.271,0.258-0.572,0.477-0.9,0.656c-0.33,0.18-0.691,0.306-1.084,0.378l-0.764-0.938
		c0.465-0.122,0.85-0.271,1.154-0.448s0.553-0.365,0.746-0.564s0.346-0.405,0.453-0.618s0.197-0.419,0.27-0.618l0.141-0.407
		L47.051,38.375z"/>
	<path d="M57.941,45.373h1.775v1.711h-1.775V45.373z M59.318,43.796h-0.953l-0.332-8.949h1.617L59.318,43.796z"/>
</g>
</svg>
