<?xml version="1.0" encoding="utf-8"?>
<!-- Generator: Adobe Illustrator 15.1.0, SVG Export Plug-In  -->
<!DOCTYPE svg PUBLIC "-//W3C//DTD SVG 1.1//EN" "http://www.w3.org/Graphics/SVG/1.1/DTD/svg11.dtd" [
	<!ENTITY ns_flows "http://ns.adobe.com/Flows/1.0/">
]>
<svg version="1.1"
	 xmlns="http://www.w3.org/2000/svg" xmlns:xlink="http://www.w3.org/1999/xlink" xmlns:a="http://ns.adobe.com/AdobeSVGViewerExtensions/3.0/"
	 x="0px" y="0px" width="80px" height="30px" viewBox="-1.139 -1.125 80 30"
	 overflow="visible" enable-background="new -1.139 -1.125 80 30" xml:space="preserve">
<defs>
</defs>
<g>
	<rect x="14.801" y="9.75" fill="none" width="50.096" height="10.905"/>
	<path d="M21.445,18.391h-0.971l-2.279-3.227h-1.391v3.227H16v-8.264h3.07c1.679,0,2.291,1.259,2.291,2.531
		c0,1.248-0.588,2.458-2.194,2.507L21.445,18.391z M16.804,10.918v3.454h2.207c1.163,0,1.56-0.84,1.56-1.715s-0.396-1.739-1.5-1.739
		H16.804z"/>
	<path d="M28.189,10.126v0.792h-3.922v3.022h3.431v0.792h-3.431v2.867h4.055v0.792h-4.846v-8.264H28.189z"/>
	<path d="M32.367,17.719c1.247,0,1.896-0.708,2.027-1.355c0.155-1.02-0.636-1.535-1.571-1.751l-1.115-0.252
		c-1.715-0.384-1.943-1.379-1.943-2.075c0-1.343,1.271-2.255,2.591-2.255c1.463,0,2.591,0.923,2.591,2.363h-0.792
		c0-0.959-0.779-1.571-1.799-1.571c-0.911,0-1.799,0.588-1.799,1.463c0,0.432,0.155,1.043,1.319,1.307l1.127,0.252
		c1.319,0.3,2.411,1.079,2.171,2.663c-0.191,0.959-1.104,2.002-2.807,2.002c-1.631,0-2.674-1.283-2.674-2.494h0.791
		C30.484,16.843,31.216,17.719,32.367,17.719z"/>
	<path d="M42.386,10.126v0.792h-2.65v7.472h-0.792v-7.472h-2.65v-0.792H42.386z"/>
	<path d="M42.448,18.391l3.179-8.264h0.84l3.178,8.264h-0.852l-0.84-2.172h-3.825L43.3,18.391H42.448z M46.047,11.23l-1.632,4.246
		h3.263L46.047,11.23z"/>
	<path d="M56.702,18.391H55.73l-2.278-3.227h-1.392v3.227h-0.804v-8.264h3.07c1.68,0,2.291,1.259,2.291,2.531
		c0,1.248-0.588,2.458-2.195,2.507L56.702,18.391z M52.061,10.918v3.454h2.207c1.163,0,1.559-0.84,1.559-1.715
		s-0.396-1.739-1.499-1.739H52.061z"/>
	<path d="M63.891,10.126v0.792h-2.65v7.472h-0.792v-7.472h-2.65v-0.792H63.891z"/>
</g>
<rect x="1" y="1" fill="none" stroke="#CCCCCC" stroke-width="2" stroke-miterlimit="10" width="75.951" height="25.905"/>
</svg>
