<?xml version="1.0" encoding="utf-8"?>
<!-- Generator: Adobe Illustrator 15.1.0, SVG Export Plug-In  -->
<!DOCTYPE svg PUBLIC "-//W3C//DTD SVG 1.1//EN" "http://www.w3.org/Graphics/SVG/1.1/DTD/svg11.dtd" [
	<!ENTITY ns_flows "http://ns.adobe.com/Flows/1.0/">
]>
<svg version="1.1"
	 xmlns="http://www.w3.org/2000/svg" xmlns:xlink="http://www.w3.org/1999/xlink" xmlns:a="http://ns.adobe.com/AdobeSVGViewerExtensions/3.0/"
	 x="0px" y="0px" width="90px" height="42px" viewBox="29.167 -1.171 90 42"
	 overflow="visible" enable-background="new 29.167 -1.171 90 42" xml:space="preserve">
<defs>
</defs>
<path fill="#FFFFFF" stroke="#CCCCCC" stroke-width="2" stroke-miterlimit="10" d="M31,53.267c0,8.285-6.709,15-15,15
	c-8.284,0-15-6.715-15-15c0-8.283,6.716-14.999,15-14.999C24.291,38.268,31,44.984,31,53.267z"/>
<g>
	<rect x="44.415" y="13.53" fill="none" width="61.012" height="18.232"/>
	<path d="M49.174,24.818c1.768,0,2.686-1.003,2.873-1.92c0.221-1.445-0.901-2.176-2.227-2.482l-1.581-0.357
		c-2.431-0.544-2.754-1.955-2.754-2.941c0-1.904,1.802-3.195,3.672-3.195c2.074,0,3.671,1.309,3.671,3.349h-1.122
		c0-1.36-1.105-2.227-2.55-2.227c-1.292,0-2.55,0.833-2.55,2.074c0,0.612,0.221,1.479,1.87,1.853l1.598,0.357
		c1.87,0.425,3.417,1.53,3.077,3.773c-0.272,1.36-1.564,2.839-3.978,2.839c-2.312,0-3.791-1.818-3.791-3.536h1.122
		C46.506,23.577,47.542,24.818,49.174,24.818z"/>
	<path d="M56.893,25.77h-1.122V14.058h1.122V25.77z"/>
	<path d="M70.832,20.024c0,3.978-2.107,5.916-5.439,5.916c-3.314,0-5.882-2.686-5.882-6c0-3.332,2.567-6.017,5.882-6.017
		c1.428,0,2.72,0.51,3.739,1.36l-0.799,0.799c-0.799-0.646-1.818-1.037-2.94-1.037c-2.703,0-4.76,2.193-4.76,4.896
		s2.057,4.878,4.76,4.878c2.533,0,4.046-1.411,4.182-3.739h-3.417v-1.054H70.832z"/>
	<path d="M80.233,25.77l-5.967-9.808v9.808h-1.121V14.058h1.206l5.916,9.74v-9.74h1.122V25.77H80.233z"/>
	<path d="M90.432,25.77h-1.121V14.058h1.121V25.77z"/>
	<path d="M100.92,25.77l-5.967-9.808v9.808h-1.121V14.058h1.206l5.916,9.74v-9.74h1.122V25.77H100.92z"/>
</g>
<line stroke="#000000" stroke-miterlimit="10" x1="116.837" y1="0.335" x2="112.077" y2="5.655"/>
<line stroke="#000000" stroke-miterlimit="10" x1="112.612" y1="0.335" x2="107.85" y2="5.654"/>
<line stroke="#000000" stroke-miterlimit="10" x1="108.608" y1="0.335" x2="103.846" y2="5.654"/>
<line stroke="#000000" stroke-miterlimit="10" x1="104.555" y1="0.335" x2="99.793" y2="5.654"/>
<line stroke="#000000" stroke-miterlimit="10" x1="100.64" y1="0.334" x2="95.879" y2="5.654"/>
<line stroke="#000000" stroke-miterlimit="10" x1="96.59" y1="0.334" x2="91.829" y2="5.654"/>
<line stroke="#000000" stroke-miterlimit="10" x1="92.584" y1="0.334" x2="87.825" y2="5.654"/>
<line stroke="#000000" stroke-miterlimit="10" x1="88.532" y1="0.334" x2="83.772" y2="5.654"/>
<line stroke="#000000" stroke-miterlimit="10" x1="84.465" y1="0.334" x2="79.705" y2="5.654"/>
<line stroke="#000000" stroke-miterlimit="10" x1="80.415" y1="0.334" x2="75.653" y2="5.654"/>
<line stroke="#000000" stroke-miterlimit="10" x1="76.411" y1="0.334" x2="71.649" y2="5.654"/>
<line stroke="#000000" stroke-miterlimit="10" x1="72.358" y1="0.334" x2="67.596" y2="5.654"/>
<line stroke="#000000" stroke-miterlimit="10" x1="68.301" y1="0.333" x2="63.54" y2="5.652"/>
<line stroke="#000000" stroke-miterlimit="10" x1="64.25" y1="0.333" x2="59.489" y2="5.652"/>
<line stroke="#000000" stroke-miterlimit="10" x1="60.246" y1="0.333" x2="55.484" y2="5.652"/>
<line stroke="#000000" stroke-miterlimit="10" x1="56.193" y1="0.333" x2="51.432" y2="5.652"/>
<line stroke="#000000" stroke-miterlimit="10" x1="52.125" y1="0.333" x2="47.364" y2="5.652"/>
<line stroke="#000000" stroke-miterlimit="10" x1="48.075" y1="0.333" x2="43.314" y2="5.652"/>
<line stroke="#000000" stroke-miterlimit="10" x1="44.07" y1="0.333" x2="39.309" y2="5.652"/>
<line stroke="#000000" stroke-miterlimit="10" x1="40.018" y1="0.333" x2="35.256" y2="5.652"/>
<line stroke="#000000" stroke-miterlimit="10" x1="117.547" y1="3.975" x2="112.786" y2="9.294"/>
<line stroke="#000000" stroke-miterlimit="10" x1="112.786" y1="13.775" x2="117.547" y2="8.456"/>
<line stroke="#000000" stroke-miterlimit="10" x1="117.547" y1="12.566" x2="112.786" y2="17.885"/>
<line stroke="#000000" stroke-miterlimit="10" x1="117.548" y1="16.531" x2="112.788" y2="21.85"/>
<line stroke="#000000" stroke-miterlimit="10" x1="117.343" y1="20.646" x2="112.583" y2="25.967"/>
<line stroke="#000000" stroke-miterlimit="10" x1="117.343" y1="24.383" x2="112.583" y2="29.704"/>
<line stroke="#000000" stroke-miterlimit="10" x1="117.344" y1="28.07" x2="112.583" y2="33.387"/>
<line stroke="#000000" stroke-miterlimit="10" x1="112.215" y1="34.016" x2="107.456" y2="39.333"/>
<line stroke="#000000" stroke-miterlimit="10" x1="107.99" y1="34.016" x2="103.23" y2="39.333"/>
<line stroke="#000000" stroke-miterlimit="10" x1="103.986" y1="34.016" x2="99.224" y2="39.333"/>
<line stroke="#000000" stroke-miterlimit="10" x1="99.933" y1="34.016" x2="95.172" y2="39.333"/>
<line stroke="#000000" stroke-miterlimit="10" x1="96.019" y1="34.016" x2="91.258" y2="39.333"/>
<line stroke="#000000" stroke-miterlimit="10" x1="91.968" y1="34.016" x2="87.207" y2="39.333"/>
<line stroke="#000000" stroke-miterlimit="10" x1="87.963" y1="34.016" x2="83.203" y2="39.333"/>
<line stroke="#000000" stroke-miterlimit="10" x1="83.912" y1="34.016" x2="79.15" y2="39.333"/>
<line stroke="#000000" stroke-miterlimit="10" x1="79.844" y1="34.016" x2="75.083" y2="39.333"/>
<line stroke="#000000" stroke-miterlimit="10" x1="75.792" y1="34.016" x2="71.033" y2="39.333"/>
<line stroke="#000000" stroke-miterlimit="10" x1="71.789" y1="34.016" x2="67.027" y2="39.333"/>
<line stroke="#000000" stroke-miterlimit="10" x1="67.736" y1="34.016" x2="62.975" y2="39.333"/>
<line stroke="#000000" stroke-miterlimit="10" x1="63.679" y1="34.011" x2="58.917" y2="39.332"/>
<line stroke="#000000" stroke-miterlimit="10" x1="59.627" y1="34.011" x2="54.867" y2="39.332"/>
<line stroke="#000000" stroke-miterlimit="10" x1="55.624" y1="34.011" x2="50.862" y2="39.332"/>
<line stroke="#000000" stroke-miterlimit="10" x1="51.571" y1="34.011" x2="46.81" y2="39.332"/>
<line stroke="#000000" stroke-miterlimit="10" x1="47.503" y1="34.011" x2="42.743" y2="39.332"/>
<line stroke="#000000" stroke-miterlimit="10" x1="43.454" y1="34.011" x2="38.692" y2="39.332"/>
<line stroke="#000000" stroke-miterlimit="10" x1="39.448" y1="34.011" x2="34.687" y2="39.332"/>
<line stroke="#000000" stroke-miterlimit="10" x1="35.396" y1="34.011" x2="30.634" y2="39.332"/>
<line stroke="#000000" stroke-miterlimit="10" x1="34.546" y1="6.399" x2="29.785" y2="11.719"/>
<line stroke="#000000" stroke-miterlimit="10" x1="35.255" y1="10.039" x2="30.494" y2="15.358"/>
<line stroke="#000000" stroke-miterlimit="10" x1="35.255" y1="14.519" x2="30.494" y2="19.839"/>
<line stroke="#000000" stroke-miterlimit="10" x1="35.255" y1="18.629" x2="30.494" y2="23.95"/>
<line stroke="#000000" stroke-miterlimit="10" x1="35.256" y1="22.594" x2="30.495" y2="27.915"/>
<line stroke="#000000" stroke-miterlimit="10" x1="35.051" y1="26.71" x2="30.29" y2="32.031"/>
<line stroke="#000000" stroke-miterlimit="10" x1="35.051" y1="30.449" x2="30.29" y2="35.766"/>
<line stroke="#000000" stroke-miterlimit="10" x1="35.396" y1="1.314" x2="30.634" y2="6.635"/>
<line stroke="#000000" stroke-miterlimit="10" x1="116.837" y1="33.106" x2="112.077" y2="38.429"/>
<polygon points="111.838,6.635 111.838,33.209 104.493,6.635 "/>
<polygon points="35.775,33.209 35.775,6.399 43.121,33.209 "/>
</svg>
