<?xml version="1.0" encoding="utf-8"?>
<!-- Generator: Adobe Illustrator 15.1.0, SVG Export Plug-In  -->
<!DOCTYPE svg PUBLIC "-//W3C//DTD SVG 1.1//EN" "http://www.w3.org/Graphics/SVG/1.1/DTD/svg11.dtd" [
	<!ENTITY ns_flows "http://ns.adobe.com/Flows/1.0/">
]>
<svg version="1.1"
	 xmlns="http://www.w3.org/2000/svg" xmlns:xlink="http://www.w3.org/1999/xlink" xmlns:a="http://ns.adobe.com/AdobeSVGViewerExtensions/3.0/"
	 x="0px" y="0px" width="90px" height="42px" viewBox="-0.246 -1.171 90 42"
	 overflow="visible" enable-background="new -0.246 -1.171 90 42" xml:space="preserve">
<defs>
</defs>
<g>
	<rect x="15.003" y="13.53" fill="none" width="61.012" height="18.232"/>
	<path d="M19.762,24.818c1.768,0,2.686-1.003,2.873-1.92c0.221-1.445-0.901-2.176-2.227-2.482l-1.581-0.357
		c-2.431-0.544-2.754-1.955-2.754-2.941c0-1.904,1.802-3.195,3.672-3.195c2.074,0,3.671,1.309,3.671,3.349h-1.122
		c0-1.36-1.105-2.227-2.55-2.227c-1.292,0-2.55,0.833-2.55,2.074c0,0.612,0.221,1.479,1.87,1.853l1.598,0.357
		c1.87,0.425,3.417,1.53,3.077,3.773c-0.272,1.36-1.564,2.839-3.978,2.839c-2.312,0-3.791-1.818-3.791-3.536h1.122
		C17.094,23.577,18.13,24.818,19.762,24.818z"/>
	<path d="M27.48,25.77h-1.122V14.058h1.122V25.77z"/>
	<path d="M41.419,20.024c0,3.978-2.107,5.916-5.439,5.916c-3.314,0-5.882-2.686-5.882-6c0-3.332,2.567-6.017,5.882-6.017
		c1.428,0,2.72,0.51,3.739,1.36l-0.799,0.799c-0.799-0.646-1.818-1.037-2.94-1.037c-2.703,0-4.76,2.193-4.76,4.896
		s2.057,4.878,4.76,4.878c2.533,0,4.046-1.411,4.182-3.739h-3.417v-1.054H41.419z"/>
	<path d="M50.821,25.77l-5.967-9.808v9.808h-1.121V14.058h1.206l5.916,9.74v-9.74h1.122V25.77H50.821z"/>
	<path d="M61.02,25.77h-1.121V14.058h1.121V25.77z"/>
	<path d="M71.508,25.77l-5.967-9.808v9.808H64.42V14.058h1.206l5.916,9.74v-9.74h1.122V25.77H71.508z"/>
</g>
<line stroke="#000000" stroke-miterlimit="10" x1="1.083" y1="0.335" x2="5.844" y2="5.655"/>
<line stroke="#000000" stroke-miterlimit="10" x1="5.309" y1="0.335" x2="10.071" y2="5.654"/>
<line stroke="#000000" stroke-miterlimit="10" x1="9.313" y1="0.335" x2="14.075" y2="5.654"/>
<line stroke="#000000" stroke-miterlimit="10" x1="13.366" y1="0.335" x2="18.127" y2="5.654"/>
<line stroke="#000000" stroke-miterlimit="10" x1="17.281" y1="0.334" x2="22.042" y2="5.654"/>
<line stroke="#000000" stroke-miterlimit="10" x1="21.331" y1="0.334" x2="26.092" y2="5.654"/>
<line stroke="#000000" stroke-miterlimit="10" x1="25.336" y1="0.334" x2="30.096" y2="5.654"/>
<line stroke="#000000" stroke-miterlimit="10" x1="29.389" y1="0.334" x2="34.149" y2="5.654"/>
<line stroke="#000000" stroke-miterlimit="10" x1="33.456" y1="0.334" x2="38.216" y2="5.654"/>
<line stroke="#000000" stroke-miterlimit="10" x1="37.506" y1="0.334" x2="42.268" y2="5.654"/>
<line stroke="#000000" stroke-miterlimit="10" x1="41.51" y1="0.334" x2="46.272" y2="5.654"/>
<line stroke="#000000" stroke-miterlimit="10" x1="45.563" y1="0.334" x2="50.325" y2="5.654"/>
<line stroke="#000000" stroke-miterlimit="10" x1="49.62" y1="0.333" x2="54.381" y2="5.652"/>
<line stroke="#000000" stroke-miterlimit="10" x1="53.671" y1="0.333" x2="58.432" y2="5.652"/>
<line stroke="#000000" stroke-miterlimit="10" x1="57.675" y1="0.333" x2="62.437" y2="5.652"/>
<line stroke="#000000" stroke-miterlimit="10" x1="61.728" y1="0.333" x2="66.489" y2="5.652"/>
<line stroke="#000000" stroke-miterlimit="10" x1="65.795" y1="0.333" x2="70.557" y2="5.652"/>
<line stroke="#000000" stroke-miterlimit="10" x1="69.846" y1="0.333" x2="74.607" y2="5.652"/>
<line stroke="#000000" stroke-miterlimit="10" x1="73.851" y1="0.333" x2="78.612" y2="5.652"/>
<line stroke="#000000" stroke-miterlimit="10" x1="77.903" y1="0.333" x2="82.665" y2="5.652"/>
<line stroke="#000000" stroke-miterlimit="10" x1="0.374" y1="3.975" x2="5.135" y2="9.294"/>
<line stroke="#000000" stroke-miterlimit="10" x1="5.135" y1="13.775" x2="0.374" y2="8.456"/>
<line stroke="#000000" stroke-miterlimit="10" x1="0.374" y1="12.566" x2="5.135" y2="17.885"/>
<line stroke="#000000" stroke-miterlimit="10" x1="0.373" y1="16.531" x2="5.133" y2="21.85"/>
<line stroke="#000000" stroke-miterlimit="10" x1="0.578" y1="20.646" x2="5.338" y2="25.967"/>
<line stroke="#000000" stroke-miterlimit="10" x1="0.578" y1="24.383" x2="5.338" y2="29.704"/>
<line stroke="#000000" stroke-miterlimit="10" x1="0.577" y1="28.07" x2="5.337" y2="33.387"/>
<line stroke="#000000" stroke-miterlimit="10" x1="5.706" y1="34.016" x2="10.465" y2="39.333"/>
<line stroke="#000000" stroke-miterlimit="10" x1="9.931" y1="34.016" x2="14.691" y2="39.333"/>
<line stroke="#000000" stroke-miterlimit="10" x1="13.935" y1="34.016" x2="18.697" y2="39.333"/>
<line stroke="#000000" stroke-miterlimit="10" x1="17.988" y1="34.016" x2="22.749" y2="39.333"/>
<line stroke="#000000" stroke-miterlimit="10" x1="21.902" y1="34.016" x2="26.663" y2="39.333"/>
<line stroke="#000000" stroke-miterlimit="10" x1="25.953" y1="34.016" x2="30.714" y2="39.333"/>
<line stroke="#000000" stroke-miterlimit="10" x1="29.958" y1="34.016" x2="34.718" y2="39.333"/>
<line stroke="#000000" stroke-miterlimit="10" x1="34.009" y1="34.016" x2="38.771" y2="39.333"/>
<line stroke="#000000" stroke-miterlimit="10" x1="38.077" y1="34.016" x2="42.838" y2="39.333"/>
<line stroke="#000000" stroke-miterlimit="10" x1="42.128" y1="34.016" x2="46.888" y2="39.333"/>
<line stroke="#000000" stroke-miterlimit="10" x1="46.132" y1="34.016" x2="50.894" y2="39.333"/>
<line stroke="#000000" stroke-miterlimit="10" x1="50.185" y1="34.016" x2="54.946" y2="39.333"/>
<line stroke="#000000" stroke-miterlimit="10" x1="54.242" y1="34.011" x2="59.003" y2="39.332"/>
<line stroke="#000000" stroke-miterlimit="10" x1="58.293" y1="34.011" x2="63.054" y2="39.332"/>
<line stroke="#000000" stroke-miterlimit="10" x1="62.297" y1="34.011" x2="67.059" y2="39.332"/>
<line stroke="#000000" stroke-miterlimit="10" x1="66.35" y1="34.011" x2="71.111" y2="39.332"/>
<line stroke="#000000" stroke-miterlimit="10" x1="70.417" y1="34.011" x2="75.178" y2="39.332"/>
<line stroke="#000000" stroke-miterlimit="10" x1="74.467" y1="34.011" x2="79.229" y2="39.332"/>
<line stroke="#000000" stroke-miterlimit="10" x1="78.473" y1="34.011" x2="83.234" y2="39.332"/>
<line stroke="#000000" stroke-miterlimit="10" x1="82.525" y1="34.011" x2="87.287" y2="39.332"/>
<line stroke="#000000" stroke-miterlimit="10" x1="83.375" y1="6.399" x2="88.136" y2="11.719"/>
<line stroke="#000000" stroke-miterlimit="10" x1="82.666" y1="10.039" x2="87.427" y2="15.358"/>
<line stroke="#000000" stroke-miterlimit="10" x1="82.666" y1="14.519" x2="87.427" y2="19.839"/>
<line stroke="#000000" stroke-miterlimit="10" x1="82.666" y1="18.629" x2="87.427" y2="23.95"/>
<line stroke="#000000" stroke-miterlimit="10" x1="82.665" y1="22.594" x2="87.426" y2="27.915"/>
<line stroke="#000000" stroke-miterlimit="10" x1="82.87" y1="26.71" x2="87.631" y2="32.031"/>
<line stroke="#000000" stroke-miterlimit="10" x1="82.87" y1="30.449" x2="87.631" y2="35.766"/>
<line stroke="#000000" stroke-miterlimit="10" x1="82.525" y1="1.314" x2="87.287" y2="6.635"/>
<line stroke="#000000" stroke-miterlimit="10" x1="1.083" y1="33.106" x2="5.844" y2="38.429"/>
<polygon fill="#FDA63C" points="82.426,6.635 82.426,33.209 75.081,6.635 "/>
<polygon fill="#FDA63C" points="6.363,33.209 6.363,6.399 13.708,33.209 "/>
</svg>
