<?xml version="1.0" encoding="utf-8"?>
<!-- Generator: Adobe Illustrator 15.1.0, SVG Export Plug-In  -->
<!DOCTYPE svg PUBLIC "-//W3C//DTD SVG 1.1//EN" "http://www.w3.org/Graphics/SVG/1.1/DTD/svg11.dtd" [
	<!ENTITY ns_flows "http://ns.adobe.com/Flows/1.0/">
]>
<svg version="1.1"
	 xmlns="http://www.w3.org/2000/svg" xmlns:xlink="http://www.w3.org/1999/xlink" xmlns:a="http://ns.adobe.com/AdobeSVGViewerExtensions/3.0/"
	 x="0px" y="0px" width="268px" height="268px" viewBox="6 -1 268 268" overflow="visible" enable-background="new 6 -1 268 268"
	 xml:space="preserve">
<defs>
</defs>
<path fill="#FFFFFF" d="M140,0c-29.05,0-56.04,8.85-78.399,24l14.06,20.37C94.221,31.52,116.74,24,141,24
	c24,0,46.25,7.34,64.67,19.89l13.431-19.439C196.61,9.03,169.37,0,140,0z"/>
<path fill="none" d="M280,140c0,77.331-62.62,140-140,140C62.681,280,0,217.331,0,140C0,91.74,24.431,49.17,61.601,24l14.06,20.37
	C94.221,31.52,116.74,24,141,24c24,0,46.25,7.34,64.67,19.89l13.431-19.439C255.891,49.69,280,92.03,280,140z"/>
<line fill="none" x1="141" y1="124" x2="140.5" y2="123.28"/>
<line fill="none" x1="219.41" y1="24" x2="219.101" y2="24.45"/>
<line fill="none" x1="140.5" y1="123.28" x2="140" y2="124"/>
<g>
	<path fill="none" d="M75.66,40.37c0,0,61.68-45.258,130.01-0.48"/>
	<path d="M88.382,25.205l-1.029-1.188l0.211,1.569l0.942,7.298l-1.32,0.615l-6.825-7.801l1.153-0.537l5.117,5.964l0.697,0.882
		l-0.146-1.025l-0.959-8.015l1.122-0.522l5.432,5.848l0.732,0.828l-0.187-0.984l-1.318-7.862l1.115-0.52l1.583,10.243l-1.313,0.612
		L88.382,25.205z"/>
	<path d="M100.356,27.781l-1.11,0.386l-3.27-9.401l1.111-0.386l1.423,4.094l5.172-1.799l-1.424-4.093l1.111-0.386l3.27,9.4
		l-1.111,0.386l-1.513-4.352l-5.172,1.799L100.356,27.781z"/>
	<path d="M115.773,23.119l-5.933,1.549l-2.515-9.63l5.735-1.497l0.255,0.979l-4.597,1.2l0.843,3.228l4.345-1.135l0.256,0.979
		l-4.346,1.135l0.905,3.466l4.795-1.252L115.773,23.119z"/>
	<path d="M118.778,17.943l0.79,4.386l-1.157,0.208l-1.765-9.795l2.395-0.432c0.265-0.047,0.556-0.095,0.874-0.144
		c0.317-0.048,0.64-0.076,0.967-0.084c0.328-0.008,0.648,0.014,0.964,0.066c0.315,0.052,0.604,0.151,0.87,0.298
		c0.265,0.146,0.492,0.354,0.682,0.623c0.189,0.269,0.322,0.614,0.398,1.036c0.056,0.31,0.058,0.603,0.006,0.88
		c-0.052,0.278-0.151,0.537-0.298,0.776c-0.146,0.239-0.336,0.454-0.568,0.644c-0.232,0.19-0.498,0.354-0.797,0.49l0.007-0.001
		c0.29,0.041,0.539,0.132,0.748,0.275s0.41,0.34,0.603,0.59s0.394,0.552,0.601,0.906c0.207,0.354,0.457,0.762,0.748,1.224
		l0.845,1.335l-1.265,0.228l-1.537-2.633c-0.167-0.285-0.324-0.519-0.47-0.7c-0.146-0.182-0.306-0.319-0.477-0.411
		c-0.172-0.091-0.364-0.144-0.577-0.156s-0.47,0.008-0.77,0.062L118.778,17.943z M118.599,16.947l1.79-0.323
		c0.3-0.054,0.596-0.135,0.887-0.243s0.544-0.249,0.761-0.421c0.216-0.173,0.378-0.385,0.486-0.635
		c0.107-0.25,0.13-0.548,0.068-0.893c-0.061-0.335-0.172-0.601-0.334-0.796c-0.163-0.195-0.365-0.335-0.607-0.421
		c-0.242-0.085-0.516-0.126-0.821-0.122c-0.305,0.004-0.632,0.038-0.982,0.101l-1.864,0.335L118.599,16.947z"/>
	<path d="M134.314,20.327l-6.103,0.6l-0.974-9.905l5.898-0.58l0.099,1.007l-4.728,0.465l0.326,3.32l4.47-0.439l0.099,1.007
		l-4.47,0.439l0.351,3.564l4.932-0.485L134.314,20.327z"/>
	<path d="M143.748,20.125l0.188-8.939l-3.206-0.068l0.021-1.011l7.607,0.16l-0.021,1.011l-3.227-0.068l-0.188,8.939L143.748,20.125z
		"/>
	<path d="M159.236,16.343c-0.081,0.748-0.266,1.421-0.553,2.02s-0.664,1.102-1.13,1.507c-0.466,0.406-1.013,0.701-1.643,0.884
		c-0.63,0.184-1.325,0.234-2.086,0.152c-0.757-0.082-1.422-0.275-1.996-0.581c-0.575-0.305-1.048-0.703-1.418-1.192
		c-0.371-0.489-0.634-1.061-0.787-1.715c-0.154-0.654-0.188-1.37-0.104-2.149c0.08-0.743,0.266-1.416,0.555-2.017
		c0.29-0.601,0.671-1.106,1.142-1.516s1.023-0.709,1.658-0.9c0.635-0.19,1.34-0.243,2.114-0.159c0.738,0.08,1.392,0.275,1.958,0.584
		c0.567,0.309,1.035,0.71,1.403,1.204s0.629,1.068,0.782,1.725S159.32,15.563,159.236,16.343z M150.768,15.431
		c-0.062,0.571-0.044,1.113,0.054,1.625c0.099,0.513,0.278,0.969,0.54,1.369c0.261,0.399,0.604,0.729,1.03,0.988
		s0.936,0.421,1.529,0.485c0.598,0.065,1.134,0.017,1.607-0.145c0.474-0.162,0.88-0.411,1.219-0.748s0.61-0.75,0.815-1.239
		c0.204-0.489,0.338-1.028,0.402-1.617c0.062-0.576,0.047-1.121-0.047-1.635c-0.093-0.514-0.27-0.971-0.528-1.371
		s-0.601-0.728-1.024-0.984s-0.935-0.417-1.532-0.482c-0.594-0.064-1.127-0.008-1.601,0.17c-0.473,0.178-0.883,0.441-1.23,0.788
		c-0.347,0.348-0.624,0.763-0.833,1.247C150.961,14.367,150.827,14.883,150.768,15.431z"/>
	<path d="M167.076,22.997l-1.14-0.287l2.431-9.651l2.261,0.569c0.376,0.094,0.739,0.204,1.092,0.328
		c0.352,0.124,0.679,0.267,0.98,0.43s0.571,0.349,0.808,0.556c0.237,0.208,0.427,0.443,0.569,0.708
		c0.143,0.264,0.232,0.558,0.268,0.881c0.036,0.324,0.004,0.685-0.096,1.083c-0.127,0.504-0.346,0.91-0.656,1.217
		c-0.31,0.307-0.679,0.53-1.105,0.669c-0.428,0.139-0.896,0.203-1.406,0.192c-0.509-0.011-1.026-0.083-1.553-0.215l-1.472-0.371
		L167.076,22.997z M169.261,14.327l-0.957,3.798l1.73,0.436c0.362,0.091,0.707,0.139,1.035,0.144
		c0.327,0.005,0.622-0.041,0.884-0.137c0.262-0.097,0.485-0.247,0.67-0.449c0.186-0.203,0.319-0.468,0.401-0.796
		c0.098-0.385,0.107-0.72,0.031-1.005s-0.221-0.531-0.435-0.738c-0.213-0.207-0.486-0.381-0.819-0.524s-0.709-0.267-1.129-0.373
		L169.261,14.327z"/>
	<path d="M180.476,27l-5.645-1.896l3.171-9.435l1.114,0.375l-2.848,8.476l4.516,1.518L180.476,27z"/>
	<path d="M182.889,27.927l-1.167-0.503l7.729-7.508l1.161,0.5l-0.138,10.777l-1.199-0.517l0.05-2.933l-4.382-1.887L182.889,27.927z
		 M185.688,25.075l3.667,1.579l0.166-4.431c0.001-0.094,0.006-0.202,0.014-0.325c0.009-0.123,0.017-0.24,0.024-0.351
		c0.007-0.131,0.017-0.263,0.029-0.396c-0.1,0.116-0.196,0.226-0.29,0.329c-0.079,0.09-0.16,0.178-0.244,0.264
		s-0.148,0.153-0.195,0.203L185.688,25.075z"/>
	<path d="M193.39,32.738l1.828-3.534l-0.492-6.98l1.16,0.6l0.327,5.78l4.931-3.06l1.16,0.6l-6.032,3.583l-1.837,3.552L193.39,32.738
		z"/>
</g>
</svg>
