<?xml version="1.0" encoding="utf-8"?>
<!-- Generator: Adobe Illustrator 15.1.0, SVG Export Plug-In  -->
<!DOCTYPE svg PUBLIC "-//W3C//DTD SVG 1.1//EN" "http://www.w3.org/Graphics/SVG/1.1/DTD/svg11.dtd" [
	<!ENTITY ns_flows "http://ns.adobe.com/Flows/1.0/">
]>
<svg version="1.1"
	 xmlns="http://www.w3.org/2000/svg" xmlns:xlink="http://www.w3.org/1999/xlink" xmlns:a="http://ns.adobe.com/AdobeSVGViewerExtensions/3.0/"
	 x="0px" y="0px" width="48px" height="15px" viewBox="-3.583 0.792 48 15"
	 overflow="visible" enable-background="new -3.583 0.792 48 15" xml:space="preserve">
<defs>
</defs>
<g>
	<rect y="1.771" fill="none" width="54.084" height="11.188"/>
	<path fill="#FDA63C" d="M1.36,11.977H0.089l4.129-9.953h1.265l4.136,9.953H8.312L7.198,9.263H2.427L1.36,11.977z M2.803,8.251
		h3.992l-1.6-4.136C5.159,4.029,5.12,3.927,5.079,3.811S5,3.584,4.963,3.479c-0.045-0.123-0.089-0.249-0.13-0.376
		C4.788,3.25,4.742,3.388,4.696,3.521C4.66,3.634,4.62,3.747,4.577,3.859S4.5,4.058,4.478,4.122L2.803,8.251z"/>
	<path fill="#FDA63C" d="M11.915,11.977h-1.148c0.004-0.31,0.011-0.59,0.021-0.841c0.004-0.109,0.008-0.218,0.01-0.325
		c0.002-0.106,0.004-0.206,0.007-0.297s0.004-0.171,0.007-0.239s0.003-0.116,0.003-0.144V1.777h1.128v4.177
		c0.287-0.396,0.648-0.689,1.084-0.878c0.435-0.189,0.908-0.284,1.418-0.284c0.543,0,1.008,0.098,1.395,0.294
		s0.704,0.458,0.95,0.786s0.427,0.71,0.544,1.145c0.115,0.435,0.174,0.892,0.174,1.371c0,0.511-0.067,0.992-0.201,1.446
		c-0.135,0.453-0.336,0.851-0.602,1.192c-0.268,0.342-0.602,0.612-1.002,0.81c-0.4,0.199-0.865,0.298-1.395,0.298
		c-0.496,0-0.943-0.093-1.34-0.276c-0.396-0.186-0.738-0.457-1.025-0.817L11.915,11.977z M16.365,8.217
		c0-0.347-0.05-0.672-0.15-0.978S15.97,6.668,15.78,6.443c-0.188-0.226-0.418-0.404-0.687-0.537s-0.571-0.198-0.909-0.198
		c-0.369,0-0.693,0.074-0.975,0.222c-0.279,0.148-0.515,0.349-0.704,0.602s-0.331,0.546-0.424,0.878s-0.14,0.682-0.14,1.046
		c0,0.396,0.038,0.754,0.113,1.073s0.201,0.592,0.376,0.816c0.175,0.227,0.404,0.4,0.687,0.523c0.283,0.123,0.631,0.185,1.046,0.185
		c0.41,0,0.757-0.081,1.039-0.243c0.282-0.161,0.509-0.374,0.681-0.639c0.17-0.265,0.293-0.566,0.369-0.906
		C16.327,8.927,16.365,8.577,16.365,8.217z"/>
	<path fill="#FDA63C" d="M22.449,4.792c0.588,0,1.104,0.096,1.548,0.287c0.445,0.191,0.814,0.454,1.111,0.786s0.52,0.722,0.67,1.169
		s0.226,0.926,0.226,1.436c0,0.492-0.079,0.96-0.235,1.405c-0.158,0.443-0.388,0.834-0.691,1.168
		c-0.303,0.336-0.678,0.601-1.124,0.797s-0.957,0.294-1.531,0.294c-0.583,0-1.099-0.096-1.545-0.287s-0.821-0.451-1.124-0.779
		c-0.304-0.328-0.533-0.714-0.691-1.159c-0.156-0.443-0.235-0.919-0.235-1.425s0.079-0.983,0.239-1.432s0.393-0.841,0.701-1.176
		c0.307-0.335,0.686-0.599,1.135-0.793C21.35,4.889,21.866,4.792,22.449,4.792z M24.814,8.483c0-0.374-0.048-0.729-0.144-1.066
		s-0.242-0.632-0.438-0.885s-0.444-0.454-0.746-0.602s-0.657-0.222-1.067-0.222c-0.397,0-0.746,0.076-1.048,0.229
		s-0.554,0.358-0.757,0.615s-0.355,0.555-0.459,0.892c-0.102,0.338-0.153,0.688-0.153,1.053s0.052,0.711,0.153,1.039
		c0.104,0.328,0.256,0.618,0.459,0.872c0.203,0.252,0.458,0.453,0.764,0.602c0.306,0.147,0.662,0.222,1.068,0.222
		c0.401,0,0.75-0.075,1.047-0.226s0.543-0.352,0.739-0.605c0.196-0.252,0.343-0.544,0.438-0.875
		C24.767,9.195,24.814,8.848,24.814,8.483z"/>
	<path fill="#FDA63C" d="M32.676,4.963h1.128v5.332c0,0.301,0.004,0.584,0.01,0.852c0.008,0.266,0.021,0.543,0.045,0.83h-1.162
		l-0.021-0.923c-0.528,0.72-1.299,1.08-2.311,1.08c-0.347,0-0.651-0.04-0.916-0.12c-0.265-0.079-0.493-0.188-0.687-0.324
		c-0.194-0.137-0.355-0.299-0.486-0.485c-0.129-0.187-0.232-0.388-0.311-0.602s-0.133-0.437-0.168-0.667
		c-0.033-0.229-0.051-0.459-0.051-0.687V4.963h1.128v4.286c-0.005,0.651,0.134,1.146,0.417,1.479
		c0.283,0.336,0.727,0.503,1.333,0.503c0.328,0,0.618-0.06,0.872-0.178c0.252-0.118,0.467-0.28,0.643-0.485
		c0.175-0.205,0.309-0.443,0.399-0.715c0.091-0.271,0.137-0.557,0.137-0.857V4.963z"/>
	<path fill="#FDA63C" d="M36.654,5.694h-1.388V4.963h1.388l0.034-1.859l1.094-0.321v2.181h1.75v0.731h-1.75v4.19
		c0,0.155,0.004,0.313,0.014,0.475c0.01,0.162,0.04,0.311,0.092,0.445c0.053,0.134,0.134,0.243,0.243,0.328
		c0.109,0.084,0.265,0.126,0.465,0.126c0.146,0,0.298-0.02,0.458-0.058c0.16-0.039,0.335-0.093,0.526-0.161l-0.007,0.841
		c-0.16,0.091-0.332,0.156-0.52,0.195c-0.188,0.038-0.398,0.058-0.636,0.058c-0.383,0-0.689-0.065-0.919-0.194
		c-0.23-0.131-0.408-0.305-0.533-0.523c-0.126-0.219-0.209-0.474-0.25-0.766s-0.062-0.6-0.062-0.923V5.694z"/>
</g>
</svg>
