<?xml version="1.0" encoding="utf-8"?>
<!-- Generator: Adobe Illustrator 15.1.0, SVG Export Plug-In  -->
<!DOCTYPE svg PUBLIC "-//W3C//DTD SVG 1.1//EN" "http://www.w3.org/Graphics/SVG/1.1/DTD/svg11.dtd" [
	<!ENTITY ns_flows "http://ns.adobe.com/Flows/1.0/">
]>
<svg version="1.1"
	 xmlns="http://www.w3.org/2000/svg" xmlns:xlink="http://www.w3.org/1999/xlink" xmlns:a="http://ns.adobe.com/AdobeSVGViewerExtensions/3.0/"
	 x="0px" y="0px" width="60px" height="15px" viewBox="-3.583 0.792 60 15"
	 overflow="visible" enable-background="new -3.583 0.792 60 15" xml:space="preserve">
<defs>
</defs>
<g>
	<rect y="1.771" fill="none" width="54.084" height="11.188"/>
	<path fill="#FDA63C" d="M8.135,3.637c-0.697-0.524-1.511-0.786-2.44-0.786c-0.419,0-0.802,0.056-1.148,0.167
		C4.2,3.13,3.889,3.285,3.613,3.483C3.337,3.682,3.098,3.916,2.895,4.185S2.523,4.746,2.389,5.061
		C2.255,5.375,2.154,5.707,2.088,6.056c-0.066,0.349-0.099,0.699-0.099,1.05c0,0.539,0.071,1.05,0.212,1.536
		c0.141,0.486,0.358,0.912,0.649,1.28c0.292,0.367,0.661,0.658,1.107,0.875s0.975,0.325,1.586,0.325
		c0.561,0,1.088-0.081,1.583-0.243c0.495-0.161,0.929-0.406,1.302-0.734l0.396,0.964C8.401,11.45,7.9,11.707,7.321,11.877
		c-0.579,0.172-1.23,0.257-1.955,0.257c-0.752,0-1.415-0.132-1.989-0.396s-1.057-0.626-1.449-1.083
		c-0.392-0.459-0.688-0.992-0.889-1.6C0.838,8.445,0.738,7.796,0.738,7.103c0-0.469,0.049-0.925,0.147-1.367
		s0.242-0.858,0.431-1.248S1.739,3.74,2.017,3.415S2.612,2.81,2.97,2.577s0.753-0.414,1.186-0.543s0.902-0.195,1.408-0.195
		c0.62,0,1.173,0.083,1.661,0.248c0.488,0.165,0.939,0.431,1.354,0.798L8.135,3.637z"/>
	<path fill="#FDA63C" d="M13.802,4.792c0.588,0,1.104,0.096,1.549,0.287c0.443,0.191,0.814,0.454,1.11,0.786s0.52,0.722,0.67,1.169
		s0.226,0.926,0.226,1.436c0,0.492-0.078,0.96-0.236,1.405c-0.156,0.443-0.387,0.834-0.689,1.168
		c-0.304,0.336-0.678,0.601-1.125,0.797s-0.957,0.294-1.531,0.294c-0.584,0-1.098-0.096-1.545-0.287s-0.821-0.451-1.125-0.779
		s-0.533-0.714-0.69-1.159c-0.157-0.443-0.236-0.919-0.236-1.425s0.08-0.983,0.239-1.432s0.393-0.841,0.701-1.176
		s0.686-0.599,1.135-0.793S13.218,4.792,13.802,4.792z M16.167,8.483c0-0.374-0.048-0.729-0.144-1.066
		c-0.097-0.337-0.242-0.632-0.438-0.885S15.14,6.078,14.839,5.93s-0.657-0.222-1.068-0.222c-0.396,0-0.746,0.076-1.047,0.229
		c-0.301,0.153-0.553,0.358-0.756,0.615s-0.356,0.555-0.459,0.892c-0.103,0.338-0.154,0.688-0.154,1.053s0.051,0.711,0.154,1.039
		c0.103,0.328,0.256,0.618,0.459,0.872c0.203,0.252,0.458,0.453,0.763,0.602c0.306,0.147,0.661,0.222,1.067,0.222
		c0.402,0,0.752-0.075,1.048-0.226c0.297-0.15,0.543-0.352,0.739-0.605c0.196-0.252,0.342-0.544,0.438-0.875
		C16.119,9.195,16.167,8.848,16.167,8.483z"/>
	<path fill="#FDA63C" d="M20.303,11.977h-1.128V6.651c0-0.209-0.002-0.416-0.007-0.619s-0.009-0.384-0.014-0.543
		c-0.009-0.182-0.017-0.358-0.021-0.526h1.142l0.027,0.971c0.273-0.387,0.603-0.674,0.987-0.861c0.386-0.187,0.84-0.28,1.364-0.28
		c0.511,0,0.933,0.084,1.265,0.253s0.596,0.404,0.789,0.708c0.194,0.303,0.328,0.664,0.404,1.083
		c0.074,0.419,0.112,0.879,0.112,1.381v3.76h-1.128v-3.63c0-0.396-0.018-0.758-0.051-1.083c-0.035-0.326-0.107-0.604-0.219-0.834
		c-0.112-0.23-0.277-0.408-0.496-0.533s-0.513-0.188-0.882-0.188c-0.342,0-0.646,0.066-0.909,0.198s-0.488,0.292-0.67,0.479
		s-0.322,0.384-0.42,0.591c-0.099,0.208-0.147,0.389-0.147,0.543V11.977z"/>
	<path fill="#FDA63C" d="M28.007,5.694h-1.388V4.963h1.388l0.034-1.859l1.094-0.321v2.181h1.75v0.731h-1.75v4.19
		c0,0.155,0.005,0.313,0.014,0.475c0.009,0.162,0.04,0.311,0.093,0.445c0.052,0.134,0.133,0.243,0.242,0.328
		c0.109,0.084,0.264,0.126,0.465,0.126c0.146,0,0.299-0.02,0.458-0.058c0.159-0.039,0.335-0.093,0.526-0.161l-0.007,0.841
		c-0.159,0.091-0.333,0.156-0.52,0.195c-0.187,0.038-0.399,0.058-0.636,0.058c-0.383,0-0.689-0.065-0.92-0.194
		c-0.229-0.131-0.407-0.305-0.533-0.523c-0.125-0.219-0.208-0.474-0.249-0.766s-0.062-0.6-0.062-0.923V5.694z"/>
	<path fill="#FDA63C" d="M35.308,4.792c0.287,0,0.549,0.026,0.786,0.079s0.456,0.126,0.656,0.222s0.386,0.214,0.554,0.355
		s0.326,0.301,0.472,0.479l0.041-0.964h1.114l-0.027,1.729v5.284h-1.128l0.014-0.984c-0.109,0.146-0.247,0.288-0.413,0.428
		c-0.167,0.139-0.355,0.261-0.564,0.365s-0.441,0.189-0.693,0.253c-0.254,0.063-0.52,0.096-0.797,0.096
		c-0.393,0-0.748-0.052-1.066-0.153c-0.318-0.104-0.604-0.244-0.854-0.424c-0.251-0.181-0.468-0.392-0.653-0.633
		c-0.184-0.241-0.336-0.501-0.454-0.779s-0.208-0.566-0.267-0.865c-0.059-0.298-0.089-0.593-0.089-0.885
		c0-0.451,0.069-0.893,0.208-1.326c0.14-0.433,0.35-0.818,0.629-1.155c0.281-0.337,0.632-0.608,1.053-0.813
		C34.249,4.895,34.743,4.792,35.308,4.792z M35.438,11.231c0.319,0,0.618-0.065,0.899-0.194c0.279-0.131,0.525-0.322,0.738-0.574
		c0.211-0.254,0.38-0.568,0.506-0.943c0.125-0.377,0.189-0.811,0.194-1.303c0-0.369-0.056-0.707-0.167-1.012
		c-0.112-0.305-0.271-0.57-0.476-0.793s-0.454-0.396-0.749-0.52c-0.293-0.123-0.623-0.185-0.987-0.185
		c-0.278,0-0.528,0.038-0.752,0.113S34.224,6,34.05,6.132s-0.324,0.287-0.451,0.465s-0.232,0.368-0.314,0.571
		S33.142,7.581,33.103,7.8c-0.038,0.219-0.058,0.436-0.058,0.649c0,0.21,0.015,0.425,0.044,0.646
		c0.03,0.221,0.079,0.434,0.147,0.639s0.161,0.398,0.28,0.581s0.266,0.341,0.441,0.476c0.175,0.134,0.385,0.241,0.629,0.32
		C34.83,11.191,35.114,11.231,35.438,11.231z"/>
	<path fill="#FDA63C" d="M45.849,6.501c-0.219-0.273-0.485-0.474-0.8-0.602s-0.649-0.191-1.005-0.191
		c-0.379,0-0.715,0.073-1.012,0.219s-0.548,0.345-0.756,0.598c-0.207,0.253-0.365,0.549-0.475,0.889s-0.164,0.703-0.164,1.09
		c0,0.383,0.048,0.74,0.144,1.073s0.241,0.622,0.438,0.868s0.444,0.438,0.745,0.578c0.301,0.139,0.656,0.208,1.066,0.208
		c0.77,0,1.461-0.265,2.071-0.793l0.314,0.943c-0.333,0.265-0.704,0.456-1.114,0.574s-0.863,0.178-1.36,0.178
		c-0.579,0-1.086-0.095-1.521-0.284c-0.436-0.188-0.799-0.446-1.089-0.771c-0.29-0.326-0.508-0.708-0.653-1.146
		c-0.145-0.438-0.217-0.902-0.217-1.395c0-0.511,0.077-0.994,0.23-1.449c0.154-0.456,0.379-0.854,0.674-1.193
		s0.658-0.608,1.092-0.807s0.928-0.297,1.483-0.297c0.552,0,1.034,0.086,1.449,0.26s0.738,0.413,0.971,0.718L45.849,6.501z"/>
	<path fill="#FDA63C" d="M48.645,5.694h-1.388V4.963h1.388l0.034-1.859l1.094-0.321v2.181h1.75v0.731h-1.75v4.19
		c0,0.155,0.004,0.313,0.014,0.475c0.01,0.162,0.04,0.311,0.092,0.445c0.053,0.134,0.134,0.243,0.243,0.328
		c0.109,0.084,0.265,0.126,0.465,0.126c0.146,0,0.298-0.02,0.458-0.058c0.16-0.039,0.335-0.093,0.526-0.161l-0.007,0.841
		c-0.16,0.091-0.332,0.156-0.52,0.195c-0.188,0.038-0.398,0.058-0.636,0.058c-0.383,0-0.689-0.065-0.919-0.194
		c-0.23-0.131-0.408-0.305-0.533-0.523c-0.126-0.219-0.209-0.474-0.25-0.766s-0.062-0.6-0.062-0.923V5.694z"/>
</g>
</svg>
