<?xml version="1.0" encoding="utf-8"?>
<!-- Generator: Adobe Illustrator 15.1.0, SVG Export Plug-In  -->
<!DOCTYPE svg PUBLIC "-//W3C//DTD SVG 1.1//EN" "http://www.w3.org/Graphics/SVG/1.1/DTD/svg11.dtd" [
	<!ENTITY ns_flows "http://ns.adobe.com/Flows/1.0/">
]>
<svg version="1.1"
	 xmlns="http://www.w3.org/2000/svg" xmlns:xlink="http://www.w3.org/1999/xlink" xmlns:a="http://ns.adobe.com/AdobeSVGViewerExtensions/3.0/"
	 x="0px" y="0px" width="126px" height="15px" viewBox="-3.583 0.792 126 15"
	 overflow="visible" enable-background="new -3.583 0.792 126 15" xml:space="preserve">
<defs>
</defs>
<g>
	<rect y="1.771" fill="none" width="120.251" height="11.188"/>
	<path fill="#FDA63C" d="M8.135,3.637c-0.697-0.524-1.511-0.786-2.44-0.786c-0.419,0-0.802,0.056-1.148,0.167
		C4.2,3.13,3.889,3.285,3.613,3.483C3.337,3.682,3.098,3.916,2.895,4.185S2.523,4.746,2.389,5.061
		C2.255,5.375,2.154,5.707,2.088,6.056c-0.066,0.349-0.099,0.699-0.099,1.05c0,0.539,0.071,1.05,0.212,1.536
		c0.141,0.486,0.358,0.912,0.649,1.28c0.292,0.367,0.661,0.658,1.107,0.875s0.975,0.325,1.586,0.325
		c0.561,0,1.088-0.081,1.583-0.243c0.495-0.161,0.929-0.406,1.302-0.734l0.396,0.964C8.401,11.45,7.9,11.707,7.321,11.877
		c-0.579,0.172-1.23,0.257-1.955,0.257c-0.752,0-1.415-0.132-1.989-0.396s-1.057-0.626-1.449-1.083
		c-0.392-0.459-0.688-0.992-0.889-1.6C0.838,8.445,0.738,7.796,0.738,7.103c0-0.469,0.049-0.925,0.147-1.367
		s0.242-0.858,0.431-1.248S1.739,3.74,2.017,3.415S2.612,2.81,2.97,2.577s0.753-0.414,1.186-0.543s0.902-0.195,1.408-0.195
		c0.62,0,1.173,0.083,1.661,0.248c0.488,0.165,0.939,0.431,1.354,0.798L8.135,3.637z"/>
	<path fill="#FDA63C" d="M13.802,4.792c0.588,0,1.104,0.096,1.549,0.287c0.443,0.191,0.814,0.454,1.11,0.786s0.52,0.722,0.67,1.169
		s0.226,0.926,0.226,1.436c0,0.492-0.078,0.96-0.236,1.405c-0.156,0.443-0.387,0.834-0.689,1.168
		c-0.304,0.336-0.678,0.601-1.125,0.797s-0.957,0.294-1.531,0.294c-0.584,0-1.098-0.096-1.545-0.287s-0.821-0.451-1.125-0.779
		s-0.533-0.714-0.69-1.159c-0.157-0.443-0.236-0.919-0.236-1.425s0.08-0.983,0.239-1.432s0.393-0.841,0.701-1.176
		s0.686-0.599,1.135-0.793S13.218,4.792,13.802,4.792z M16.167,8.483c0-0.374-0.048-0.729-0.144-1.066
		c-0.097-0.337-0.242-0.632-0.438-0.885S15.14,6.078,14.839,5.93s-0.657-0.222-1.068-0.222c-0.396,0-0.746,0.076-1.047,0.229
		c-0.301,0.153-0.553,0.358-0.756,0.615s-0.356,0.555-0.459,0.892c-0.103,0.338-0.154,0.688-0.154,1.053s0.051,0.711,0.154,1.039
		c0.103,0.328,0.256,0.618,0.459,0.872c0.203,0.252,0.458,0.453,0.763,0.602c0.306,0.147,0.661,0.222,1.067,0.222
		c0.402,0,0.752-0.075,1.048-0.226c0.297-0.15,0.543-0.352,0.739-0.605c0.196-0.252,0.342-0.544,0.438-0.875
		C16.119,9.195,16.167,8.848,16.167,8.483z"/>
	<path fill="#FDA63C" d="M22.265,4.792c0.588,0,1.104,0.096,1.549,0.287c0.443,0.191,0.814,0.454,1.11,0.786s0.52,0.722,0.67,1.169
		s0.226,0.926,0.226,1.436c0,0.492-0.078,0.96-0.236,1.405c-0.156,0.443-0.387,0.834-0.689,1.168
		c-0.304,0.336-0.678,0.601-1.125,0.797s-0.957,0.294-1.531,0.294c-0.584,0-1.098-0.096-1.545-0.287s-0.821-0.451-1.125-0.779
		c-0.303-0.328-0.533-0.714-0.689-1.159c-0.158-0.443-0.236-0.919-0.236-1.425s0.08-0.983,0.239-1.432s0.394-0.841,0.7-1.176
		c0.309-0.335,0.687-0.599,1.135-0.793C21.165,4.889,21.681,4.792,22.265,4.792z M24.63,8.483c0-0.374-0.048-0.729-0.144-1.066
		c-0.097-0.337-0.242-0.632-0.438-0.885s-0.445-0.454-0.746-0.602s-0.657-0.222-1.068-0.222c-0.396,0-0.746,0.076-1.047,0.229
		s-0.553,0.358-0.756,0.615s-0.356,0.555-0.459,0.892c-0.104,0.338-0.154,0.688-0.154,1.053s0.051,0.711,0.154,1.039
		c0.103,0.328,0.256,0.618,0.459,0.872c0.203,0.252,0.457,0.453,0.763,0.602c0.306,0.147,0.661,0.222,1.067,0.222
		c0.402,0,0.752-0.075,1.048-0.226c0.297-0.15,0.543-0.352,0.739-0.605c0.196-0.252,0.342-0.544,0.438-0.875
		C24.582,9.195,24.63,8.848,24.63,8.483z"/>
	<path fill="#FDA63C" d="M28.834,1.777v6.187l3.186-3.001h1.538l-3.623,3.309c0.643,0.615,1.289,1.232,1.941,1.853
		s1.299,1.237,1.941,1.853H32.32l-3.486-3.425v3.425h-1.128V1.777H28.834z"/>
	<path fill="#FDA63C" d="M35.027,4.963h1.128v7.014h-1.128V4.963z M36.128,1.982v1.06h-1.046v-1.06H36.128z"/>
	<path fill="#FDA63C" d="M44.427,11.19c-0.379,0.328-0.797,0.567-1.258,0.718s-0.982,0.226-1.565,0.226
		c-0.552,0-1.044-0.09-1.477-0.271c-0.433-0.18-0.799-0.43-1.097-0.752c-0.299-0.32-0.527-0.705-0.684-1.151
		c-0.158-0.446-0.236-0.937-0.236-1.47c0-0.506,0.078-0.982,0.232-1.429s0.381-0.838,0.677-1.176s0.657-0.604,1.083-0.8
		c0.427-0.196,0.913-0.294,1.46-0.294c0.538,0,1.005,0.088,1.401,0.263s0.723,0.417,0.978,0.725s0.445,0.673,0.571,1.097
		C44.638,7.301,44.7,7.761,44.7,8.258c0,0.05-0.001,0.108-0.004,0.174c-0.002,0.066-0.006,0.127-0.01,0.182h-5.373l0.021,0.308
		c0.027,0.342,0.097,0.654,0.208,0.937s0.266,0.526,0.461,0.731s0.434,0.363,0.713,0.476c0.28,0.111,0.6,0.167,0.959,0.167
		c0.482,0,0.924-0.084,1.324-0.253s0.76-0.41,1.079-0.725L44.427,11.19z M43.518,7.813l-0.007-0.096
		c-0.023-0.296-0.08-0.567-0.174-0.813s-0.223-0.458-0.386-0.636c-0.164-0.178-0.362-0.315-0.597-0.414s-0.5-0.147-0.795-0.147
		c-0.319,0-0.605,0.056-0.861,0.167c-0.254,0.112-0.474,0.263-0.658,0.455C39.856,6.521,39.707,6.745,39.593,7
		c-0.113,0.255-0.19,0.526-0.231,0.813H43.518z"/>
	<path fill="#FDA63C" d="M50.747,6.187c-0.245-0.168-0.541-0.291-0.888-0.366c-0.346-0.075-0.706-0.113-1.079-0.113
		c-0.209,0-0.403,0.023-0.58,0.068c-0.178,0.045-0.332,0.11-0.462,0.195s-0.231,0.187-0.308,0.308
		c-0.074,0.121-0.112,0.256-0.112,0.407c0,0.16,0.038,0.296,0.116,0.41c0.077,0.114,0.182,0.213,0.313,0.297s0.286,0.16,0.464,0.226
		s0.367,0.129,0.566,0.188c0.183,0.055,0.377,0.112,0.584,0.171c0.207,0.06,0.413,0.129,0.617,0.208
		c0.205,0.08,0.4,0.174,0.588,0.281c0.186,0.106,0.352,0.233,0.494,0.379c0.144,0.146,0.258,0.316,0.342,0.513
		s0.126,0.422,0.126,0.677c0,0.355-0.082,0.664-0.246,0.926c-0.164,0.263-0.38,0.48-0.649,0.653s-0.576,0.303-0.923,0.39
		s-0.702,0.13-1.066,0.13c-0.241,0-0.481-0.014-0.718-0.041s-0.464-0.073-0.68-0.137c-0.217-0.063-0.418-0.146-0.602-0.246
		c-0.186-0.101-0.344-0.226-0.476-0.376l0.303-0.923c0.123,0.146,0.267,0.271,0.431,0.376s0.342,0.19,0.531,0.256
		c0.189,0.066,0.385,0.114,0.585,0.145c0.2,0.029,0.397,0.044,0.589,0.044c0.256,0,0.49-0.024,0.705-0.071
		c0.214-0.049,0.4-0.119,0.558-0.213c0.157-0.093,0.28-0.209,0.37-0.348c0.088-0.14,0.133-0.3,0.133-0.482
		c0-0.21-0.051-0.379-0.15-0.51c-0.101-0.129-0.24-0.241-0.418-0.334c-0.178-0.094-0.391-0.176-0.637-0.246
		c-0.246-0.071-0.514-0.152-0.801-0.243c-0.343-0.109-0.652-0.225-0.928-0.345c-0.277-0.121-0.511-0.262-0.702-0.421
		c-0.192-0.16-0.339-0.345-0.442-0.557c-0.102-0.212-0.153-0.464-0.153-0.755c0-0.324,0.074-0.606,0.222-0.848
		c0.148-0.242,0.344-0.441,0.586-0.598s0.517-0.274,0.824-0.352c0.309-0.078,0.621-0.116,0.941-0.116
		c0.47,0,0.904,0.044,1.303,0.133c0.399,0.089,0.738,0.243,1.016,0.461L50.747,6.187z"/>
	<path fill="#FDA63C" d="M57.106,9.229c0-0.383,0.074-0.725,0.223-1.025s0.344-0.574,0.584-0.82c0.242-0.246,0.518-0.469,0.828-0.67
		c0.309-0.201,0.629-0.387,0.957-0.561L59.595,6.05c-0.15-0.15-0.301-0.303-0.449-0.458c-0.15-0.155-0.283-0.318-0.4-0.489
		c-0.115-0.171-0.209-0.355-0.281-0.554c-0.07-0.198-0.105-0.416-0.105-0.653c0-0.328,0.064-0.616,0.195-0.865
		c0.129-0.249,0.309-0.456,0.533-0.622c0.227-0.167,0.49-0.292,0.789-0.376s0.621-0.126,0.963-0.126c0.32,0,0.635,0.039,0.943,0.116
		s0.582,0.197,0.822,0.359s0.434,0.365,0.582,0.608s0.223,0.532,0.223,0.865c0,0.273-0.059,0.53-0.174,0.769
		c-0.117,0.239-0.273,0.462-0.467,0.67c-0.195,0.208-0.418,0.4-0.672,0.578s-0.518,0.339-0.793,0.485l2.803,2.823
		c0.156-0.237,0.297-0.501,0.424-0.793c0.129-0.292,0.238-0.594,0.328-0.906c0.092-0.312,0.162-0.63,0.213-0.954
		c0.049-0.324,0.074-0.638,0.074-0.943c0-0.173-0.006-0.31-0.02-0.41s-0.025-0.185-0.035-0.253h1.184
		c0.031,0.428,0.023,0.868-0.023,1.319c-0.049,0.451-0.133,0.896-0.25,1.333c-0.119,0.438-0.27,0.859-0.455,1.265
		c-0.184,0.405-0.4,0.779-0.646,1.121c0.205,0.21,0.396,0.391,0.572,0.544c0.174,0.152,0.355,0.284,0.543,0.396
		c0.186,0.111,0.389,0.206,0.607,0.283s0.473,0.146,0.76,0.205l-0.902,0.67c-0.215-0.032-0.41-0.083-0.584-0.154
		c-0.176-0.07-0.348-0.161-0.518-0.273c-0.168-0.111-0.34-0.243-0.512-0.396c-0.174-0.152-0.365-0.329-0.574-0.529
		c-0.205,0.2-0.43,0.39-0.67,0.567c-0.242,0.178-0.506,0.333-0.789,0.465c-0.285,0.132-0.594,0.235-0.924,0.312
		c-0.33,0.074-0.688,0.112-1.07,0.112c-0.533,0-1.025-0.066-1.479-0.198c-0.455-0.132-0.848-0.323-1.184-0.574
		c-0.334-0.251-0.598-0.557-0.785-0.92C57.202,10.107,57.106,9.693,57.106,9.229z M63.546,9.987
		c-0.008-0.005-0.061-0.053-0.152-0.144c-0.094-0.091-0.217-0.212-0.367-0.362s-0.32-0.319-0.508-0.506
		c-0.189-0.187-0.383-0.378-0.578-0.574L60.374,6.85c-0.26,0.132-0.512,0.273-0.758,0.424s-0.465,0.319-0.656,0.506
		c-0.191,0.187-0.344,0.397-0.459,0.633c-0.113,0.234-0.17,0.497-0.17,0.789c0,0.287,0.061,0.552,0.184,0.793
		s0.295,0.45,0.514,0.625c0.219,0.176,0.479,0.313,0.783,0.414c0.303,0.101,0.637,0.15,1,0.15c0.311,0,0.596-0.031,0.855-0.092
		c0.26-0.062,0.5-0.146,0.721-0.254c0.221-0.106,0.426-0.233,0.615-0.379S63.374,10.156,63.546,9.987z M60.589,5.708
		c0.205-0.109,0.408-0.228,0.607-0.355c0.197-0.127,0.373-0.264,0.527-0.41c0.152-0.146,0.275-0.302,0.369-0.468
		s0.141-0.348,0.141-0.543s-0.039-0.365-0.119-0.506s-0.184-0.256-0.312-0.345c-0.127-0.089-0.271-0.154-0.432-0.195
		s-0.32-0.062-0.479-0.062c-0.188,0-0.363,0.023-0.525,0.068S60.062,3.007,59.938,3.1s-0.221,0.209-0.291,0.349
		c-0.072,0.139-0.107,0.3-0.107,0.482c0,0.173,0.025,0.337,0.076,0.492s0.121,0.304,0.215,0.448s0.205,0.284,0.334,0.42
		C60.292,5.428,60.435,5.567,60.589,5.708z"/>
	<path fill="#FDA63C" d="M74.237,11.977h-1.176V2.023h2.332c0.387,0,0.766,0.017,1.139,0.051c0.371,0.034,0.723,0.093,1.055,0.178
		c0.334,0.084,0.641,0.198,0.92,0.342c0.281,0.144,0.521,0.326,0.725,0.547s0.361,0.484,0.475,0.79
		c0.115,0.305,0.172,0.663,0.172,1.073c0,0.52-0.113,0.966-0.338,1.34c-0.227,0.374-0.529,0.68-0.91,0.919s-0.818,0.416-1.316,0.53
		c-0.496,0.114-1.016,0.171-1.559,0.171h-1.518V11.977z M74.237,3.035v3.917h1.785c0.373,0,0.719-0.038,1.039-0.113
		c0.318-0.076,0.594-0.192,0.824-0.35c0.229-0.157,0.41-0.357,0.539-0.599c0.131-0.242,0.195-0.532,0.195-0.87
		c0-0.397-0.072-0.725-0.215-0.982c-0.145-0.258-0.346-0.461-0.602-0.609c-0.258-0.148-0.566-0.251-0.924-0.309
		c-0.357-0.057-0.754-0.085-1.186-0.085H74.237z"/>
	<path fill="#FDA63C" d="M82.653,11.977h-1.129V6.651c0-0.287-0.004-0.574-0.014-0.861c-0.008-0.287-0.018-0.563-0.027-0.827h1.129
		l0.041,1.06c0.191-0.387,0.451-0.688,0.779-0.902s0.691-0.321,1.094-0.321c0.264,0,0.51,0.027,0.738,0.082l0.014,1.06
		c-0.096-0.05-0.213-0.09-0.35-0.12s-0.281-0.044-0.438-0.044c-0.273,0-0.523,0.054-0.752,0.161
		c-0.227,0.107-0.422,0.261-0.58,0.461c-0.16,0.201-0.283,0.444-0.373,0.731c-0.088,0.287-0.133,0.608-0.133,0.964V11.977z"/>
	<path fill="#FDA63C" d="M86.563,4.963h1.127v7.014h-1.127V4.963z M87.663,1.982v1.06h-1.045v-1.06H87.663z"/>
	<path fill="#FDA63C" d="M88.956,4.963H90.2l1.92,4.717c0.033,0.077,0.07,0.182,0.117,0.311c0.045,0.131,0.088,0.262,0.129,0.394
		c0.051,0.15,0.102,0.31,0.15,0.479c0.047-0.164,0.094-0.321,0.145-0.472c0.041-0.128,0.082-0.258,0.123-0.39
		s0.08-0.239,0.115-0.321l1.887-4.717h1.211l-2.961,7.014h-1.148L88.956,4.963z"/>
	<path fill="#FDA63C" d="M99.853,4.792c0.287,0,0.549,0.026,0.785,0.079c0.238,0.052,0.457,0.126,0.656,0.222
		c0.201,0.096,0.385,0.214,0.555,0.355c0.168,0.141,0.326,0.301,0.471,0.479l0.041-0.964h1.115l-0.027,1.729v5.284h-1.129
		l0.014-0.984c-0.109,0.146-0.246,0.288-0.412,0.428c-0.168,0.139-0.355,0.261-0.564,0.365c-0.211,0.104-0.441,0.189-0.693,0.253
		c-0.254,0.063-0.52,0.096-0.797,0.096c-0.393,0-0.748-0.052-1.066-0.153c-0.32-0.104-0.604-0.244-0.855-0.424
		c-0.25-0.181-0.467-0.392-0.652-0.633c-0.184-0.241-0.336-0.501-0.455-0.779c-0.117-0.278-0.207-0.566-0.266-0.865
		c-0.061-0.298-0.09-0.593-0.09-0.885c0-0.451,0.07-0.893,0.209-1.326s0.35-0.818,0.629-1.155c0.281-0.337,0.631-0.608,1.053-0.813
		S99.286,4.792,99.853,4.792z M99.981,11.231c0.32,0,0.619-0.065,0.9-0.194c0.279-0.131,0.525-0.322,0.738-0.574
		c0.211-0.254,0.379-0.568,0.506-0.943c0.125-0.377,0.189-0.811,0.193-1.303c0-0.369-0.055-0.707-0.166-1.012
		c-0.113-0.305-0.271-0.57-0.477-0.793s-0.453-0.396-0.748-0.52c-0.293-0.123-0.623-0.185-0.988-0.185
		c-0.277,0-0.527,0.038-0.752,0.113C98.966,5.896,98.767,6,98.595,6.132c-0.174,0.132-0.324,0.287-0.451,0.465
		c-0.129,0.178-0.232,0.368-0.314,0.571S97.687,7.581,97.647,7.8s-0.059,0.436-0.059,0.649c0,0.21,0.016,0.425,0.045,0.646
		c0.029,0.221,0.078,0.434,0.146,0.639s0.162,0.398,0.281,0.581c0.117,0.183,0.266,0.341,0.441,0.476
		c0.174,0.134,0.385,0.241,0.629,0.32C99.374,11.191,99.659,11.231,99.981,11.231z"/>
	<path fill="#FDA63C" d="M110.394,6.501c-0.219-0.273-0.486-0.474-0.801-0.602s-0.648-0.191-1.004-0.191
		c-0.379,0-0.717,0.073-1.012,0.219c-0.297,0.146-0.549,0.345-0.756,0.598s-0.365,0.549-0.475,0.889s-0.164,0.703-0.164,1.09
		c0,0.383,0.047,0.74,0.143,1.073s0.242,0.622,0.438,0.868c0.197,0.246,0.445,0.438,0.746,0.578
		c0.301,0.139,0.656,0.208,1.066,0.208c0.77,0,1.461-0.265,2.07-0.793l0.314,0.943c-0.332,0.265-0.703,0.456-1.113,0.574
		s-0.863,0.178-1.361,0.178c-0.578,0-1.086-0.095-1.52-0.284c-0.436-0.188-0.799-0.446-1.09-0.771
		c-0.289-0.326-0.508-0.708-0.652-1.146s-0.217-0.902-0.217-1.395c0-0.511,0.076-0.994,0.23-1.449s0.379-0.854,0.674-1.193
		s0.658-0.608,1.092-0.807c0.432-0.198,0.928-0.297,1.482-0.297c0.553,0,1.035,0.086,1.449,0.26
		c0.416,0.173,0.738,0.413,0.971,0.718L110.394,6.501z"/>
	<path fill="#FDA63C" d="M111.644,4.963h1.238l2.27,5.845l2.33-5.845h1.197l-3.104,7.506c-0.123,0.301-0.271,0.586-0.445,0.854
		c-0.172,0.269-0.371,0.509-0.594,0.722c-0.225,0.211-0.471,0.392-0.742,0.539c-0.271,0.148-0.568,0.252-0.893,0.312l-0.629-0.772
		c0.383-0.101,0.699-0.224,0.951-0.369c0.25-0.146,0.455-0.301,0.615-0.465c0.158-0.164,0.283-0.334,0.373-0.51
		c0.088-0.175,0.162-0.345,0.221-0.509l0.117-0.335L111.644,4.963z"/>
</g>
</svg>
