<?xml version="1.0" encoding="utf-8"?>
<!-- Generator: Adobe Illustrator 15.1.0, SVG Export Plug-In  -->
<!DOCTYPE svg PUBLIC "-//W3C//DTD SVG 1.1//EN" "http://www.w3.org/Graphics/SVG/1.1/DTD/svg11.dtd" [
	<!ENTITY ns_flows "http://ns.adobe.com/Flows/1.0/">
]>
<svg version="1.1"
	 xmlns="http://www.w3.org/2000/svg" xmlns:xlink="http://www.w3.org/1999/xlink" xmlns:a="http://ns.adobe.com/AdobeSVGViewerExtensions/3.0/"
	 x="0px" y="0px" width="33px" height="33px" viewBox="-0.5 -0.5 33 33"
	 overflow="visible" enable-background="new -0.5 -0.5 33 33" xml:space="preserve">
<defs>
</defs>
<path stroke="#CCCCCC" stroke-width="2" stroke-miterlimit="10" d="M31,16c0,8.285-6.709,15-15,15C7.716,31,1,24.285,1,16
	C1,7.716,7.716,1,16,1C24.291,1,31,7.716,31,16z"/>
<path fill-rule="evenodd" clip-rule="evenodd" fill="#FFFFFF" d="M21.13,15.799c0.14,0.01,0.29,0.02,0.44,0.02
	c0.069,0,0.16-0.01,0.229-0.01C21.57,15.81,21.34,15.81,21.13,15.799z"/>
<path fill-rule="evenodd" clip-rule="evenodd" fill="#FFFFFF" d="M17.52,17.469c-0.63-0.55-1.66-1.149-1.52-2.2
	c0.19-1.48,2.37-1.82,2.59-4.07c0.24-2.22-0.64-3.19-1.649-4.19c1.529,0.2,2.25-0.41,3.06-0.94c-3.91,0.08-7.59-0.46-9.67,1.47
	c-2.9,2.69-1.36,8.26,3.6,7.46c-0.65,0.99,0.11,2.28,0.4,2.87c-2.44,0.12-4.74,0.689-5.93,2c-1.09,1.21-1.16,3.29-0.07,4.47
	c2.81,3.05,10.89,1.59,11.2-3C19.66,19.33,18.61,18.4,17.52,17.469z M13.33,14.209c-2.13-0.9-3.87-6.54-0.53-7.2
	c2.24-0.45,3.431,1.82,3.67,4C16.69,13.209,15.5,15.109,13.33,14.209z M9.8,22.669c-0.33-0.88-0.05-2.28,0.6-2.93
	c0.66-0.66,1.61-0.96,3.2-1.13c0.44-0.051,0.96-0.17,1.4-0.08c0.53,0.13,1.15,0.75,1.53,1.069c0.45,0.381,1.39,1.23,1.399,2.41
	C17.98,25.82,10.88,25.629,9.8,22.669z"/>
<path fill-rule="evenodd" clip-rule="evenodd" fill="none" d="M13.33,14.209c-2.13-0.9-3.87-6.54-0.53-7.2
	c2.24-0.45,3.431,1.82,3.67,4C16.69,13.209,15.5,15.109,13.33,14.209z"/>
<path fill-rule="evenodd" clip-rule="evenodd" fill="#FFFFFF" d="M28.26,14.209v1.59h-2.8v2.73h-1.59v-2.66
	c-0.04-0.01-0.09-0.02-0.14-0.02c-0.021-0.01-0.051-0.01-0.08-0.02c-0.021,0-0.021,0-0.03,0c-0.03-0.01-0.08-0.01-0.11-0.01h-0.05
	c-0.01-0.01-0.03-0.01-0.04,0c-0.05-0.01-0.09-0.02-0.14-0.01c-0.05-0.01-0.101-0.01-0.16-0.01c-0.29-0.01-0.59-0.01-0.9,0
	c-0.14,0-0.279,0.01-0.42,0.01c-0.229,0-0.46,0-0.67-0.01v-1.59h2.66c0.02-0.05,0.02-0.08,0.03-0.13c0.02-0.08,0.02-0.16,0.029-0.25
	c0-0.05,0.011-0.09,0.011-0.13c0-0.01,0-0.01,0-0.01c0.01-0.04,0.01-0.08,0.01-0.12v-0.01c0.01-0.13,0.01-0.25,0.01-0.39
	c0-0.58-0.04-1.2-0.01-1.76h1.59v2.8H28.26z"/>
<path fill-rule="evenodd" clip-rule="evenodd" fill="#FFFFFF" d="M23.73,15.85c-0.08-0.02-0.171-0.03-0.271-0.03h0.05
	c0.03,0,0.08,0,0.11,0.01c0.01,0,0.01,0,0.03,0C23.68,15.839,23.71,15.839,23.73,15.85z"/>
<path fill-rule="evenodd" clip-rule="evenodd" fill="#FFFFFF" d="M23.85,13.83c-0.01,0.09-0.01,0.17-0.029,0.25
	c-0.011,0.05-0.011,0.08-0.03,0.13C23.81,14.089,23.84,13.959,23.85,13.83z"/>
<path fill-rule="evenodd" clip-rule="evenodd" fill="#FFFFFF" d="M23.87,13.56v0.01c0,0.04,0,0.08-0.01,0.12
	C23.86,13.649,23.86,13.6,23.87,13.56z"/>
<path fill-rule="evenodd" clip-rule="evenodd" fill="none" d="M17.93,22.009c0.051,3.811-7.05,3.62-8.13,0.66
	c-0.33-0.88-0.05-2.28,0.6-2.93c0.66-0.66,1.61-0.96,3.2-1.13c0.44-0.051,0.96-0.17,1.4-0.08c0.53,0.13,1.15,0.75,1.53,1.069
	C16.98,19.98,17.92,20.83,17.93,22.009z"/>
</svg>
