<?xml version="1.0" encoding="utf-8"?>
<!-- Generator: Adobe Illustrator 15.1.0, SVG Export Plug-In  -->
<!DOCTYPE svg PUBLIC "-//W3C//DTD SVG 1.1//EN" "http://www.w3.org/Graphics/SVG/1.1/DTD/svg11.dtd" [
	<!ENTITY ns_flows "http://ns.adobe.com/Flows/1.0/">
]>
<svg version="1.1"
	 xmlns="http://www.w3.org/2000/svg" xmlns:xlink="http://www.w3.org/1999/xlink" xmlns:a="http://ns.adobe.com/AdobeSVGViewerExtensions/3.0/"
	 x="0px" y="0px" width="237px" height="50px" viewBox="-9.015 -6.014 237 50"
	 overflow="visible" enable-background="new -9.015 -6.014 237 50" xml:space="preserve">
<defs>
</defs>
<circle fill="none" stroke="#000000" stroke-miterlimit="10" cx="7" cy="7" r="6.5"/>
<g>
	<g>
		<path fill="#CCCCCC" d="M26.225,14.058h2.01v2.43c1.05-1.77,3.24-2.73,5.28-2.73c3.99,0,7.169,2.94,7.169,7.38
			c0,4.44-3.18,7.229-7.169,7.229c-2.04,0-4.23-0.81-5.28-2.58v9.06h-2.01V14.058z M33.515,15.768c-2.85,0-5.28,1.92-5.28,5.37
			c0,3.45,2.76,5.22,5.28,5.22c2.91,0,5.16-2.01,5.16-5.22C38.674,18.018,36.424,15.768,33.515,15.768z"/>
		<path fill="#CCCCCC" d="M45.604,7.398c0.84,0,1.53,0.6,1.53,1.44c0,0.84-0.69,1.44-1.53,1.44c-0.84,0-1.53-0.6-1.53-1.44
			C44.075,7.998,44.765,7.398,45.604,7.398z M46.564,14.058h-1.98v14.009h1.98V14.058z"/>
		<path fill="#CCCCCC" d="M53.435,28.067h-2.01V14.058h2.01v2.31c0.87-1.83,3.03-2.61,4.65-2.61c3.419,0,5.43,2.34,5.399,6.15v8.16
			h-2.01v-8.16c0-2.58-1.23-4.17-3.39-4.17c-2.22,0-4.65,1.26-4.65,4.68V28.067z"/>
		<path fill="#CCCCCC" d="M69.844,30.587c1.02,1.71,2.67,2.49,4.32,2.49c3.24,0,5.52-1.83,5.49-7.56c-0.93,1.83-3.24,2.85-5.28,2.85
			c-3.99,0-7.17-2.82-7.17-7.26s3.18-7.35,7.17-7.35c2.04,0,4.23,0.93,5.28,2.7v-2.4h2.01v11.79c0,6.869-3.09,9.209-7.5,9.209
			c-2.31,0-4.62-1.079-6.03-3.479L69.844,30.587z M74.374,26.357c2.52,0,5.28-1.8,5.28-5.25c0-3.45-2.43-5.339-5.28-5.339
			c-2.91,0-5.16,2.22-5.16,5.339C69.214,24.317,71.464,26.357,74.374,26.357z"/>
		<path fill="#CCCCCC" d="M94.507,14.058h2.01v2.43c1.05-1.77,3.24-2.73,5.279-2.73c3.99,0,7.17,2.94,7.17,7.38
			c0,4.44-3.18,7.229-7.17,7.229c-2.039,0-4.229-0.81-5.279-2.58v9.06h-2.01V14.058z M101.796,15.768c-2.85,0-5.279,1.92-5.279,5.37
			c0,3.45,2.76,5.22,5.279,5.22c2.91,0,5.16-2.01,5.16-5.22C106.956,18.018,104.706,15.768,101.796,15.768z"/>
		<path fill="#CCCCCC" d="M111.906,21.018c0-4.44,3.33-7.26,7.32-7.26c3.989,0,7.319,2.82,7.319,7.26c0,4.439-3.33,7.35-7.319,7.35
			C115.236,28.367,111.906,25.457,111.906,21.018z M124.566,21.018c0-3.24-2.431-5.28-5.34-5.28c-2.91,0-5.34,2.04-5.34,5.28
			c0,3.24,2.43,5.37,5.34,5.37C122.136,26.388,124.566,24.258,124.566,21.018z"/>
		<path fill="#CCCCCC" d="M132.456,28.067h-2.01V14.058h2.01v2.31c0.87-1.83,3.03-2.61,4.65-2.61c3.42,0,5.43,2.34,5.399,6.15v8.16
			h-2.01v-8.16c0-2.58-1.229-4.17-3.39-4.17c-2.22,0-4.65,1.26-4.65,4.68V28.067z"/>
		<path fill="#CCCCCC" d="M148.866,30.587c1.021,1.71,2.67,2.49,4.32,2.49c3.24,0,5.52-1.83,5.489-7.56
			c-0.93,1.83-3.239,2.85-5.279,2.85c-3.99,0-7.17-2.82-7.17-7.26s3.18-7.35,7.17-7.35c2.04,0,4.229,0.93,5.279,2.7v-2.4h2.011
			v11.79c0,6.869-3.09,9.209-7.5,9.209c-2.31,0-4.62-1.079-6.03-3.479L148.866,30.587z M153.396,26.357c2.52,0,5.279-1.8,5.279-5.25
			c0-3.45-2.43-5.339-5.279-5.339c-2.91,0-5.16,2.22-5.16,5.339C148.236,24.317,150.486,26.357,153.396,26.357z"/>
	</g>
	<g>
		<path d="M25.225,12.058h2.01v2.43c1.05-1.77,3.24-2.73,5.28-2.73c3.99,0,7.169,2.94,7.169,7.38c0,4.44-3.18,7.229-7.169,7.229
			c-2.04,0-4.23-0.81-5.28-2.58v9.06h-2.01V12.058z M32.515,13.768c-2.85,0-5.28,1.92-5.28,5.37c0,3.45,2.76,5.22,5.28,5.22
			c2.91,0,5.16-2.01,5.16-5.22C37.674,16.018,35.424,13.768,32.515,13.768z"/>
		<path d="M44.604,5.398c0.84,0,1.53,0.6,1.53,1.44c0,0.84-0.69,1.44-1.53,1.44c-0.84,0-1.53-0.6-1.53-1.44
			C43.075,5.998,43.765,5.398,44.604,5.398z M45.564,12.058h-1.98v14.009h1.98V12.058z"/>
		<path d="M52.435,26.067h-2.01V12.058h2.01v2.31c0.87-1.83,3.03-2.61,4.65-2.61c3.419,0,5.43,2.34,5.399,6.15v8.16h-2.01v-8.16
			c0-2.58-1.23-4.17-3.39-4.17c-2.22,0-4.65,1.26-4.65,4.68V26.067z"/>
		<path d="M68.844,28.587c1.02,1.71,2.67,2.49,4.32,2.49c3.24,0,5.52-1.83,5.49-7.56c-0.93,1.83-3.24,2.85-5.28,2.85
			c-3.99,0-7.17-2.82-7.17-7.26s3.18-7.35,7.17-7.35c2.04,0,4.23,0.93,5.28,2.7v-2.4h2.01v11.79c0,6.869-3.09,9.209-7.5,9.209
			c-2.31,0-4.62-1.079-6.03-3.479L68.844,28.587z M73.374,24.357c2.52,0,5.28-1.8,5.28-5.25c0-3.45-2.43-5.339-5.28-5.339
			c-2.91,0-5.16,2.22-5.16,5.339C68.214,22.317,70.464,24.357,73.374,24.357z"/>
		<path d="M93.507,12.058h2.01v2.43c1.05-1.77,3.24-2.73,5.279-2.73c3.99,0,7.17,2.94,7.17,7.38c0,4.44-3.18,7.229-7.17,7.229
			c-2.039,0-4.229-0.81-5.279-2.58v9.06h-2.01V12.058z M100.796,13.768c-2.85,0-5.279,1.92-5.279,5.37c0,3.45,2.76,5.22,5.279,5.22
			c2.91,0,5.16-2.01,5.16-5.22C105.956,16.018,103.706,13.768,100.796,13.768z"/>
		<path d="M110.906,19.018c0-4.44,3.33-7.26,7.32-7.26c3.989,0,7.319,2.82,7.319,7.26c0,4.439-3.33,7.35-7.319,7.35
			C114.236,26.367,110.906,23.457,110.906,19.018z M123.566,19.018c0-3.24-2.431-5.28-5.34-5.28c-2.91,0-5.34,2.04-5.34,5.28
			c0,3.24,2.43,5.37,5.34,5.37C121.136,24.388,123.566,22.258,123.566,19.018z"/>
		<path d="M131.456,26.067h-2.01V12.058h2.01v2.31c0.87-1.83,3.03-2.61,4.65-2.61c3.42,0,5.43,2.34,5.399,6.15v8.16h-2.01v-8.16
			c0-2.58-1.229-4.17-3.39-4.17c-2.22,0-4.65,1.26-4.65,4.68V26.067z"/>
		<path d="M147.866,28.587c1.021,1.71,2.67,2.49,4.32,2.49c3.24,0,5.52-1.83,5.489-7.56c-0.93,1.83-3.239,2.85-5.279,2.85
			c-3.99,0-7.17-2.82-7.17-7.26s3.18-7.35,7.17-7.35c2.04,0,4.229,0.93,5.279,2.7v-2.4h2.011v11.79c0,6.869-3.09,9.209-7.5,9.209
			c-2.31,0-4.62-1.079-6.03-3.479L147.866,28.587z M152.396,24.357c2.52,0,5.279-1.8,5.279-5.25c0-3.45-2.43-5.339-5.279-5.339
			c-2.91,0-5.16,2.22-5.16,5.339C147.236,22.317,149.486,24.357,152.396,24.357z"/>
	</g>
</g>
<path d="M178.274,11.708c2.939,0,4.074,2.205,4.074,4.43s-1.135,4.388-4.074,4.388h-4.283v5.647h-1.406V11.708H178.274z
	 M173.991,13.094v6.047h4.179c2.036,0,2.792-1.47,2.792-3.002s-0.756-3.044-2.688-3.044H173.991z"/>
<path d="M194.738,26.174h-1.7l-3.99-5.647h-2.436v5.647h-1.406V11.708h5.375c2.939,0,4.01,2.205,4.01,4.43
	c0,2.184-1.028,4.304-3.842,4.388L194.738,26.174z M186.612,13.094v6.047h3.863c2.037,0,2.73-1.47,2.73-3.002
	s-0.693-3.044-2.625-3.044H186.612z"/>
<path d="M204.272,11.54c4.115,0,7.285,3.317,7.285,7.433c0,4.094-3.17,7.412-7.285,7.412c-4.094,0-7.265-3.318-7.265-7.412
	C197.008,14.857,200.179,11.54,204.272,11.54z M204.272,24.998c3.338,0,5.9-2.688,5.9-6.025c0-3.338-2.562-6.047-5.9-6.047
	s-5.879,2.708-5.879,6.047C198.394,22.311,200.935,24.998,204.272,24.998z"/>
<path d="M218.573,24.998c2.184,0,3.318-1.238,3.549-2.372c0.273-1.784-1.113-2.688-2.75-3.065l-1.953-0.441
	c-3.002-0.672-3.401-2.415-3.401-3.632c0-2.352,2.226-3.947,4.535-3.947c2.562,0,4.535,1.617,4.535,4.136h-1.386
	c0-1.68-1.365-2.75-3.149-2.75c-1.596,0-3.149,1.029-3.149,2.562c0,0.756,0.273,1.827,2.31,2.289l1.974,0.441
	c2.31,0.525,4.221,1.89,3.801,4.661c-0.336,1.68-1.932,3.507-4.914,3.507c-2.855,0-4.682-2.247-4.682-4.367h1.386
	C215.277,23.466,216.558,24.998,218.573,24.998z"/>
</svg>
