<?xml version="1.0" encoding="utf-8"?>
<!-- Generator: Adobe Illustrator 15.1.0, SVG Export Plug-In  -->
<!DOCTYPE svg PUBLIC "-//W3C//DTD SVG 1.1//EN" "http://www.w3.org/Graphics/SVG/1.1/DTD/svg11.dtd" [
	<!ENTITY ns_flows "http://ns.adobe.com/Flows/1.0/">
]>
<svg version="1.1"
	 xmlns="http://www.w3.org/2000/svg" xmlns:xlink="http://www.w3.org/1999/xlink" xmlns:a="http://ns.adobe.com/AdobeSVGViewerExtensions/3.0/"
	 x="0px" y="0px" width="164px" height="164px" viewBox="-1 -1.001 164 164"
	 overflow="visible" enable-background="new -1 -1.001 164 164" xml:space="preserve">
<defs>
</defs>
<path fill="none" stroke="#000000" stroke-width="2" stroke-miterlimit="10" d="M161,80.999c0,44.188-35.781,80-80,80
	c-44.182,0-80-35.812-80-80C1,36.821,36.818,1,81,1C125.219,1,161,36.821,161,80.999z"/>
<g>
	<rect x="28.5" y="72.542" fill="none" width="107.834" height="18.792"/>
	<path d="M30.196,85.663V72.867h1.809l6.559,9.791l0.685,1.117v-2.049v-8.859h1.512v12.796h-1.828l-6.591-9.782l-0.633-1.09v1.67
		v9.202H30.196z"/>
	<path d="M52.646,85.663h-7.884V72.867h7.62v1.301h-6.108v4.289h5.774v1.301h-5.774v4.605h6.372V85.663z"/>
	<path d="M64.17,76.646l-0.554-1.942l-0.606,1.942l-2.865,9.017h-1.872l-3.718-12.796h1.635l2.725,9.73l0.334,1.406l0.387-1.275
		l3.234-9.861h1.591l3.155,9.765l0.404,1.361l0.316-1.248l2.733-9.878h1.582l-3.718,12.796h-1.863L64.17,76.646z"/>
	<path d="M90.084,75.143c-0.217-0.211-0.459-0.393-0.727-0.545c-0.266-0.152-0.551-0.278-0.852-0.378
		c-0.303-0.1-0.619-0.173-0.949-0.22c-0.332-0.047-0.666-0.07-1.006-0.07c-0.814,0-1.531,0.152-2.15,0.458
		c-0.617,0.305-1.133,0.711-1.547,1.218c-0.412,0.507-0.723,1.088-0.932,1.742c-0.207,0.654-0.311,1.333-0.311,2.037
		c0,0.768,0.102,1.47,0.307,2.107c0.205,0.635,0.516,1.182,0.932,1.635c0.414,0.455,0.934,0.809,1.557,1.061
		s1.357,0.379,2.199,0.379c0.498,0,0.98-0.041,1.449-0.123s0.912-0.209,1.334-0.379V80.32h-3.172v-1.301H90.9v5.933
		c-0.709,0.334-1.434,0.57-2.176,0.707c-0.74,0.139-1.488,0.207-2.244,0.207c-1.055,0-1.984-0.152-2.787-0.457
		s-1.475-0.736-2.018-1.293c-0.541-0.557-0.95-1.227-1.225-2.008c-0.275-0.783-0.413-1.651-0.413-2.606
		c0-0.627,0.066-1.231,0.199-1.815c0.132-0.583,0.326-1.129,0.583-1.639c0.256-0.51,0.573-0.974,0.948-1.393
		s0.805-0.779,1.289-1.081c0.482-0.302,1.02-0.535,1.607-0.699c0.59-0.164,1.23-0.246,1.922-0.246c0.422,0,0.832,0.032,1.23,0.096
		s0.773,0.162,1.125,0.292s0.674,0.297,0.971,0.498c0.295,0.201,0.555,0.436,0.777,0.705L90.084,75.143z"/>
	<path d="M94.664,85.663h-1.635l5.309-12.796h1.627l5.316,12.796h-1.678l-1.434-3.488h-6.135L94.664,85.663z M96.52,80.874h5.133
		l-2.057-5.317c-0.047-0.111-0.098-0.242-0.15-0.391s-0.102-0.292-0.148-0.426c-0.059-0.158-0.115-0.319-0.168-0.483
		c-0.059,0.188-0.117,0.366-0.176,0.536c-0.047,0.146-0.098,0.292-0.152,0.435c-0.057,0.144-0.1,0.256-0.129,0.338L96.52,80.874z"/>
	<path d="M109.133,85.663h-1.484V72.867h2.092l4.174,9.14l0.738,1.793h0.018l0.748-1.818l4.201-9.115h2.057v12.796h-1.486v-8.208
		v-2.786l-0.447,1.063l-4.545,9.931h-1.107l-4.43-9.738l-0.527-1.406v2.962V85.663z"/>
	<path d="M133.621,85.663h-7.883V72.867h7.619v1.301h-6.107v4.289h5.773v1.301h-5.773v4.605h6.371V85.663z"/>
</g>
</svg>
