<?xml version="1.0" encoding="utf-8"?>
<!-- Generator: Adobe Illustrator 15.1.0, SVG Export Plug-In  -->
<!DOCTYPE svg PUBLIC "-//W3C//DTD SVG 1.1//EN" "http://www.w3.org/Graphics/SVG/1.1/DTD/svg11.dtd" [
	<!ENTITY ns_flows "http://ns.adobe.com/Flows/1.0/">
]>
<svg version="1.1"
	 xmlns="http://www.w3.org/2000/svg" xmlns:xlink="http://www.w3.org/1999/xlink" xmlns:a="http://ns.adobe.com/AdobeSVGViewerExtensions/3.0/"
	 x="0px" y="0px" width="164px" height="164px" viewBox="-1 -1.001 164 164"
	 overflow="visible" enable-background="new -1 -1.001 164 164" xml:space="preserve">
<defs>
</defs>
<path fill="#FFFFFF" stroke="#000000" stroke-width="2" stroke-miterlimit="10" d="M161,80.999c0,44.188-35.781,80-80,80
	c-44.182,0-80-35.812-80-80C1,36.821,36.818,1,81,1C125.219,1,161,36.821,161,80.999z"/>
<g>
	<rect x="22.917" y="51.208" fill="none" width="116.167" height="80.125"/>
	<path d="M41.25,73.807V51.768h3.114L55.662,68.63l1.179,1.923v-3.527V51.768h2.604v22.039h-3.148L44.944,56.959l-1.09-1.876v2.876
		v15.848H41.25z"/>
	<path d="M80.687,73.807H67.11V51.768h13.123v2.24h-10.52v7.387h9.944v2.24h-9.944v7.932h10.974V73.807z"/>
	<path d="M92.953,65.678l-5.586,8.129h-3.088l8.129-11.217l-7.584-10.822h3.27l4.98,7.523l1.061,1.589l1.09-1.589l5.221-7.523h2.967
		l-7.734,10.808l7.887,11.231h-3.225l-5.479-8.144l-0.969-1.393L92.953,65.678z"/>
	<path d="M113.486,73.807V54.008h-7.1v-2.24h16.848v2.24h-7.145v19.799H113.486z"/>
	<path d="M50.998,92.888c-0.373-0.363-0.789-0.676-1.248-0.938c-0.461-0.264-0.949-0.48-1.469-0.652s-1.064-0.297-1.635-0.377
		c-0.57-0.082-1.148-0.121-1.732-0.121c-1.404,0-2.637,0.262-3.701,0.787c-1.066,0.525-1.953,1.225-2.664,2.098
		c-0.713,0.875-1.248,1.873-1.605,3c-0.357,1.125-0.537,2.295-0.537,3.506c0,1.324,0.176,2.533,0.529,3.629s0.887,2.035,1.604,2.818
		c0.715,0.783,1.609,1.391,2.684,1.826c1.072,0.434,2.336,0.65,3.787,0.65c0.855,0,1.688-0.07,2.494-0.211
		c0.807-0.143,1.572-0.359,2.299-0.652v-6.447h-5.465v-2.24h8.068v10.219c-1.221,0.574-2.471,0.98-3.746,1.217
		c-1.277,0.236-2.566,0.355-3.867,0.355c-1.816,0-3.416-0.262-4.799-0.787s-2.541-1.266-3.475-2.225s-1.637-2.111-2.111-3.459
		s-0.711-2.844-0.711-4.488c0-1.08,0.113-2.121,0.342-3.125s0.562-1.945,1.004-2.824c0.441-0.877,0.986-1.678,1.633-2.398
		c0.648-0.721,1.389-1.342,2.221-1.861s1.756-0.922,2.77-1.203c1.014-0.283,2.117-0.424,3.309-0.424
		c0.727,0,1.432,0.055,2.119,0.164c0.686,0.111,1.332,0.279,1.938,0.504c0.605,0.227,1.162,0.512,1.672,0.857s0.955,0.75,1.34,1.213
		L50.998,92.888z"/>
	<path d="M59.661,111.007h-2.814l9.143-22.039h2.8l9.157,22.039h-2.891l-2.467-6.01H62.022L59.661,111.007z M62.855,102.757h8.84
		l-3.542-9.158c-0.081-0.191-0.166-0.416-0.258-0.674c-0.09-0.256-0.176-0.502-0.257-0.732c-0.101-0.273-0.196-0.551-0.288-0.834
		c-0.101,0.324-0.201,0.631-0.303,0.924c-0.08,0.252-0.169,0.502-0.265,0.75c-0.096,0.246-0.169,0.441-0.22,0.582L62.855,102.757z"
		/>
	<path d="M85.355,111.007h-2.559V88.968h3.602l7.191,15.742l1.271,3.088h0.029l1.287-3.133l7.234-15.697h3.543v22.039h-2.559V96.868
		v-4.797l-0.771,1.83l-7.826,17.105h-1.906l-7.629-16.771l-0.908-2.422v5.102V111.007z"/>
	<path d="M128.305,111.007h-13.578V88.968h13.123v2.24h-10.52v7.387h9.945v2.24h-9.945v7.932h10.975V111.007z"/>
</g>
</svg>
