<?xml version="1.0" encoding="utf-8"?>
<!-- Generator: Adobe Illustrator 15.1.0, SVG Export Plug-In  -->
<!DOCTYPE svg PUBLIC "-//W3C//DTD SVG 1.1//EN" "http://www.w3.org/Graphics/SVG/1.1/DTD/svg11.dtd" [
	<!ENTITY ns_flows "http://ns.adobe.com/Flows/1.0/">
]>
<svg version="1.1"
	 xmlns="http://www.w3.org/2000/svg" xmlns:xlink="http://www.w3.org/1999/xlink" xmlns:a="http://ns.adobe.com/AdobeSVGViewerExtensions/3.0/"
	 x="0px" y="0px" width="460px" height="530px" viewBox="-68.986 -138.805 460 530"
	 overflow="visible" enable-background="new -68.986 -138.805 460 530" xml:space="preserve">
<defs>
</defs>
<path fill-rule="evenodd" clip-rule="evenodd" fill="#FFFFFF" d="M150.274,0.095h-0.48c0.48,0.02,0.99,0.05,1.5,0.05
	C150.954,0.115,150.614,0.095,150.274,0.095z"/>
<path fill-rule="evenodd" clip-rule="evenodd" d="M151.294,0.146c-0.51,0-1.02-0.03-1.5-0.05h0.48
	C150.614,0.095,150.954,0.115,151.294,0.146z"/>
<path fill-rule="evenodd" clip-rule="evenodd" fill="#FF0000" d="M218.194,224.056c-30.39,30.08-59.53,58.09-90.6,85.05
	c-72.29-25.521-126.61-84.4-127.58-162.76c-0.01-0.54-0.01-1.07-0.01-1.6c-0.01-0.97,0-1.94,0.01-2.91
	c0.37-26.9,8.99-52.73,23.56-74.78c0.57-0.88,1.16-1.73,1.73-2.61c0.99-1.42,1.98-2.86,3.04-4.25c1.84-2.47,3.74-4.88,5.69-7.23
	c0.06-0.03,0.09-0.09,0.12-0.12c0.9-1.1,1.87-2.18,2.8-3.26c1.9-2.12,3.89-4.22,5.9-6.23c0.99-1.02,2.01-2.02,3.06-3.01
	c0.08-0.05,0.17-0.14,0.26-0.23c0.85-0.79,1.7-1.58,2.58-2.38c5.07-4.59,10.48-8.84,16.13-12.67c1.44-0.99,2.89-1.93,4.36-2.86
	l0.03-0.03c1.48-0.94,2.98-1.82,4.48-2.69c1.5-0.88,3.04-1.73,4.57-2.56c0,0,0-0.02,0.02-0.02c1.25-0.68,2.52-1.34,3.8-1.96
	c19.36-9.75,40.91-15.14,63-14.94h0.65c1.24,0.03,2.52,0.06,3.77,0.09h0.23c0.48,0.02,0.99,0.05,1.5,0.05
	c0.53,0.03,1.08,0.06,1.61,0.09c0.74,0.05,1.45,0.08,2.16,0.14c37.53,2.55,70.08,17.32,96.19,40.31
	c24.41,21.35,43.149,49.9,55.05,82.24c0.2,0.4,0.35,0.8,0.46,1.22c0.99,2.61,1.9,5.28,2.75,7.94c-5.62,6.1-11.26,12.13-16.96,18.12
	c-0.05,0.08-0.11,0.17-0.19,0.22c-0.489,0.54-0.97,1.08-1.479,1.59c-0.99,1.08-2.01,2.16-3.061,3.2c-0.51,0.54-1.05,1.08-1.59,1.59
	c-0.17,0.2-0.34,0.37-0.54,0.54c-0.25,0.28-0.51,0.57-0.819,0.85c-21.15,21.92-43.03,43.23-66.08,65.29
	C218.594,223.655,218.394,223.855,218.194,224.056z"/>
<path fill-rule="evenodd" clip-rule="evenodd" fill="#FF0000" d="M328.875,379.976c-31.45-6.19-39.2-67.32-76.54-79.38
	c-29.311-9.46-66.12,12.29-107.26,11.34c47.72-45.36,126.16-123.63,167.26-165.59c5.67,34.24-21.08,75.61-14.641,103.22
	c10.141,43.51,79.24,48.8,82.21,85.05C381.814,357.985,353.934,384.905,328.875,379.976z"/>
</svg>
