<?xml version="1.0" encoding="utf-8"?>
<!-- Generator: Adobe Illustrator 15.1.0, SVG Export Plug-In  -->
<!DOCTYPE svg PUBLIC "-//W3C//DTD SVG 1.1//EN" "http://www.w3.org/Graphics/SVG/1.1/DTD/svg11.dtd" [
	<!ENTITY ns_flows "http://ns.adobe.com/Flows/1.0/">
]>
<svg version="1.1"
	 xmlns="http://www.w3.org/2000/svg" xmlns:xlink="http://www.w3.org/1999/xlink" xmlns:a="http://ns.adobe.com/AdobeSVGViewerExtensions/3.0/"
	 x="0px" y="0px" width="460px" height="530px" viewBox="-68.987 -138.805 460 530"
	 overflow="visible" enable-background="new -68.987 -138.805 460 530" xml:space="preserve">
<defs>
</defs>
<path fill-rule="evenodd" clip-rule="evenodd" fill="#FFFFFF" d="M149.794,0.095c0.48,0.02,0.99,0.05,1.5,0.05
	c-0.34-0.03-0.68-0.05-1.02-0.05H149.794z"/>
<path fill-rule="evenodd" clip-rule="evenodd" d="M149.794,0.095c0.48,0.02,0.99,0.05,1.5,0.05c-0.34-0.03-0.68-0.05-1.02-0.05
	H149.794z"/>
<path fill-rule="evenodd" clip-rule="evenodd" fill="#FF0C43" d="M145.074,311.936c41.141,0.95,77.95-20.8,107.261-11.34
	c37.34,12.06,45.09,73.189,76.539,79.38c25.061,4.93,52.94-21.99,51.03-45.36c-2.97-36.25-72.069-41.54-82.21-85.05
	c-6.439-27.61,20.311-68.98,14.641-103.22C271.234,188.305,192.794,266.575,145.074,311.936z"/>
<path fill-rule="evenodd" clip-rule="evenodd" fill="#FF0C43" d="M0.004,144.745c0,0.53,0,1.06,0.011,1.6
	c0.97,78.36,55.29,137.24,127.58,162.76c31.069-26.96,60.21-54.97,90.6-85.05c0.2-0.2,0.4-0.4,0.6-0.57
	c23.051-22.06,44.931-43.37,66.08-65.29c0.311-0.28,0.57-0.57,0.82-0.85c0.2-0.17,0.37-0.34,0.54-0.54
	c0.54-0.51,1.08-1.05,1.59-1.59c1.05-1.04,2.07-2.12,3.06-3.2c0.511-0.51,0.99-1.05,1.48-1.59c0.08-0.05,0.141-0.14,0.189-0.22
	c5.701-5.99,11.341-12.02,16.961-18.12c-0.85-2.66-1.76-5.33-2.75-7.94c-0.11-0.42-0.26-0.82-0.461-1.22
	c-11.899-32.34-30.639-60.89-55.049-82.24c-26.11-22.99-58.66-37.76-96.19-40.31c-0.71-0.06-1.42-0.09-2.16-0.14
	c-0.53-0.03-1.08-0.06-1.61-0.09c-0.51,0-1.02-0.03-1.5-0.05h-0.229c-1.25-0.03-2.53-0.06-3.771-0.09h-0.649
	c-22.09-0.2-43.641,5.19-63,14.94c-1.28,0.62-2.55,1.28-3.8,1.96c-0.021,0-0.021,0.02-0.021,0.02c-1.53,0.83-3.07,1.68-4.57,2.56
	c-1.5,0.87-3,1.75-4.479,2.69l-0.03,0.03c-1.47,0.93-2.92,1.87-4.359,2.86c-5.65,3.83-11.061,8.08-16.131,12.67
	c-0.88,0.8-1.729,1.59-2.579,2.38c-0.091,0.09-0.181,0.18-0.261,0.23c-1.05,0.99-2.069,1.99-3.06,3.01c-2.01,2.01-4,4.11-5.9,6.23
	c-0.93,1.08-1.899,2.16-2.8,3.26c-0.03,0.03-0.06,0.09-0.12,0.12c-1.95,2.35-3.85,4.76-5.689,7.23c-1.061,1.39-2.051,2.83-3.04,4.25
	c-0.57,0.88-1.16,1.73-1.73,2.61c-14.57,22.05-23.189,47.88-23.56,74.78C0.004,142.805-0.006,143.775,0.004,144.745z"/>
</svg>
