<?xml version="1.0" encoding="utf-8"?>
<!-- Generator: Adobe Illustrator 15.1.0, SVG Export Plug-In  -->
<!DOCTYPE svg PUBLIC "-//W3C//DTD SVG 1.1//EN" "http://www.w3.org/Graphics/SVG/1.1/DTD/svg11.dtd" [
	<!ENTITY ns_flows "http://ns.adobe.com/Flows/1.0/">
]>
<svg version="1.1"
	 xmlns="http://www.w3.org/2000/svg" xmlns:xlink="http://www.w3.org/1999/xlink" xmlns:a="http://ns.adobe.com/AdobeSVGViewerExtensions/3.0/"
	 x="0px" y="0px" width="74px" height="74px" viewBox="-1 -1 74 74" overflow="visible" enable-background="new -1 -1 74 74"
	 xml:space="preserve">
<defs>
</defs>
<path fill="#FF9933" stroke="#FFFFFF" stroke-width="2" stroke-miterlimit="10" d="M71,36c0,19.332-15.654,35-35,35
	C16.67,71,1,55.332,1,36C1,16.672,16.67,1,36,1C55.346,1,71,16.672,71,36z"/>
<g>
	<rect x="17.833" y="29.5" fill="none" width="38.167" height="16"/>
	<path d="M20.763,41.164h-1.344V29.789h2.664c0.442,0,0.876,0.02,1.301,0.059c0.424,0.039,0.827,0.107,1.207,0.203
		c0.38,0.097,0.73,0.227,1.051,0.391s0.596,0.373,0.828,0.625c0.231,0.253,0.413,0.554,0.543,0.902
		c0.13,0.349,0.195,0.758,0.195,1.227c0,0.594-0.129,1.104-0.387,1.531c-0.258,0.428-0.604,0.777-1.039,1.051
		c-0.435,0.273-0.937,0.476-1.504,0.605c-0.568,0.13-1.162,0.195-1.781,0.195h-1.734V41.164z M20.763,30.945v4.477h2.039
		c0.427,0,0.823-0.043,1.188-0.129c0.364-0.086,0.678-0.219,0.941-0.399c0.263-0.18,0.469-0.408,0.617-0.685
		s0.223-0.608,0.223-0.994c0-0.454-0.082-0.828-0.246-1.123s-0.394-0.527-0.688-0.696c-0.294-0.17-0.646-0.287-1.055-0.353
		c-0.409-0.065-0.861-0.098-1.355-0.098H20.763z"/>
	<path d="M30.388,29.507v11.656h-1.289V29.507H30.388z"/>
	<path d="M36.264,32.953c0.328,0,0.627,0.03,0.898,0.09c0.27,0.06,0.52,0.145,0.75,0.254c0.229,0.109,0.439,0.245,0.633,0.406
		c0.191,0.162,0.371,0.344,0.539,0.547l0.047-1.102h1.273l-0.031,1.977v6.039h-1.289l0.016-1.125
		c-0.125,0.167-0.283,0.329-0.473,0.488c-0.191,0.159-0.406,0.298-0.645,0.418c-0.24,0.12-0.504,0.216-0.793,0.289
		s-0.594,0.109-0.91,0.109c-0.449,0-0.855-0.059-1.219-0.176s-0.69-0.278-0.977-0.484s-0.535-0.446-0.746-0.723
		s-0.384-0.573-0.52-0.891s-0.237-0.647-0.305-0.988s-0.102-0.679-0.102-1.012c0-0.516,0.079-1.021,0.238-1.516
		c0.159-0.494,0.398-0.935,0.719-1.32c0.32-0.385,0.722-0.695,1.203-0.93S35.618,32.953,36.264,32.953z M36.412,40.312
		c0.363,0,0.707-0.074,1.027-0.223s0.602-0.367,0.844-0.656s0.434-0.648,0.578-1.078c0.143-0.43,0.217-0.926,0.223-1.488
		c0-0.422-0.064-0.808-0.191-1.156c-0.129-0.349-0.309-0.65-0.543-0.906c-0.234-0.255-0.52-0.453-0.855-0.594S36.781,34,36.365,34
		c-0.318,0-0.605,0.043-0.86,0.129s-0.481,0.205-0.68,0.355c-0.198,0.151-0.37,0.328-0.516,0.531s-0.266,0.421-0.359,0.652
		s-0.163,0.473-0.207,0.723s-0.066,0.497-0.066,0.742c0,0.239,0.017,0.485,0.051,0.738s0.09,0.496,0.168,0.73
		s0.185,0.456,0.32,0.664s0.304,0.39,0.504,0.543s0.44,0.276,0.719,0.367S36.041,40.312,36.412,40.312z"/>
	<path d="M41.568,33.148h1.414l2.594,6.68l2.664-6.68h1.367l-3.547,8.578c-0.141,0.344-0.311,0.669-0.508,0.977
		c-0.199,0.308-0.426,0.582-0.68,0.824c-0.256,0.242-0.539,0.448-0.848,0.617c-0.311,0.169-0.65,0.288-1.02,0.355l-0.719-0.883
		c0.438-0.114,0.799-0.255,1.086-0.422c0.285-0.167,0.52-0.344,0.703-0.531c0.182-0.188,0.324-0.382,0.426-0.582
		s0.186-0.395,0.254-0.582l0.133-0.383L41.568,33.148z"/>
	<path d="M51.818,39.734h1.672v1.609h-1.672V39.734z M53.115,38.25h-0.898l-0.312-8.422h1.523L53.115,38.25z"/>
</g>
</svg>
