<?xml version="1.0" encoding="utf-8"?>
<!-- Generator: Adobe Illustrator 15.1.0, SVG Export Plug-In  -->
<!DOCTYPE svg PUBLIC "-//W3C//DTD SVG 1.1//EN" "http://www.w3.org/Graphics/SVG/1.1/DTD/svg11.dtd" [
	<!ENTITY ns_flows "http://ns.adobe.com/Flows/1.0/">
]>
<svg version="1.1"
	 xmlns="http://www.w3.org/2000/svg" xmlns:xlink="http://www.w3.org/1999/xlink" xmlns:a="http://ns.adobe.com/AdobeSVGViewerExtensions/3.0/"
	 x="0px" y="0px" width="268px" height="268px" viewBox="6 -1 268 268" overflow="visible" enable-background="new 6 -1 268 268"
	 xml:space="preserve">
<defs>
</defs>
<path fill="#FFFFFF" d="M140,0c-29.05,0-56.04,8.85-78.399,24l14.06,20.37C94.221,31.52,116.74,24,141,24
	c24,0,46.25,7.34,64.67,19.89l13.431-19.439C196.61,9.03,169.37,0,140,0z"/>
<path fill="none" d="M280,140c0,77.331-62.62,140-140,140C62.681,280,0,217.331,0,140C0,91.74,24.431,49.17,61.601,24l14.06,20.37
	C94.221,31.52,116.74,24,141,24c24,0,46.25,7.34,64.67,19.89l13.431-19.439C255.891,49.69,280,92.03,280,140z"/>
<line fill="none" x1="141" y1="124" x2="140.5" y2="123.28"/>
<line fill="none" x1="219.41" y1="24" x2="219.101" y2="24.45"/>
<line fill="none" x1="140.5" y1="123.28" x2="140" y2="124"/>
<g>
	<path fill="none" d="M75.66,40.37c0,0,61.68-45.258,130.01-0.48"/>
	<path d="M93.675,28.464c0.208,0.112,0.429,0.188,0.664,0.229s0.472,0.055,0.711,0.044c0.239-0.011,0.477-0.044,0.712-0.1
		s0.458-0.127,0.67-0.212c0.333-0.135,0.627-0.292,0.879-0.47c0.252-0.178,0.453-0.373,0.601-0.583
		c0.148-0.21,0.241-0.432,0.276-0.665c0.036-0.233,0.003-0.475-0.098-0.724c-0.113-0.279-0.283-0.486-0.51-0.623
		c-0.228-0.136-0.491-0.232-0.792-0.288c-0.3-0.056-0.629-0.081-0.986-0.077c-0.357,0.004-0.721,0.008-1.091,0.011
		s-0.739-0.007-1.106-0.028c-0.367-0.021-0.711-0.083-1.031-0.188c-0.32-0.104-0.609-0.262-0.867-0.475s-0.463-0.507-0.616-0.883
		c-0.164-0.405-0.213-0.8-0.147-1.183c0.066-0.383,0.214-0.74,0.443-1.072s0.521-0.63,0.876-0.897
		c0.354-0.266,0.74-0.484,1.159-0.654c0.241-0.097,0.494-0.183,0.759-0.256c0.266-0.073,0.531-0.12,0.796-0.139
		s0.523-0.008,0.773,0.035c0.251,0.042,0.482,0.131,0.694,0.265l-0.239,0.922c-0.183-0.088-0.375-0.146-0.576-0.176
		s-0.405-0.035-0.612-0.018c-0.207,0.017-0.413,0.053-0.617,0.106s-0.402,0.119-0.592,0.195c-0.257,0.104-0.504,0.235-0.741,0.393
		s-0.435,0.336-0.594,0.536c-0.16,0.2-0.268,0.418-0.325,0.655c-0.056,0.237-0.031,0.486,0.075,0.749
		c0.109,0.271,0.278,0.474,0.505,0.611s0.493,0.232,0.795,0.287s0.632,0.083,0.99,0.086c0.358,0.003,0.724,0.005,1.098,0.006
		s0.745,0.016,1.113,0.044c0.368,0.028,0.714,0.097,1.039,0.207c0.325,0.109,0.617,0.273,0.877,0.49
		c0.26,0.217,0.466,0.514,0.619,0.89c0.122,0.3,0.182,0.589,0.182,0.867c0,0.278-0.048,0.542-0.144,0.792
		c-0.095,0.25-0.23,0.486-0.407,0.708c-0.176,0.221-0.379,0.425-0.611,0.613c-0.231,0.187-0.483,0.358-0.755,0.512
		c-0.272,0.154-0.549,0.289-0.833,0.403c-0.308,0.125-0.613,0.216-0.914,0.274c-0.301,0.058-0.59,0.084-0.868,0.079
		c-0.278-0.005-0.54-0.042-0.786-0.109s-0.466-0.165-0.661-0.293L93.675,28.464z"/>
	<path d="M106.579,16.918c-0.824-0.286-1.679-0.288-2.564-0.004c-0.399,0.128-0.747,0.298-1.042,0.51
		c-0.296,0.212-0.545,0.455-0.747,0.728c-0.202,0.273-0.358,0.569-0.469,0.887c-0.111,0.318-0.183,0.648-0.214,0.988
		c-0.032,0.341-0.026,0.688,0.017,1.04s0.119,0.696,0.226,1.03c0.164,0.513,0.388,0.979,0.67,1.398s0.619,0.759,1.009,1.02
		s0.831,0.426,1.322,0.496c0.492,0.07,1.028,0.012,1.609-0.174c0.534-0.171,1.012-0.409,1.433-0.714
		c0.421-0.305,0.76-0.671,1.016-1.097l0.671,0.797c-0.299,0.455-0.698,0.852-1.197,1.191s-1.094,0.62-1.784,0.841
		c-0.716,0.229-1.388,0.306-2.015,0.229s-1.198-0.273-1.711-0.59c-0.513-0.316-0.958-0.734-1.334-1.252s-0.67-1.107-0.882-1.767
		c-0.143-0.447-0.236-0.896-0.277-1.347c-0.042-0.451-0.032-0.891,0.029-1.319c0.062-0.429,0.175-0.841,0.34-1.236
		c0.166-0.395,0.383-0.758,0.653-1.088c0.27-0.331,0.591-0.624,0.963-0.879c0.373-0.256,0.8-0.461,1.282-0.615
		c0.59-0.189,1.143-0.279,1.658-0.271c0.515,0.009,1.025,0.125,1.532,0.347L106.579,16.918z"/>
	<path d="M119.962,17.123c0.167,0.733,0.211,1.43,0.135,2.09c-0.077,0.66-0.27,1.258-0.578,1.792
		c-0.308,0.536-0.73,0.992-1.266,1.371s-1.176,0.653-1.923,0.823c-0.742,0.169-1.435,0.202-2.077,0.101
		c-0.642-0.102-1.218-0.323-1.729-0.666c-0.51-0.342-0.944-0.797-1.302-1.365c-0.358-0.568-0.624-1.234-0.798-1.999
		c-0.166-0.729-0.209-1.424-0.131-2.087c0.079-0.663,0.273-1.264,0.585-1.805c0.312-0.541,0.736-1.004,1.275-1.391
		c0.539-0.387,1.188-0.666,1.948-0.839c0.724-0.165,1.405-0.193,2.042-0.085c0.637,0.107,1.209,0.334,1.718,0.682
		s0.942,0.806,1.301,1.376C119.522,15.691,119.788,16.359,119.962,17.123z M111.658,19.018c0.127,0.56,0.321,1.066,0.58,1.519
		c0.26,0.453,0.578,0.825,0.956,1.118c0.377,0.293,0.81,0.492,1.296,0.599c0.487,0.106,1.021,0.094,1.604-0.039
		c0.586-0.133,1.077-0.354,1.473-0.661c0.395-0.307,0.698-0.675,0.909-1.104c0.211-0.429,0.333-0.907,0.368-1.437
		c0.034-0.529-0.015-1.082-0.146-1.66c-0.128-0.564-0.32-1.074-0.576-1.531c-0.255-0.456-0.571-0.831-0.946-1.124
		c-0.375-0.293-0.805-0.492-1.289-0.597c-0.484-0.105-1.02-0.091-1.606,0.042c-0.582,0.132-1.068,0.36-1.457,0.682
		c-0.39,0.322-0.692,0.704-0.907,1.146c-0.215,0.441-0.343,0.925-0.382,1.45C111.494,17.949,111.536,18.48,111.658,19.018z"/>
	<path d="M124.309,16.978l0.588,4.418l-1.166,0.155l-1.314-9.866l2.413-0.321c0.266-0.036,0.56-0.07,0.879-0.104
		c0.319-0.033,0.643-0.046,0.97-0.04c0.328,0.007,0.647,0.043,0.959,0.11c0.312,0.066,0.597,0.179,0.855,0.338
		c0.258,0.159,0.475,0.376,0.652,0.654s0.294,0.628,0.351,1.053c0.042,0.312,0.03,0.605-0.035,0.88s-0.175,0.529-0.333,0.761
		s-0.356,0.438-0.597,0.617c-0.24,0.179-0.514,0.33-0.819,0.454l0.007-0.001c0.288,0.054,0.532,0.157,0.734,0.31
		c0.202,0.152,0.394,0.358,0.575,0.617s0.368,0.57,0.559,0.933s0.421,0.782,0.691,1.257l0.783,1.373l-1.274,0.169l-1.415-2.701
		c-0.154-0.292-0.3-0.532-0.438-0.721c-0.138-0.188-0.29-0.333-0.458-0.432c-0.167-0.099-0.357-0.16-0.569-0.183
		c-0.212-0.022-0.469-0.013-0.772,0.027L124.309,16.978z M124.175,15.975l1.803-0.24c0.303-0.041,0.602-0.108,0.897-0.202
		s0.556-0.223,0.78-0.386c0.224-0.163,0.396-0.367,0.515-0.612c0.119-0.245,0.155-0.541,0.109-0.888
		c-0.045-0.338-0.144-0.608-0.297-0.811s-0.349-0.352-0.587-0.448s-0.509-0.15-0.814-0.16c-0.305-0.01-0.633,0.009-0.985,0.056
		l-1.877,0.25L124.175,15.975z"/>
	<path d="M134.831,20.341l-1.173,0.082l-0.688-9.929l1.173-0.082L134.831,20.341z"/>
	<path d="M138.116,20.104l0.021-9.953l1.407,0.003l5.085,7.626l0.53,0.869l0.004-1.593l0.015-6.891l1.176,0.002l-0.021,9.953
		l-1.422-0.003l-5.11-7.62l-0.491-0.849l-0.002,1.299l-0.016,7.157L138.116,20.104z"/>
	<path d="M157.549,12.906c-0.15-0.181-0.323-0.34-0.518-0.48c-0.193-0.139-0.403-0.259-0.629-0.36
		c-0.226-0.102-0.465-0.184-0.717-0.246c-0.252-0.063-0.51-0.108-0.772-0.135c-0.631-0.065-1.197-0.005-1.699,0.182
		c-0.503,0.186-0.935,0.459-1.295,0.818s-0.646,0.784-0.86,1.272c-0.213,0.489-0.348,1.006-0.404,1.55
		c-0.062,0.595-0.039,1.146,0.068,1.655s0.304,0.956,0.589,1.34s0.658,0.7,1.12,0.945s1.02,0.401,1.672,0.469
		c0.385,0.04,0.761,0.047,1.13,0.021s0.723-0.088,1.062-0.186l0.301-2.896l-2.455-0.254l0.104-1.006l3.624,0.375l-0.476,4.591
		c-0.575,0.201-1.155,0.325-1.739,0.372c-0.585,0.047-1.169,0.04-1.754-0.021c-0.816-0.084-1.522-0.277-2.119-0.577
		c-0.597-0.3-1.082-0.687-1.457-1.161c-0.374-0.474-0.637-1.025-0.787-1.652c-0.15-0.627-0.188-1.311-0.11-2.049
		c0.05-0.485,0.149-0.948,0.299-1.388s0.344-0.848,0.583-1.221c0.239-0.374,0.521-0.708,0.845-1.002s0.687-0.538,1.084-0.733
		c0.398-0.195,0.832-0.332,1.301-0.412s0.971-0.092,1.505-0.036c0.327,0.034,0.642,0.091,0.944,0.173
		c0.304,0.082,0.586,0.187,0.847,0.316c0.262,0.129,0.499,0.284,0.712,0.463s0.395,0.382,0.545,0.607L157.549,12.906z"/>
	<path d="M164.961,22.48l-1.234-0.305l6.399-8.67l1.228,0.304l1.624,10.655l-1.268-0.313l-0.43-2.902l-4.632-1.146L164.961,22.48z
		 M167.256,19.21l3.876,0.959l-0.56-4.399c-0.015-0.093-0.027-0.201-0.04-0.323c-0.012-0.123-0.022-0.239-0.033-0.35
		c-0.015-0.13-0.026-0.262-0.035-0.396c-0.079,0.131-0.157,0.255-0.233,0.372c-0.062,0.102-0.128,0.202-0.197,0.3
		c-0.068,0.098-0.122,0.175-0.159,0.231L167.256,19.21z"/>
	<path d="M175.983,25.483l-1.112-0.38l3.217-9.419l2.205,0.753c0.367,0.125,0.721,0.264,1.061,0.417
		c0.341,0.152,0.655,0.322,0.942,0.509c0.287,0.188,0.541,0.394,0.76,0.621s0.389,0.477,0.509,0.752
		c0.12,0.274,0.186,0.575,0.194,0.9c0.01,0.326-0.053,0.683-0.185,1.071c-0.168,0.491-0.419,0.877-0.754,1.158
		c-0.334,0.281-0.72,0.473-1.157,0.577c-0.438,0.103-0.909,0.128-1.416,0.076c-0.508-0.053-1.018-0.167-1.53-0.342l-1.437-0.49
		L175.983,25.483z M178.873,17.021l-1.266,3.707l1.688,0.577c0.354,0.121,0.693,0.197,1.02,0.229s0.624,0.011,0.893-0.064
		s0.504-0.206,0.705-0.393c0.2-0.187,0.355-0.44,0.465-0.76c0.129-0.376,0.166-0.709,0.114-1c-0.053-0.291-0.177-0.547-0.373-0.771
		c-0.195-0.224-0.453-0.42-0.773-0.59s-0.685-0.325-1.095-0.464L178.873,17.021z"/>
	<path d="M184.639,28.678l-1.079-0.467l3.951-9.135l2.14,0.925c0.355,0.154,0.697,0.32,1.024,0.499
		c0.327,0.179,0.627,0.373,0.898,0.582s0.508,0.436,0.708,0.679c0.2,0.243,0.35,0.506,0.448,0.79
		c0.099,0.284,0.14,0.588,0.123,0.914c-0.017,0.325-0.106,0.676-0.27,1.053c-0.206,0.477-0.487,0.842-0.843,1.095
		c-0.354,0.254-0.755,0.415-1.199,0.483c-0.444,0.068-0.917,0.056-1.418-0.036c-0.501-0.093-1.001-0.247-1.498-0.462l-1.394-0.603
		L184.639,28.678z M188.188,20.472l-1.555,3.595l1.638,0.708c0.343,0.148,0.676,0.251,0.998,0.309
		c0.322,0.058,0.621,0.06,0.895,0.006c0.273-0.053,0.519-0.165,0.733-0.335c0.216-0.17,0.391-0.411,0.524-0.721
		c0.157-0.365,0.222-0.694,0.192-0.987c-0.029-0.294-0.133-0.56-0.311-0.798c-0.177-0.238-0.419-0.455-0.725-0.649
		s-0.657-0.377-1.055-0.549L188.188,20.472z"/>
</g>
</svg>
