<?xml version="1.0" encoding="utf-8"?>
<!-- Generator: Adobe Illustrator 15.1.0, SVG Export Plug-In  -->
<!DOCTYPE svg PUBLIC "-//W3C//DTD SVG 1.1//EN" "http://www.w3.org/Graphics/SVG/1.1/DTD/svg11.dtd" [
	<!ENTITY ns_flows "http://ns.adobe.com/Flows/1.0/">
]>
<svg version="1.1"
	 xmlns="http://www.w3.org/2000/svg" xmlns:xlink="http://www.w3.org/1999/xlink" xmlns:a="http://ns.adobe.com/AdobeSVGViewerExtensions/3.0/"
	 x="0px" y="0px" width="73px" height="26px" viewBox="-1.139 -1.125 73 26"
	 overflow="visible" enable-background="new -1.139 -1.125 73 26" xml:space="preserve">
<defs>
</defs>
<g>
	<rect x="12.801" y="7.435" fill="none" width="49.03" height="10.905"/>
	<path fill="#89898A" d="M16.159,15.402c1.248,0,1.895-0.708,2.027-1.355c0.156-1.02-0.636-1.535-1.571-1.751L15.5,12.044
		c-1.715-0.384-1.943-1.379-1.943-2.075c0-1.343,1.271-2.255,2.591-2.255c1.463,0,2.59,0.923,2.59,2.363h-0.792
		c0-0.959-0.779-1.571-1.799-1.571c-0.912,0-1.799,0.588-1.799,1.463c0,0.432,0.156,1.043,1.319,1.307l1.127,0.252
		c1.319,0.3,2.411,1.079,2.171,2.663c-0.192,0.959-1.104,2.003-2.807,2.003c-1.631,0-2.674-1.284-2.674-2.495h0.792
		C14.276,14.527,15.008,15.402,16.159,15.402z"/>
	<path fill="#89898A" d="M21.117,7.811c0.335,0,0.611,0.24,0.611,0.576c0,0.336-0.276,0.576-0.611,0.576
		c-0.336,0-0.612-0.24-0.612-0.576C20.505,8.051,20.781,7.811,21.117,7.811z M21.5,10.473h-0.791v5.601H21.5V10.473z"/>
	<path fill="#89898A" d="M24.296,17.082c0.407,0.684,1.067,0.995,1.728,0.995c1.295,0,2.206-0.731,2.194-3.022
		c-0.372,0.731-1.296,1.14-2.11,1.14c-1.596,0-2.867-1.127-2.867-2.902c0-1.775,1.271-2.938,2.867-2.938
		c0.814,0,1.69,0.372,2.11,1.079v-0.959h0.804v4.713c0,2.747-1.235,3.683-2.998,3.683c-0.924,0-1.848-0.433-2.411-1.392
		L24.296,17.082z M26.107,15.391c1.007,0,2.11-0.72,2.11-2.099c0-1.379-0.972-2.135-2.11-2.135c-1.164,0-2.063,0.888-2.063,2.135
		C24.044,14.575,24.943,15.391,26.107,15.391z"/>
	<path fill="#89898A" d="M31.94,16.074h-0.804v-5.601h0.804v0.924c0.348-0.732,1.211-1.043,1.858-1.043
		c1.367,0,2.171,0.936,2.159,2.458v3.262h-0.804v-3.262c0-1.031-0.492-1.667-1.355-1.667c-0.888,0-1.858,0.503-1.858,1.871V16.074z"
		/>
	<path fill="#89898A" d="M41.002,13.256c0-1.775,1.331-2.902,2.926-2.902c1.596,0,2.927,1.127,2.927,2.902s-1.331,2.938-2.927,2.938
		C42.333,16.194,41.002,15.031,41.002,13.256z M46.062,13.256c0-1.295-0.971-2.111-2.135-2.111c-1.163,0-2.135,0.815-2.135,2.111
		s0.972,2.146,2.135,2.146C45.092,15.402,46.062,14.551,46.062,13.256z"/>
	<path fill="#89898A" d="M52.543,10.473h0.804v5.601h-0.804v-0.923c-0.348,0.732-1.211,1.043-1.858,1.043
		c-1.367,0-2.171-0.936-2.159-2.459v-3.262h0.804v3.262c0,1.032,0.491,1.667,1.355,1.667c0.888,0,1.858-0.503,1.858-1.871V10.473z"
		/>
	<path fill="#89898A" d="M55.845,16.074v-4.881h-1.007v-0.72h1.007V8.375h0.804v2.099h1.188v0.72h-1.188v4.881H55.845z"/>
</g>
<rect x="1" y="1" fill="none" stroke="#CCCCCC" stroke-width="2" stroke-miterlimit="10" width="68.724" height="21.75"/>
</svg>
