<?xml version="1.0" encoding="utf-8"?>
<!-- Generator: Adobe Illustrator 15.1.0, SVG Export Plug-In  -->
<!DOCTYPE svg PUBLIC "-//W3C//DTD SVG 1.1//EN" "http://www.w3.org/Graphics/SVG/1.1/DTD/svg11.dtd" [
	<!ENTITY ns_flows "http://ns.adobe.com/Flows/1.0/">
]>
<svg version="1.1"
	 xmlns="http://www.w3.org/2000/svg" xmlns:xlink="http://www.w3.org/1999/xlink" xmlns:a="http://ns.adobe.com/AdobeSVGViewerExtensions/3.0/"
	 x="0px" y="0px" width="77px" height="30px" viewBox="2.047 2 77 30" overflow="visible" enable-background="new 2.047 2 77 30"
	 xml:space="preserve">
<defs>
</defs>
<rect fill="#CCCCCC" width="81" height="34"/>
<rect x="6" y="5" width="69" height="24"/>
<g>
	<path fill="#FFFFFF" d="M17.368,19.551c0.148,0.17,0.321,0.312,0.521,0.428c0.199,0.117,0.41,0.213,0.631,0.287
		c0.222,0.073,0.45,0.127,0.685,0.161s0.464,0.051,0.688,0.051c0.354,0,0.678-0.032,0.974-0.099c0.296-0.065,0.55-0.162,0.762-0.291
		c0.213-0.13,0.378-0.289,0.497-0.477c0.119-0.188,0.178-0.408,0.178-0.657c0-0.279-0.079-0.517-0.235-0.714
		s-0.361-0.372-0.614-0.524s-0.543-0.289-0.87-0.409c-0.327-0.121-0.66-0.245-0.998-0.372s-0.67-0.263-0.997-0.41
		c-0.327-0.146-0.617-0.319-0.87-0.521c-0.253-0.201-0.458-0.438-0.614-0.711c-0.157-0.272-0.235-0.598-0.235-0.974
		c0-0.406,0.101-0.763,0.302-1.07c0.202-0.307,0.468-0.562,0.799-0.768c0.332-0.206,0.708-0.361,1.128-0.467
		s0.853-0.159,1.296-0.159c0.255,0,0.517,0.015,0.786,0.044c0.269,0.03,0.527,0.082,0.775,0.158c0.249,0.076,0.479,0.176,0.692,0.3
		c0.213,0.124,0.391,0.28,0.534,0.47l-0.558,0.711c-0.134-0.14-0.288-0.257-0.46-0.353c-0.172-0.095-0.356-0.171-0.551-0.229
		c-0.195-0.057-0.395-0.098-0.601-0.124s-0.41-0.038-0.611-0.038c-0.273,0-0.546,0.026-0.819,0.08
		c-0.273,0.053-0.52,0.138-0.739,0.254c-0.219,0.117-0.398,0.267-0.537,0.451s-0.208,0.408-0.208,0.67
		c0,0.271,0.079,0.505,0.235,0.702s0.363,0.372,0.618,0.524c0.255,0.152,0.545,0.292,0.87,0.419
		c0.325,0.127,0.657,0.256,0.998,0.387s0.673,0.273,0.998,0.426c0.324,0.152,0.614,0.333,0.87,0.54
		c0.255,0.208,0.461,0.45,0.618,0.727c0.157,0.278,0.235,0.605,0.235,0.982c0,0.301-0.052,0.57-0.155,0.81s-0.244,0.45-0.423,0.632
		c-0.179,0.182-0.39,0.338-0.631,0.467s-0.503,0.234-0.783,0.314s-0.572,0.141-0.876,0.178c-0.304,0.039-0.606,0.059-0.906,0.059
		c-0.327,0-0.638-0.029-0.934-0.084s-0.569-0.133-0.819-0.234c-0.251-0.102-0.476-0.225-0.675-0.369
		c-0.199-0.143-0.364-0.304-0.494-0.481L17.368,19.551z"/>
	<path fill="#FFFFFF" d="M25.401,14.758h1.108v6.513h-1.108V14.758z M26.482,11.991v0.984h-1.027v-0.984H26.482z"/>
	<path fill="#FFFFFF" d="M29.007,22.459c0.354,0.207,0.725,0.359,1.115,0.457c0.39,0.096,0.772,0.145,1.148,0.145
		c0.394,0,0.746-0.041,1.058-0.123s0.574-0.209,0.789-0.381s0.38-0.389,0.494-0.654c0.114-0.264,0.171-0.578,0.171-0.943v-0.805
		c-0.269,0.372-0.607,0.65-1.018,0.838c-0.409,0.186-0.858,0.279-1.346,0.279c-0.497,0-0.94-0.078-1.33-0.236
		c-0.39-0.156-0.719-0.375-0.987-0.659s-0.475-0.624-0.618-1.022c-0.144-0.397-0.215-0.84-0.215-1.326
		c0-0.461,0.067-0.9,0.201-1.317c0.134-0.417,0.336-0.781,0.604-1.092c0.269-0.312,0.605-0.559,1.011-0.743
		c0.405-0.184,0.876-0.276,1.414-0.276c0.523,0,0.968,0.09,1.333,0.27c0.365,0.18,0.682,0.441,0.95,0.784
		c0-0.072,0.002-0.16,0.007-0.263c0.004-0.104,0.009-0.202,0.014-0.295c0.004-0.11,0.011-0.222,0.02-0.336h1.108
		c-0.009,0.203-0.016,0.404-0.021,0.603c-0.009,0.169-0.014,0.345-0.017,0.527c-0.002,0.182-0.003,0.341-0.003,0.476v3.974
		c0,0.287-0.019,0.576-0.054,0.867c-0.036,0.289-0.101,0.568-0.195,0.834c-0.094,0.268-0.224,0.516-0.39,0.75
		c-0.165,0.232-0.379,0.434-0.641,0.605c-0.263,0.172-0.579,0.307-0.95,0.406c-0.372,0.1-0.809,0.148-1.31,0.148
		c-0.448,0-0.879-0.041-1.293-0.127c-0.414-0.084-0.807-0.215-1.179-0.393L29.007,22.459z M33.782,17.783
		c0-0.322-0.049-0.625-0.147-0.909s-0.241-0.531-0.427-0.741c-0.186-0.209-0.411-0.376-0.675-0.499
		c-0.265-0.123-0.562-0.185-0.894-0.185c-0.362,0-0.682,0.069-0.957,0.207s-0.506,0.324-0.691,0.56
		c-0.186,0.235-0.325,0.507-0.417,0.816c-0.092,0.31-0.138,0.633-0.138,0.973c0,0.368,0.037,0.701,0.111,0.997
		c0.074,0.297,0.197,0.55,0.369,0.76s0.397,0.372,0.675,0.486c0.277,0.114,0.62,0.171,1.027,0.171c0.403,0,0.744-0.074,1.021-0.225
		s0.5-0.35,0.668-0.595s0.289-0.526,0.363-0.843C33.745,18.443,33.782,18.117,33.782,17.783z"/>
	<path fill="#FFFFFF" d="M38.229,21.271H37.12v-4.945c0-0.195-0.002-0.386-0.006-0.575c-0.005-0.188-0.01-0.356-0.014-0.504
		c-0.009-0.169-0.016-0.332-0.021-0.489h1.122l0.026,0.901c0.269-0.36,0.592-0.626,0.971-0.8c0.378-0.173,0.825-0.26,1.34-0.26
		c0.501,0,0.915,0.078,1.242,0.235s0.586,0.375,0.776,0.657c0.189,0.281,0.322,0.617,0.396,1.006
		c0.074,0.389,0.111,0.817,0.111,1.282v3.492h-1.108V17.9c0-0.368-0.017-0.704-0.051-1.006c-0.033-0.302-0.104-0.561-0.215-0.774
		c-0.109-0.213-0.271-0.378-0.486-0.495c-0.215-0.116-0.504-0.174-0.866-0.174c-0.336,0-0.634,0.062-0.894,0.184
		s-0.479,0.271-0.658,0.444s-0.316,0.356-0.413,0.549c-0.097,0.193-0.145,0.361-0.145,0.505V21.271z"/>
	<path fill="#FFFFFF" d="M54.085,14.758h1.108v4.951c0,0.279,0.003,0.543,0.01,0.791s0.021,0.504,0.044,0.771h-1.142l-0.021-0.857
		c-0.52,0.668-1.275,1.004-2.27,1.004c-0.341,0-0.641-0.037-0.9-0.111s-0.484-0.176-0.675-0.303s-0.35-0.277-0.477-0.45
		c-0.128-0.173-0.229-0.36-0.306-0.559s-0.131-0.405-0.165-0.618c-0.033-0.215-0.05-0.428-0.05-0.639v-3.98h1.107v3.98
		c-0.004,0.605,0.133,1.062,0.41,1.375c0.277,0.311,0.714,0.466,1.31,0.466c0.322,0,0.607-0.056,0.856-0.165
		c0.248-0.109,0.459-0.26,0.631-0.451c0.173-0.189,0.304-0.411,0.394-0.662c0.089-0.252,0.134-0.518,0.134-0.797V14.758z"/>
	<path fill="#FFFFFF" d="M58.53,23.982h-1.102v-7.523c0-0.089-0.001-0.198-0.003-0.327c-0.002-0.129-0.006-0.27-0.01-0.422
		c-0.005-0.152-0.011-0.31-0.017-0.473c-0.007-0.163-0.015-0.323-0.024-0.479h1.122l0.033,0.927c0.282-0.36,0.622-0.63,1.018-0.812
		c0.396-0.182,0.83-0.273,1.3-0.273c0.542,0,1.011,0.089,1.407,0.267s0.724,0.418,0.983,0.72c0.26,0.303,0.454,0.655,0.581,1.057
		c0.128,0.402,0.191,0.83,0.191,1.282c0,0.457-0.065,0.896-0.198,1.316c-0.132,0.422-0.329,0.793-0.591,1.115
		c-0.262,0.32-0.591,0.578-0.987,0.771c-0.396,0.191-0.858,0.289-1.387,0.289c-0.967,0-1.739-0.336-2.317-1.004V23.982z
		 M58.53,18.135c0,0.352,0.047,0.676,0.142,0.975c0.094,0.299,0.231,0.557,0.413,0.775c0.181,0.217,0.406,0.388,0.675,0.51
		c0.269,0.123,0.577,0.185,0.927,0.185c0.376,0,0.699-0.071,0.971-0.216c0.271-0.145,0.492-0.336,0.665-0.578
		c0.172-0.24,0.3-0.52,0.383-0.834c0.082-0.315,0.124-0.645,0.124-0.987c0-0.322-0.036-0.634-0.107-0.936
		c-0.072-0.303-0.189-0.571-0.353-0.807c-0.164-0.234-0.38-0.422-0.648-0.562s-0.6-0.209-0.994-0.209
		c-0.412,0-0.758,0.074-1.037,0.222c-0.28,0.148-0.506,0.346-0.679,0.594c-0.172,0.247-0.296,0.533-0.369,0.856
		C58.567,17.447,58.53,17.784,58.53,18.135z"/>
</g>
</svg>
