<?xml version="1.0" encoding="utf-8"?>
<!-- Generator: Adobe Illustrator 15.1.0, SVG Export Plug-In  -->
<!DOCTYPE svg PUBLIC "-//W3C//DTD SVG 1.1//EN" "http://www.w3.org/Graphics/SVG/1.1/DTD/svg11.dtd" [
	<!ENTITY ns_flows "http://ns.adobe.com/Flows/1.0/">
]>
<svg version="1.1"
	 xmlns="http://www.w3.org/2000/svg" xmlns:xlink="http://www.w3.org/1999/xlink" xmlns:a="http://ns.adobe.com/AdobeSVGViewerExtensions/3.0/"
	 x="0px" y="0px" width="105px" height="42px" viewBox="29.167 -1.171 105 42"
	 overflow="visible" enable-background="new 29.167 -1.171 105 42" xml:space="preserve">
<defs>
</defs>
<path fill="#FFFFFF" stroke="#CCCCCC" stroke-width="2" stroke-miterlimit="10" d="M31,53.267c0,8.285-6.709,15-15,15
	c-8.284,0-15-6.715-15-15c0-8.283,6.716-14.999,15-14.999C24.291,38.268,31,44.984,31,53.267z"/>
<g>
	<rect x="43.203" y="13.478" fill="none" width="79.431" height="18.232"/>
	<path d="M47.962,24.766c1.768,0,2.686-1.002,2.873-1.92c0.221-1.445-0.901-2.176-2.227-2.482l-1.581-0.357
		c-2.431-0.544-2.754-1.955-2.754-2.941c0-1.904,1.802-3.195,3.672-3.195c2.074,0,3.671,1.309,3.671,3.349h-1.122
		c0-1.36-1.105-2.227-2.55-2.227c-1.292,0-2.55,0.833-2.55,2.074c0,0.612,0.221,1.479,1.87,1.853l1.598,0.357
		c1.87,0.425,3.417,1.53,3.077,3.773c-0.272,1.359-1.564,2.839-3.978,2.839c-2.312,0-3.791-1.819-3.791-3.536h1.122
		C45.294,23.526,46.331,24.766,47.962,24.766z"/>
	<path d="M55.681,25.718h-1.122V14.006h1.122V25.718z"/>
	<path d="M69.62,19.973c0,3.978-2.107,5.916-5.439,5.916c-3.314,0-5.882-2.686-5.882-6c0-3.332,2.567-6.017,5.882-6.017
		c1.428,0,2.72,0.51,3.739,1.36l-0.799,0.799c-0.799-0.646-1.818-1.037-2.94-1.037c-2.703,0-4.76,2.193-4.76,4.896
		s2.057,4.878,4.76,4.878c2.533,0,4.046-1.41,4.182-3.739h-3.417v-1.054H69.62z"/>
	<path d="M79.021,25.718l-5.967-9.808v9.808h-1.121V14.006h1.206l5.916,9.74v-9.74h1.122v11.712H79.021z"/>
	<path d="M93.198,13.871c3.332,0,5.898,2.686,5.898,6.017c0,3.315-2.566,6-5.898,6c-3.314,0-5.881-2.686-5.881-6
		C87.317,16.556,89.883,13.871,93.198,13.871z M93.198,24.766c2.703,0,4.777-2.176,4.777-4.878s-2.074-4.896-4.777-4.896
		c-2.702,0-4.759,2.193-4.759,4.896S90.496,24.766,93.198,24.766z"/>
	<path d="M108.77,21.758v-7.751h1.122v7.751c0,2.516-1.887,4.13-4.147,4.13s-4.147-1.614-4.147-4.13v-7.751h1.122v7.751
		c0,1.835,1.377,3.008,3.025,3.008S108.77,23.593,108.77,21.758z"/>
	<path d="M120.602,14.006v1.122h-3.757v10.59h-1.121v-10.59h-3.757v-1.122H120.602z"/>
</g>
<line stroke="#000000" stroke-miterlimit="10" x1="132.837" y1="0.335" x2="128.077" y2="5.655"/>
<line stroke="#000000" stroke-miterlimit="10" x1="128.788" y1="0.335" x2="124.026" y2="5.655"/>
<line stroke="#000000" stroke-miterlimit="10" x1="120.02" y1="5.655" x2="124.782" y2="0.335"/>
<line stroke="#000000" stroke-miterlimit="10" x1="120.731" y1="0.335" x2="115.969" y2="5.655"/>
<line stroke="#000000" stroke-miterlimit="10" x1="116.663" y1="0.335" x2="111.902" y2="5.654"/>
<line stroke="#000000" stroke-miterlimit="10" x1="112.612" y1="0.335" x2="107.85" y2="5.654"/>
<line stroke="#000000" stroke-miterlimit="10" x1="108.608" y1="0.335" x2="103.846" y2="5.654"/>
<line stroke="#000000" stroke-miterlimit="10" x1="104.555" y1="0.335" x2="99.793" y2="5.654"/>
<line stroke="#000000" stroke-miterlimit="10" x1="100.64" y1="0.334" x2="95.879" y2="5.654"/>
<line stroke="#000000" stroke-miterlimit="10" x1="96.59" y1="0.334" x2="91.829" y2="5.654"/>
<line stroke="#000000" stroke-miterlimit="10" x1="92.584" y1="0.334" x2="87.825" y2="5.654"/>
<line stroke="#000000" stroke-miterlimit="10" x1="88.532" y1="0.334" x2="83.772" y2="5.654"/>
<line stroke="#000000" stroke-miterlimit="10" x1="84.465" y1="0.334" x2="79.705" y2="5.654"/>
<line stroke="#000000" stroke-miterlimit="10" x1="80.415" y1="0.334" x2="75.653" y2="5.654"/>
<line stroke="#000000" stroke-miterlimit="10" x1="76.411" y1="0.334" x2="71.649" y2="5.654"/>
<line stroke="#000000" stroke-miterlimit="10" x1="72.358" y1="0.334" x2="67.596" y2="5.654"/>
<line stroke="#000000" stroke-miterlimit="10" x1="68.301" y1="0.333" x2="63.54" y2="5.652"/>
<line stroke="#000000" stroke-miterlimit="10" x1="64.25" y1="0.333" x2="59.489" y2="5.652"/>
<line stroke="#000000" stroke-miterlimit="10" x1="60.246" y1="0.333" x2="55.484" y2="5.652"/>
<line stroke="#000000" stroke-miterlimit="10" x1="56.193" y1="0.333" x2="51.432" y2="5.652"/>
<line stroke="#000000" stroke-miterlimit="10" x1="52.125" y1="0.333" x2="47.364" y2="5.652"/>
<line stroke="#000000" stroke-miterlimit="10" x1="48.075" y1="0.333" x2="43.314" y2="5.652"/>
<line stroke="#000000" stroke-miterlimit="10" x1="44.07" y1="0.333" x2="39.309" y2="5.652"/>
<line stroke="#000000" stroke-miterlimit="10" x1="40.018" y1="0.333" x2="35.256" y2="5.652"/>
<line stroke="#000000" stroke-miterlimit="10" x1="133.547" y1="3.975" x2="128.786" y2="9.294"/>
<line stroke="#000000" stroke-miterlimit="10" x1="128.786" y1="13.775" x2="133.547" y2="8.456"/>
<line stroke="#000000" stroke-miterlimit="10" x1="133.547" y1="12.566" x2="128.786" y2="17.885"/>
<line stroke="#000000" stroke-miterlimit="10" x1="133.548" y1="16.531" x2="128.788" y2="21.85"/>
<line stroke="#000000" stroke-miterlimit="10" x1="133.343" y1="20.646" x2="128.583" y2="25.967"/>
<line stroke="#000000" stroke-miterlimit="10" x1="133.343" y1="24.383" x2="128.583" y2="29.704"/>
<line stroke="#000000" stroke-miterlimit="10" x1="133.344" y1="28.07" x2="128.583" y2="33.387"/>
<line stroke="#000000" stroke-miterlimit="10" x1="128.215" y1="34.016" x2="123.456" y2="39.333"/>
<line stroke="#000000" stroke-miterlimit="10" x1="124.166" y1="34.016" x2="119.404" y2="39.333"/>
<line stroke="#000000" stroke-miterlimit="10" x1="120.16" y1="34.016" x2="115.399" y2="39.333"/>
<line stroke="#000000" stroke-miterlimit="10" x1="116.109" y1="34.016" x2="111.347" y2="39.333"/>
<line stroke="#000000" stroke-miterlimit="10" x1="112.042" y1="34.016" x2="107.28" y2="39.333"/>
<line stroke="#000000" stroke-miterlimit="10" x1="107.99" y1="34.016" x2="103.23" y2="39.333"/>
<line stroke="#000000" stroke-miterlimit="10" x1="103.986" y1="34.016" x2="99.224" y2="39.333"/>
<line stroke="#000000" stroke-miterlimit="10" x1="99.933" y1="34.016" x2="95.172" y2="39.333"/>
<line stroke="#000000" stroke-miterlimit="10" x1="96.019" y1="34.016" x2="91.258" y2="39.333"/>
<line stroke="#000000" stroke-miterlimit="10" x1="91.968" y1="34.016" x2="87.207" y2="39.333"/>
<line stroke="#000000" stroke-miterlimit="10" x1="87.963" y1="34.016" x2="83.203" y2="39.333"/>
<line stroke="#000000" stroke-miterlimit="10" x1="83.912" y1="34.016" x2="79.15" y2="39.333"/>
<line stroke="#000000" stroke-miterlimit="10" x1="79.844" y1="34.016" x2="75.083" y2="39.333"/>
<line stroke="#000000" stroke-miterlimit="10" x1="75.792" y1="34.016" x2="71.033" y2="39.333"/>
<line stroke="#000000" stroke-miterlimit="10" x1="71.789" y1="34.016" x2="67.027" y2="39.333"/>
<line stroke="#000000" stroke-miterlimit="10" x1="67.736" y1="34.016" x2="62.975" y2="39.333"/>
<line stroke="#000000" stroke-miterlimit="10" x1="63.679" y1="34.011" x2="58.917" y2="39.332"/>
<line stroke="#000000" stroke-miterlimit="10" x1="59.627" y1="34.011" x2="54.867" y2="39.332"/>
<line stroke="#000000" stroke-miterlimit="10" x1="55.624" y1="34.011" x2="50.862" y2="39.332"/>
<line stroke="#000000" stroke-miterlimit="10" x1="51.571" y1="34.011" x2="46.81" y2="39.332"/>
<line stroke="#000000" stroke-miterlimit="10" x1="47.503" y1="34.011" x2="42.743" y2="39.332"/>
<line stroke="#000000" stroke-miterlimit="10" x1="43.454" y1="34.011" x2="38.692" y2="39.332"/>
<line stroke="#000000" stroke-miterlimit="10" x1="39.448" y1="34.011" x2="34.687" y2="39.332"/>
<line stroke="#000000" stroke-miterlimit="10" x1="35.396" y1="34.011" x2="30.634" y2="39.332"/>
<line stroke="#000000" stroke-miterlimit="10" x1="34.546" y1="6.399" x2="29.785" y2="11.719"/>
<line stroke="#000000" stroke-miterlimit="10" x1="35.255" y1="10.039" x2="30.494" y2="15.358"/>
<line stroke="#000000" stroke-miterlimit="10" x1="35.255" y1="14.519" x2="30.494" y2="19.839"/>
<line stroke="#000000" stroke-miterlimit="10" x1="35.255" y1="18.629" x2="30.494" y2="23.95"/>
<line stroke="#000000" stroke-miterlimit="10" x1="35.256" y1="22.594" x2="30.495" y2="27.915"/>
<line stroke="#000000" stroke-miterlimit="10" x1="35.051" y1="26.71" x2="30.29" y2="32.031"/>
<line stroke="#000000" stroke-miterlimit="10" x1="35.051" y1="30.449" x2="30.29" y2="35.766"/>
<line stroke="#000000" stroke-miterlimit="10" x1="35.396" y1="1.314" x2="30.634" y2="6.635"/>
<line stroke="#000000" stroke-miterlimit="10" x1="132.837" y1="33.106" x2="128.077" y2="38.429"/>
<polygon fill="#FDA63C" points="35.495,6.635 35.495,33.209 42.84,6.635 "/>
<polygon fill="#FDA63C" points="127.558,33.209 127.558,6.399 120.212,33.209 "/>
</svg>
