<?xml version="1.0" encoding="utf-8"?>
<!-- Generator: Adobe Illustrator 15.1.0, SVG Export Plug-In  -->
<!DOCTYPE svg PUBLIC "-//W3C//DTD SVG 1.1//EN" "http://www.w3.org/Graphics/SVG/1.1/DTD/svg11.dtd" [
	<!ENTITY ns_flows "http://ns.adobe.com/Flows/1.0/">
]>
<svg version="1.1"
	 xmlns="http://www.w3.org/2000/svg" xmlns:xlink="http://www.w3.org/1999/xlink" xmlns:a="http://ns.adobe.com/AdobeSVGViewerExtensions/3.0/"
	 x="0px" y="0px" width="268px" height="268px" viewBox="6 -1 268 268" overflow="visible" enable-background="new 6 -1 268 268"
	 xml:space="preserve">
<defs>
</defs>
<path fill="#FFFFFF" d="M140,0c-29.05,0-56.04,8.85-78.399,24l14.06,20.37C94.221,31.52,116.74,24,141,24
	c24,0,46.25,7.34,64.67,19.89l13.431-19.439C196.61,9.03,169.37,0,140,0z"/>
<path fill="none" d="M280,140c0,77.331-62.62,140-140,140C62.681,280,0,217.331,0,140C0,91.74,24.431,49.17,61.601,24l14.06,20.37
	C94.221,31.52,116.74,24,141,24c24,0,46.25,7.34,64.67,19.89l13.431-19.439C255.891,49.69,280,92.03,280,140z"/>
<line fill="none" x1="141" y1="124" x2="140.5" y2="123.28"/>
<line fill="none" x1="219.41" y1="24" x2="219.101" y2="24.45"/>
<line fill="none" x1="140.5" y1="123.28" x2="140" y2="124"/>
<g>
	<path fill="none" d="M75.66,40.37c0,0,61.68-45.258,130.01-0.48"/>
	<path d="M91.481,29.432c0.21,0.109,0.433,0.181,0.668,0.217c0.235,0.036,0.473,0.046,0.711,0.031s0.476-0.053,0.71-0.113
		c0.234-0.061,0.456-0.135,0.666-0.225c0.331-0.142,0.621-0.303,0.87-0.486s0.446-0.381,0.59-0.594s0.232-0.436,0.264-0.67
		c0.031-0.233-0.006-0.474-0.111-0.722c-0.118-0.277-0.292-0.481-0.521-0.613c-0.23-0.132-0.496-0.224-0.797-0.273
		s-0.63-0.069-0.987-0.058c-0.357,0.011-0.721,0.021-1.09,0.03c-0.371,0.009-0.739,0.007-1.107-0.007
		c-0.368-0.014-0.712-0.07-1.034-0.168s-0.614-0.251-0.876-0.459c-0.262-0.208-0.473-0.498-0.632-0.871
		c-0.171-0.402-0.228-0.796-0.169-1.18s0.2-0.744,0.424-1.08c0.224-0.335,0.51-0.64,0.859-0.913
		c0.349-0.273,0.731-0.498,1.146-0.675c0.239-0.102,0.491-0.192,0.754-0.27c0.264-0.078,0.528-0.129,0.793-0.153
		c0.265-0.024,0.522-0.018,0.774,0.02c0.251,0.038,0.484,0.122,0.698,0.252l-0.222,0.927c-0.185-0.084-0.378-0.14-0.579-0.165
		c-0.202-0.025-0.406-0.028-0.612-0.006c-0.207,0.021-0.412,0.06-0.615,0.117s-0.399,0.126-0.588,0.207
		c-0.255,0.109-0.5,0.244-0.733,0.406s-0.428,0.344-0.584,0.547c-0.156,0.203-0.261,0.423-0.312,0.661
		c-0.052,0.238-0.023,0.487,0.088,0.747c0.115,0.269,0.287,0.469,0.517,0.602c0.229,0.132,0.497,0.223,0.8,0.272
		c0.303,0.049,0.634,0.072,0.991,0.068c0.358-0.004,0.724-0.009,1.098-0.015s0.745,0.002,1.113,0.023
		c0.369,0.021,0.716,0.083,1.042,0.188c0.327,0.104,0.622,0.261,0.886,0.474c0.264,0.212,0.475,0.505,0.635,0.878
		c0.127,0.298,0.193,0.585,0.197,0.864c0.005,0.278-0.038,0.543-0.129,0.795s-0.222,0.49-0.394,0.715s-0.372,0.433-0.6,0.624
		c-0.228,0.191-0.477,0.367-0.746,0.526c-0.269,0.16-0.544,0.299-0.825,0.419c-0.306,0.13-0.609,0.228-0.909,0.291
		s-0.589,0.095-0.867,0.095c-0.277,0-0.54-0.032-0.787-0.095c-0.248-0.063-0.47-0.156-0.666-0.281L91.481,29.432z"/>
	<path d="M102.422,27.063l-2.936-8.446l-3.028,1.053l-0.332-0.956l7.187-2.498l0.332,0.956l-3.048,1.06l2.937,8.445L102.422,27.063z
		"/>
	<path d="M107.568,25.319l-1.226,0.337l1.342-10.692l1.219-0.335l6.627,8.5l-1.259,0.346l-1.794-2.321l-4.601,1.265L107.568,25.319z
		 M107.971,21.344l3.849-1.059l-2.639-3.563c-0.059-0.074-0.123-0.162-0.193-0.263s-0.137-0.197-0.2-0.289
		c-0.077-0.107-0.151-0.216-0.225-0.328c-0.005,0.153-0.013,0.299-0.021,0.438c-0.005,0.12-0.014,0.239-0.025,0.358
		c-0.012,0.119-0.021,0.212-0.026,0.28L107.971,21.344z"/>
	<path d="M118.581,22.548l-1.772-8.764l-3.143,0.636l-0.2-0.992l7.457-1.508l0.201,0.992l-3.163,0.64l1.772,8.764L118.581,22.548z"
		/>
	<path d="M124.813,19.521c0.172,0.162,0.366,0.292,0.583,0.392s0.442,0.174,0.676,0.225c0.234,0.051,0.472,0.08,0.713,0.086
		c0.242,0.006,0.476-0.005,0.702-0.034c0.357-0.045,0.681-0.121,0.97-0.229s0.533-0.244,0.73-0.409
		c0.197-0.165,0.343-0.355,0.438-0.572s0.125-0.458,0.091-0.725c-0.038-0.298-0.149-0.543-0.333-0.733
		c-0.185-0.19-0.416-0.351-0.691-0.481c-0.276-0.131-0.587-0.24-0.934-0.327c-0.346-0.087-0.699-0.177-1.057-0.27
		c-0.358-0.092-0.712-0.196-1.062-0.31c-0.35-0.114-0.666-0.263-0.949-0.445c-0.282-0.183-0.521-0.41-0.716-0.682
		c-0.195-0.271-0.318-0.608-0.369-1.011c-0.055-0.434-0.001-0.828,0.161-1.181s0.396-0.661,0.704-0.922
		c0.307-0.261,0.666-0.476,1.076-0.642c0.411-0.167,0.84-0.278,1.288-0.335c0.258-0.032,0.524-0.05,0.8-0.053
		c0.275-0.003,0.543,0.021,0.805,0.07c0.261,0.049,0.507,0.126,0.739,0.231c0.231,0.105,0.432,0.25,0.603,0.434l-0.467,0.831
		c-0.154-0.132-0.325-0.238-0.512-0.318c-0.187-0.08-0.382-0.138-0.587-0.174c-0.204-0.036-0.412-0.055-0.624-0.056
		s-0.419,0.012-0.622,0.037c-0.276,0.035-0.548,0.098-0.817,0.189s-0.506,0.213-0.712,0.366c-0.206,0.152-0.366,0.335-0.482,0.55
		c-0.115,0.214-0.155,0.462-0.12,0.742c0.037,0.29,0.147,0.53,0.332,0.72c0.185,0.19,0.416,0.351,0.694,0.481
		s0.59,0.243,0.935,0.337c0.345,0.094,0.698,0.19,1.059,0.287c0.361,0.097,0.716,0.206,1.064,0.328
		c0.349,0.122,0.666,0.277,0.951,0.466c0.286,0.189,0.526,0.422,0.722,0.698s0.319,0.616,0.37,1.019
		c0.041,0.321,0.025,0.617-0.047,0.885s-0.186,0.512-0.342,0.729s-0.348,0.411-0.574,0.58c-0.227,0.168-0.476,0.314-0.748,0.436
		c-0.271,0.122-0.559,0.222-0.861,0.302c-0.303,0.079-0.605,0.138-0.908,0.176c-0.33,0.042-0.648,0.052-0.954,0.031
		s-0.592-0.07-0.859-0.146c-0.267-0.077-0.51-0.179-0.731-0.307c-0.221-0.128-0.409-0.279-0.563-0.453L124.813,19.521z"/>
	<path d="M145.364,11.773c-0.697-0.524-1.511-0.786-2.44-0.786c-0.419,0-0.802,0.056-1.148,0.167
		c-0.346,0.112-0.657,0.267-0.933,0.465c-0.275,0.199-0.515,0.432-0.718,0.701c-0.203,0.27-0.372,0.562-0.506,0.876
		c-0.135,0.315-0.235,0.646-0.301,0.996c-0.066,0.349-0.099,0.699-0.099,1.05c0,0.539,0.07,1.05,0.211,1.536
		s0.358,0.912,0.649,1.279c0.292,0.367,0.661,0.659,1.107,0.876s0.976,0.325,1.586,0.325c0.561,0,1.088-0.081,1.583-0.243
		c0.494-0.162,0.928-0.407,1.302-0.735l0.396,0.964c-0.424,0.342-0.925,0.598-1.504,0.769s-1.23,0.256-1.955,0.256
		c-0.752,0-1.415-0.132-1.989-0.397c-0.574-0.264-1.057-0.625-1.449-1.083s-0.688-0.991-0.889-1.6c-0.2-0.608-0.301-1.259-0.3-1.952
		c0-0.469,0.049-0.925,0.147-1.367c0.098-0.442,0.241-0.858,0.431-1.248c0.189-0.39,0.422-0.747,0.701-1.073
		c0.278-0.326,0.596-0.605,0.954-0.837c0.357-0.232,0.753-0.414,1.187-0.543c0.433-0.13,0.902-0.194,1.408-0.194
		c0.619,0,1.173,0.083,1.661,0.248c0.487,0.166,0.938,0.432,1.353,0.798L145.364,11.773z"/>
	<path d="M154.795,20.805l-6.109-0.525l0.853-9.917l5.904,0.507l-0.086,1.008l-4.733-0.407l-0.286,3.324l4.475,0.385l-0.087,1.008
		l-4.475-0.384l-0.307,3.569l4.938,0.424L154.795,20.805z"/>
	<path d="M157.377,21.112l1.764-9.795l1.385,0.249l3.671,8.399l0.37,0.949l0.282-1.567l1.222-6.782l1.157,0.208l-1.765,9.795
		l-1.399-0.252l-3.697-8.396l-0.334-0.921l-0.229,1.278l-1.269,7.044L157.377,21.112z"/>
	<path d="M170.551,23.886l2.369-8.622l-3.092-0.85l0.269-0.976l7.336,2.016l-0.268,0.976l-3.111-0.855l-2.369,8.622L170.551,23.886z
		"/>
	<path d="M179.438,21.934l-1.527,4.187l-1.104-0.403l3.41-9.351l2.286,0.834c0.253,0.092,0.528,0.198,0.827,0.316
		c0.299,0.119,0.592,0.257,0.879,0.415c0.286,0.158,0.553,0.339,0.799,0.542s0.446,0.436,0.602,0.695
		c0.154,0.26,0.246,0.554,0.274,0.882s-0.03,0.693-0.178,1.095c-0.107,0.295-0.254,0.55-0.438,0.764s-0.4,0.387-0.647,0.52
		c-0.248,0.133-0.52,0.223-0.815,0.27c-0.296,0.047-0.608,0.055-0.936,0.022l0.006,0.002c0.23,0.181,0.399,0.386,0.508,0.615
		c0.107,0.229,0.183,0.5,0.224,0.813c0.04,0.313,0.062,0.675,0.062,1.086c0.001,0.41,0.011,0.888,0.03,1.434l0.058,1.579
		l-1.208-0.44l-0.001-3.049c-0.001-0.33-0.019-0.611-0.053-0.842c-0.035-0.231-0.104-0.429-0.205-0.595
		c-0.103-0.166-0.242-0.308-0.42-0.426c-0.178-0.118-0.41-0.229-0.696-0.334L179.438,21.934z M179.784,20.983l1.708,0.623
		c0.287,0.105,0.583,0.184,0.889,0.237c0.306,0.053,0.596,0.06,0.87,0.02c0.274-0.041,0.521-0.142,0.74-0.304
		c0.219-0.162,0.389-0.407,0.509-0.736c0.116-0.321,0.154-0.606,0.112-0.856c-0.043-0.25-0.146-0.474-0.312-0.67
		c-0.167-0.196-0.382-0.369-0.647-0.519s-0.565-0.286-0.899-0.408l-1.779-0.649L179.784,20.983z"/>
	<path d="M191.645,31.812l-5.576-2.551l4.141-9.051l5.39,2.466l-0.421,0.92l-4.32-1.977l-1.388,3.033l4.084,1.869l-0.421,0.92
		l-4.084-1.868l-1.49,3.257l4.507,2.062L191.645,31.812z"/>
</g>
</svg>
