<?xml version="1.0" encoding="utf-8"?>
<!-- Generator: Adobe Illustrator 15.1.0, SVG Export Plug-In  -->
<!DOCTYPE svg PUBLIC "-//W3C//DTD SVG 1.1//EN" "http://www.w3.org/Graphics/SVG/1.1/DTD/svg11.dtd" [
	<!ENTITY ns_flows "http://ns.adobe.com/Flows/1.0/">
]>
<svg version="1.1"
	 xmlns="http://www.w3.org/2000/svg" xmlns:xlink="http://www.w3.org/1999/xlink" xmlns:a="http://ns.adobe.com/AdobeSVGViewerExtensions/3.0/"
	 x="0px" y="0px" width="33px" height="33px" viewBox="-0.5 -0.5 33 33"
	 overflow="visible" enable-background="new -0.5 -0.5 33 33" xml:space="preserve">
<defs>
</defs>
<path fill="#FFFFFF" stroke="#CCCCCC" stroke-width="2" stroke-miterlimit="10" d="M31,16c0,8.285-6.709,15-15,15
	C7.716,31,1,24.285,1,16C1,7.716,7.716,1,16,1C24.291,1,31,7.716,31,16z"/>
<path d="M24.333,11.358c-0.613,0.272-1.271,0.456-1.964,0.538c0.706-0.423,1.248-1.093,1.504-1.892
	c-0.661,0.392-1.393,0.677-2.172,0.83c-0.623-0.665-1.512-1.08-2.495-1.08c-1.889,0-3.42,1.531-3.42,3.419
	c0,0.269,0.03,0.529,0.089,0.779c-2.842-0.143-5.361-1.504-7.048-3.572c-0.295,0.505-0.463,1.092-0.463,1.719
	c0,1.187,0.604,2.233,1.521,2.847c-0.561-0.018-1.087-0.172-1.549-0.428c0,0.015,0,0.028,0,0.043c0,1.656,1.179,3.038,2.743,3.353
	c-0.287,0.078-0.589,0.12-0.901,0.12c-0.22,0-0.435-0.021-0.643-0.062c0.435,1.358,1.697,2.348,3.193,2.375
	c-1.17,0.917-2.645,1.464-4.246,1.464c-0.276,0-0.548-0.017-0.815-0.048c1.513,0.97,3.311,1.536,5.241,1.536
	c6.289,0,9.729-5.21,9.729-9.729c0-0.147-0.003-0.295-0.01-0.441C23.295,12.646,23.875,12.043,24.333,11.358z"/>
</svg>
