<?xml version="1.0" encoding="utf-8"?>
<!-- Generator: Adobe Illustrator 15.1.0, SVG Export Plug-In  -->
<!DOCTYPE svg PUBLIC "-//W3C//DTD SVG 1.1//EN" "http://www.w3.org/Graphics/SVG/1.1/DTD/svg11.dtd" [
	<!ENTITY ns_flows "http://ns.adobe.com/Flows/1.0/">
]>
<svg version="1.1"
	 xmlns="http://www.w3.org/2000/svg" xmlns:xlink="http://www.w3.org/1999/xlink" xmlns:a="http://ns.adobe.com/AdobeSVGViewerExtensions/3.0/"
	 x="0px" y="0px" width="280px" height="60px" viewBox="0.027 -4.31 280 60"
	 overflow="visible" enable-background="new 0.027 -4.31 280 60" xml:space="preserve">
<defs>
</defs>
<g>
	<rect y="2.023" fill-rule="evenodd" clip-rule="evenodd" fill="none" width="279.027" height="50.667"/>
	<path d="M14.076,5.672l-0.492-1.727l-0.539,1.727l-2.547,8.016H8.834L5.529,2.312h1.453l2.422,8.648l0.297,1.25l0.344-1.133
		l2.875-8.766h1.414l2.805,8.68l0.359,1.211l0.281-1.109l2.43-8.781h1.406l-3.305,11.375h-1.656L14.076,5.672z"/>
	<path d="M30.804,13.688h-7.008V2.312h6.773v1.156h-5.43v3.812h5.133v1.156H25.14v4.094h5.664V13.688z"/>
	<path d="M40.493,13.688h-6.805V2.312h1.344v10.219h5.445L40.493,13.688z"/>
	<path d="M50.042,4.156c-0.797-0.599-1.727-0.898-2.789-0.898c-0.479,0-0.917,0.064-1.312,0.191
		c-0.396,0.128-0.751,0.305-1.066,0.532c-0.315,0.227-0.589,0.494-0.82,0.801c-0.232,0.308-0.425,0.642-0.578,1.001
		c-0.154,0.36-0.269,0.739-0.344,1.138c-0.076,0.399-0.113,0.799-0.113,1.2c0,0.615,0.081,1.2,0.242,1.755
		c0.161,0.555,0.409,1.042,0.742,1.462c0.333,0.419,0.755,0.753,1.266,1.001c0.51,0.247,1.114,0.371,1.812,0.371
		c0.641,0,1.243-0.092,1.809-0.277c0.565-0.185,1.061-0.465,1.488-0.84l0.453,1.102c-0.484,0.391-1.058,0.684-1.719,0.879
		c-0.662,0.195-1.406,0.293-2.234,0.293c-0.859,0-1.617-0.151-2.273-0.453s-1.208-0.715-1.656-1.238
		c-0.448-0.523-0.787-1.133-1.016-1.828c-0.229-0.695-0.344-1.438-0.344-2.23c0-0.536,0.056-1.057,0.168-1.562
		c0.112-0.505,0.276-0.98,0.492-1.426c0.216-0.445,0.483-0.854,0.801-1.227c0.317-0.372,0.681-0.691,1.09-0.957
		C44.548,2.68,45,2.473,45.495,2.324c0.495-0.148,1.031-0.223,1.609-0.223c0.708,0,1.341,0.095,1.898,0.283
		c0.557,0.189,1.073,0.493,1.547,0.912L50.042,4.156z"/>
	<path d="M63.926,8.016c0,0.859-0.126,1.647-0.379,2.363c-0.253,0.716-0.619,1.333-1.098,1.852
		c-0.479,0.519-1.065,0.921-1.758,1.207c-0.693,0.286-1.477,0.43-2.352,0.43c-0.87,0-1.65-0.138-2.34-0.414
		c-0.69-0.276-1.276-0.669-1.758-1.18c-0.482-0.51-0.851-1.127-1.105-1.852c-0.255-0.724-0.383-1.534-0.383-2.43
		c0-0.854,0.127-1.641,0.383-2.359c0.255-0.719,0.625-1.34,1.109-1.863s1.075-0.932,1.773-1.227
		c0.698-0.294,1.492-0.441,2.383-0.441c0.849,0,1.614,0.141,2.297,0.422c0.682,0.281,1.263,0.68,1.742,1.195
		c0.479,0.516,0.846,1.137,1.102,1.863C63.798,6.309,63.926,7.12,63.926,8.016z M54.192,8.023c0,0.656,0.087,1.27,0.262,1.84
		c0.174,0.57,0.435,1.066,0.781,1.488c0.346,0.422,0.777,0.754,1.293,0.996s1.114,0.363,1.797,0.363c0.688,0,1.29-0.121,1.809-0.363
		c0.518-0.242,0.949-0.575,1.293-1c0.344-0.424,0.602-0.927,0.773-1.508c0.172-0.581,0.258-1.209,0.258-1.887
		c0-0.661-0.085-1.278-0.254-1.852c-0.169-0.573-0.426-1.07-0.77-1.492s-0.772-0.752-1.285-0.992
		c-0.513-0.239-1.113-0.359-1.801-0.359c-0.683,0-1.281,0.13-1.797,0.391c-0.516,0.261-0.949,0.609-1.301,1.047
		s-0.616,0.944-0.793,1.52C54.28,6.791,54.192,7.394,54.192,8.023z"/>
	<path d="M68.139,13.688h-1.32V2.312h1.859l3.711,8.125l0.656,1.594h0.016l0.664-1.617l3.734-8.102h1.828v11.375h-1.32V6.391V3.914
		l-0.398,0.945l-4.039,8.828h-0.984l-3.938-8.656l-0.469-1.25v2.633V13.688z"/>
	<path d="M89.906,13.688h-7.008V2.312h6.773v1.156h-5.43v3.812h5.133v1.156h-5.133v4.094h5.664V13.688z"/>
	<path d="M100.206,13.688V3.469h-3.664V2.312h8.695v1.156h-3.688v10.219H100.206z"/>
	<path d="M117.208,8.016c0,0.859-0.126,1.647-0.379,2.363c-0.253,0.716-0.619,1.333-1.098,1.852
		c-0.479,0.519-1.065,0.921-1.758,1.207c-0.693,0.286-1.477,0.43-2.352,0.43c-0.87,0-1.65-0.138-2.34-0.414
		c-0.69-0.276-1.276-0.669-1.758-1.18c-0.482-0.51-0.851-1.127-1.105-1.852c-0.255-0.724-0.383-1.534-0.383-2.43
		c0-0.854,0.127-1.641,0.383-2.359c0.255-0.719,0.625-1.34,1.109-1.863s1.075-0.932,1.773-1.227
		c0.698-0.294,1.492-0.441,2.383-0.441c0.849,0,1.614,0.141,2.297,0.422c0.682,0.281,1.263,0.68,1.742,1.195
		c0.479,0.516,0.846,1.137,1.102,1.863C117.08,6.309,117.208,7.12,117.208,8.016z M107.473,8.023c0,0.656,0.087,1.27,0.262,1.84
		c0.174,0.57,0.435,1.066,0.781,1.488c0.346,0.422,0.777,0.754,1.293,0.996s1.114,0.363,1.797,0.363c0.688,0,1.29-0.121,1.809-0.363
		c0.518-0.242,0.949-0.575,1.293-1c0.344-0.424,0.602-0.927,0.773-1.508c0.172-0.581,0.258-1.209,0.258-1.887
		c0-0.661-0.085-1.278-0.254-1.852c-0.169-0.573-0.426-1.07-0.77-1.492s-0.772-0.752-1.285-0.992
		c-0.513-0.239-1.113-0.359-1.801-0.359c-0.683,0-1.281,0.13-1.797,0.391c-0.516,0.261-0.949,0.609-1.301,1.047
		s-0.616,0.944-0.793,1.52C107.562,6.791,107.473,7.394,107.473,8.023z"/>
	<path d="M127.531,13.688V3.469h-3.664V2.312h8.695v1.156h-3.688v10.219H127.531z"/>
	<path d="M136.11,13.688h-1.344V2.312h1.344v4.953h6.258V2.312h1.344v11.375h-1.344V8.422h-6.258V13.688z"/>
	<path d="M154.347,13.688h-7.008V2.312h6.773v1.156h-5.43v3.812h5.133v1.156h-5.133v4.094h5.664V13.688z"/>
	<path d="M162.412,11.57c0.172,0.208,0.374,0.384,0.605,0.527c0.231,0.144,0.477,0.261,0.734,0.352
		c0.258,0.091,0.523,0.158,0.797,0.199c0.273,0.042,0.54,0.062,0.801,0.062c0.411,0,0.789-0.04,1.133-0.121
		c0.344-0.081,0.639-0.2,0.887-0.359c0.247-0.159,0.44-0.354,0.578-0.586c0.138-0.231,0.207-0.501,0.207-0.809
		c0-0.344-0.091-0.637-0.273-0.879c-0.183-0.242-0.421-0.457-0.715-0.645c-0.294-0.188-0.632-0.355-1.012-0.504
		c-0.38-0.148-0.767-0.301-1.16-0.457c-0.394-0.156-0.78-0.324-1.16-0.504c-0.38-0.18-0.718-0.393-1.012-0.641
		c-0.294-0.247-0.533-0.539-0.715-0.875c-0.183-0.336-0.273-0.735-0.273-1.199c0-0.5,0.117-0.938,0.352-1.316
		c0.234-0.377,0.544-0.692,0.93-0.945c0.385-0.252,0.823-0.444,1.312-0.574c0.489-0.13,0.992-0.195,1.508-0.195
		c0.297,0,0.602,0.018,0.914,0.054c0.312,0.037,0.613,0.101,0.902,0.194s0.557,0.216,0.805,0.369
		c0.247,0.152,0.454,0.345,0.621,0.578l-0.648,0.875c-0.156-0.172-0.335-0.316-0.535-0.434c-0.201-0.117-0.414-0.211-0.641-0.281
		s-0.46-0.121-0.699-0.152c-0.24-0.031-0.477-0.047-0.711-0.047c-0.318,0-0.636,0.033-0.953,0.098
		c-0.318,0.065-0.604,0.169-0.859,0.313c-0.255,0.143-0.464,0.328-0.625,0.555c-0.162,0.227-0.242,0.501-0.242,0.825
		c0,0.333,0.091,0.622,0.273,0.864c0.182,0.242,0.422,0.458,0.719,0.645c0.297,0.188,0.634,0.36,1.012,0.516
		c0.377,0.156,0.764,0.315,1.16,0.477c0.396,0.162,0.782,0.336,1.16,0.524c0.377,0.188,0.715,0.409,1.012,0.665
		s0.536,0.554,0.719,0.896c0.182,0.341,0.273,0.744,0.273,1.208c0,0.37-0.06,0.702-0.18,0.997c-0.12,0.294-0.284,0.554-0.492,0.778
		c-0.208,0.224-0.453,0.416-0.734,0.575s-0.585,0.288-0.91,0.387c-0.326,0.099-0.666,0.172-1.02,0.219
		c-0.354,0.047-0.706,0.07-1.055,0.07c-0.38,0-0.742-0.034-1.086-0.102c-0.344-0.068-0.662-0.164-0.953-0.289
		c-0.292-0.125-0.554-0.276-0.785-0.453c-0.232-0.177-0.423-0.375-0.574-0.594L162.412,11.57z"/>
	<path d="M180.148,4.156c-0.797-0.599-1.727-0.898-2.789-0.898c-0.479,0-0.917,0.064-1.312,0.191
		c-0.396,0.128-0.751,0.305-1.066,0.532c-0.315,0.227-0.589,0.494-0.82,0.801c-0.232,0.308-0.425,0.642-0.578,1.001
		c-0.154,0.36-0.269,0.739-0.344,1.138c-0.076,0.399-0.113,0.799-0.113,1.2c0,0.615,0.081,1.2,0.242,1.755
		c0.161,0.555,0.409,1.042,0.742,1.462c0.333,0.419,0.755,0.753,1.266,1.001c0.51,0.247,1.114,0.371,1.812,0.371
		c0.641,0,1.243-0.092,1.809-0.277c0.565-0.185,1.061-0.465,1.488-0.84l0.453,1.102c-0.484,0.391-1.058,0.684-1.719,0.879
		c-0.662,0.195-1.406,0.293-2.234,0.293c-0.859,0-1.617-0.151-2.273-0.453s-1.208-0.715-1.656-1.238
		c-0.448-0.523-0.787-1.133-1.016-1.828c-0.229-0.695-0.344-1.438-0.344-2.23c0-0.536,0.056-1.057,0.168-1.562
		c0.112-0.505,0.276-0.98,0.492-1.426c0.216-0.445,0.483-0.854,0.801-1.227c0.317-0.372,0.681-0.691,1.09-0.957
		c0.409-0.266,0.86-0.473,1.355-0.621c0.495-0.148,1.031-0.223,1.609-0.223c0.708,0,1.341,0.095,1.898,0.283
		c0.557,0.189,1.073,0.493,1.547,0.912L180.148,4.156z"/>
	<path d="M194.032,8.016c0,0.859-0.126,1.647-0.379,2.363c-0.253,0.716-0.619,1.333-1.098,1.852
		c-0.479,0.519-1.065,0.921-1.758,1.207c-0.693,0.286-1.477,0.43-2.352,0.43c-0.87,0-1.65-0.138-2.34-0.414
		c-0.69-0.276-1.276-0.669-1.758-1.18c-0.482-0.51-0.851-1.127-1.105-1.852c-0.255-0.724-0.383-1.534-0.383-2.43
		c0-0.854,0.127-1.641,0.383-2.359c0.255-0.719,0.625-1.34,1.109-1.863s1.075-0.932,1.773-1.227
		c0.698-0.294,1.492-0.441,2.383-0.441c0.849,0,1.614,0.141,2.297,0.422c0.682,0.281,1.263,0.68,1.742,1.195
		c0.479,0.516,0.846,1.137,1.102,1.863C193.904,6.309,194.032,7.12,194.032,8.016z M184.298,8.023c0,0.656,0.087,1.27,0.262,1.84
		c0.174,0.57,0.435,1.066,0.781,1.488c0.346,0.422,0.777,0.754,1.293,0.996s1.114,0.363,1.797,0.363c0.688,0,1.29-0.121,1.809-0.363
		c0.518-0.242,0.949-0.575,1.293-1c0.344-0.424,0.602-0.927,0.773-1.508c0.172-0.581,0.258-1.209,0.258-1.887
		c0-0.661-0.085-1.278-0.254-1.852c-0.169-0.573-0.426-1.07-0.77-1.492s-0.772-0.752-1.285-0.992
		c-0.513-0.239-1.113-0.359-1.801-0.359c-0.683,0-1.281,0.13-1.797,0.391c-0.516,0.261-0.949,0.609-1.301,1.047
		s-0.616,0.944-0.793,1.52C184.386,6.791,184.298,7.394,184.298,8.023z"/>
	<path d="M198.308,8.594v5.094h-1.344V2.312h2.781c0.307,0,0.645,0.005,1.012,0.016c0.367,0.011,0.735,0.044,1.105,0.102
		c0.37,0.057,0.727,0.147,1.07,0.27c0.344,0.122,0.649,0.292,0.918,0.511c0.268,0.219,0.481,0.499,0.641,0.839
		c0.159,0.341,0.238,0.756,0.238,1.245c0,0.359-0.058,0.69-0.172,0.992c-0.115,0.302-0.279,0.572-0.492,0.812
		c-0.214,0.24-0.47,0.443-0.77,0.609c-0.3,0.167-0.632,0.297-0.996,0.39h0.008c0.317,0.104,0.579,0.258,0.785,0.461
		c0.206,0.203,0.392,0.465,0.559,0.786c0.167,0.32,0.331,0.701,0.492,1.141c0.161,0.44,0.359,0.95,0.594,1.528l0.68,1.673h-1.469
		l-1.195-3.273c-0.13-0.354-0.259-0.648-0.387-0.883c-0.128-0.234-0.279-0.42-0.453-0.559c-0.175-0.138-0.38-0.235-0.617-0.293
		c-0.237-0.057-0.53-0.086-0.879-0.086H198.308z M198.308,7.438h2.078c0.349,0,0.698-0.031,1.047-0.094
		c0.349-0.062,0.663-0.169,0.941-0.319c0.278-0.151,0.504-0.356,0.676-0.616s0.258-0.59,0.258-0.99c0-0.39-0.072-0.711-0.215-0.963
		c-0.144-0.252-0.343-0.451-0.598-0.597c-0.255-0.146-0.555-0.247-0.898-0.304s-0.719-0.086-1.125-0.086h-2.164V7.438z"/>
	<path d="M209.504,13.688h-1.344V2.312h1.344V13.688z"/>
	<path d="M213.045,13.688V2.312h1.608l5.83,8.703l0.609,0.992v-1.82V2.312h1.344v11.375h-1.625l-5.859-8.695l-0.562-0.969v1.484
		v8.18H213.045z"/>
	<path d="M234.226,4.336c-0.193-0.188-0.408-0.349-0.645-0.484c-0.237-0.135-0.49-0.247-0.758-0.336
		c-0.269-0.088-0.55-0.153-0.844-0.195c-0.294-0.042-0.593-0.062-0.895-0.062c-0.724,0-1.361,0.136-1.91,0.407
		c-0.55,0.271-1.008,0.632-1.375,1.083c-0.367,0.451-0.644,0.967-0.828,1.548c-0.185,0.582-0.277,1.185-0.277,1.81
		c0,0.683,0.091,1.307,0.273,1.873c0.182,0.565,0.458,1.05,0.828,1.454c0.369,0.404,0.831,0.718,1.385,0.942
		c0.554,0.224,1.206,0.336,1.955,0.336c0.442,0,0.871-0.036,1.288-0.109c0.416-0.073,0.812-0.185,1.186-0.336V8.938h-2.82V7.781
		h4.164v5.274c-0.63,0.297-1.275,0.506-1.934,0.628c-0.659,0.123-1.324,0.184-1.996,0.184c-0.938,0-1.763-0.136-2.477-0.406
		c-0.714-0.271-1.312-0.653-1.793-1.148c-0.482-0.495-0.845-1.09-1.09-1.785c-0.245-0.695-0.367-1.467-0.367-2.316
		c0-0.557,0.059-1.095,0.177-1.613c0.118-0.518,0.291-1.004,0.519-1.457c0.228-0.453,0.509-0.866,0.843-1.238
		c0.334-0.372,0.716-0.692,1.146-0.961c0.43-0.268,0.906-0.475,1.43-0.621c0.523-0.146,1.092-0.219,1.707-0.219
		c0.375,0,0.739,0.028,1.094,0.085c0.354,0.057,0.688,0.144,1,0.26c0.312,0.117,0.6,0.264,0.863,0.442
		c0.263,0.179,0.493,0.387,0.691,0.626L234.226,4.336z"/>
	<path d="M243.378,13.688h-1.453l4.719-11.375h1.445l4.727,11.375h-1.492l-1.273-3.102h-5.453L243.378,13.688z M245.026,9.43h4.562
		l-1.828-4.727c-0.042-0.099-0.086-0.215-0.133-0.348s-0.091-0.259-0.133-0.379c-0.052-0.141-0.102-0.284-0.148-0.43
		c-0.052,0.167-0.104,0.326-0.156,0.477c-0.042,0.13-0.087,0.259-0.137,0.387c-0.05,0.128-0.087,0.228-0.113,0.301L245.026,9.43z"/>
	<path d="M256.286,13.688h-1.344V2.312h2.664c0.443,0,0.877,0.02,1.301,0.059c0.425,0.039,0.827,0.107,1.207,0.203
		c0.381,0.097,0.73,0.227,1.051,0.391s0.597,0.373,0.828,0.625c0.232,0.253,0.413,0.554,0.543,0.902
		c0.131,0.349,0.195,0.758,0.195,1.227c0,0.594-0.129,1.104-0.387,1.531c-0.258,0.427-0.604,0.777-1.039,1.051
		c-0.435,0.273-0.936,0.476-1.504,0.605c-0.567,0.13-1.161,0.195-1.781,0.195h-1.734V13.688z M256.286,3.469v4.477h2.039
		c0.428,0,0.823-0.043,1.188-0.129c0.365-0.086,0.679-0.219,0.941-0.399c0.264-0.18,0.469-0.408,0.617-0.685
		s0.223-0.608,0.223-0.994c0-0.454-0.082-0.828-0.246-1.123s-0.393-0.527-0.688-0.696c-0.294-0.17-0.646-0.287-1.055-0.353
		c-0.408-0.065-0.86-0.098-1.355-0.098H256.286z"/>
	<path d="M266.639,13.688h-1.344V2.312h2.664c0.442,0,0.876,0.02,1.301,0.059c0.424,0.039,0.826,0.107,1.207,0.203
		c0.38,0.097,0.73,0.227,1.051,0.391s0.596,0.373,0.828,0.625c0.231,0.253,0.412,0.554,0.543,0.902
		c0.13,0.349,0.195,0.758,0.195,1.227c0,0.594-0.129,1.104-0.387,1.531c-0.258,0.427-0.604,0.777-1.039,1.051
		c-0.436,0.273-0.937,0.476-1.504,0.605c-0.568,0.13-1.162,0.195-1.781,0.195h-1.734V13.688z M266.639,3.469v4.477h2.039
		c0.427,0,0.822-0.043,1.188-0.129c0.364-0.086,0.678-0.219,0.941-0.399c0.263-0.18,0.469-0.408,0.617-0.685
		s0.223-0.608,0.223-0.994c0-0.454-0.082-0.828-0.246-1.123s-0.394-0.527-0.688-0.696c-0.295-0.17-0.646-0.287-1.055-0.353
		c-0.409-0.065-0.861-0.098-1.355-0.098H266.639z"/>
	<path d="M56.274,47.287h-1.176v-9.953h2.331c0.387,0,0.767,0.017,1.138,0.051s0.724,0.093,1.056,0.178s0.639,0.198,0.919,0.342
		s0.522,0.326,0.725,0.547s0.361,0.484,0.475,0.79s0.171,0.663,0.171,1.073c0,0.52-0.113,0.966-0.338,1.34s-0.529,0.68-0.909,0.919
		s-0.819,0.416-1.316,0.53s-1.016,0.171-1.559,0.171h-1.518V47.287z M56.274,38.346v3.917h1.784c0.374,0,0.72-0.038,1.039-0.113
		c0.319-0.076,0.594-0.192,0.824-0.35c0.23-0.157,0.41-0.357,0.54-0.599c0.13-0.242,0.195-0.532,0.195-0.87
		c0-0.397-0.072-0.725-0.215-0.982c-0.144-0.258-0.344-0.461-0.602-0.609c-0.257-0.148-0.565-0.251-0.923-0.309
		c-0.358-0.057-0.753-0.085-1.186-0.085H56.274z"/>
	<path d="M65.046,37.088v10.199h-1.128V37.088H65.046z"/>
	<path d="M73.661,46.501c-0.378,0.328-0.797,0.567-1.258,0.718s-0.982,0.226-1.565,0.226c-0.551,0-1.043-0.09-1.477-0.27
		s-0.799-0.431-1.097-0.752s-0.526-0.705-0.684-1.152s-0.236-0.937-0.236-1.47c0-0.506,0.078-0.982,0.232-1.429
		s0.38-0.838,0.677-1.176s0.657-0.604,1.083-0.8s0.913-0.294,1.459-0.294c0.538,0,1.005,0.088,1.401,0.263s0.722,0.417,0.978,0.725
		s0.445,0.673,0.571,1.097s0.188,0.884,0.188,1.381c0,0.05-0.001,0.108-0.003,0.174s-0.006,0.126-0.01,0.181h-5.373l0.021,0.308
		c0.027,0.342,0.097,0.654,0.208,0.937c0.112,0.283,0.265,0.526,0.461,0.731s0.434,0.363,0.713,0.475s0.6,0.167,0.959,0.167
		c0.482,0,0.924-0.084,1.324-0.253s0.76-0.41,1.079-0.725L73.661,46.501z M72.752,43.124l-0.007-0.096
		c-0.023-0.296-0.081-0.567-0.174-0.813c-0.094-0.246-0.222-0.458-0.386-0.636c-0.164-0.178-0.363-0.315-0.597-0.414
		s-0.5-0.147-0.795-0.147c-0.319,0-0.605,0.056-0.86,0.167s-0.474,0.263-0.658,0.455c-0.185,0.191-0.333,0.415-0.447,0.67
		s-0.191,0.526-0.232,0.813H72.752z"/>
	<path d="M78.905,40.103c0.287,0,0.549,0.026,0.786,0.079s0.456,0.126,0.656,0.222s0.385,0.214,0.554,0.355s0.326,0.301,0.472,0.479
		l0.041-0.964h1.114l-0.027,1.729v5.284h-1.128l0.014-0.984c-0.109,0.146-0.247,0.288-0.414,0.427s-0.354,0.261-0.564,0.366
		s-0.441,0.189-0.694,0.253s-0.519,0.096-0.796,0.096c-0.392,0-0.748-0.051-1.066-0.154s-0.604-0.244-0.854-0.424
		s-0.468-0.391-0.653-0.632s-0.336-0.501-0.455-0.779s-0.208-0.566-0.267-0.865s-0.089-0.594-0.089-0.885
		c0-0.451,0.069-0.893,0.208-1.326s0.349-0.818,0.629-1.155s0.631-0.608,1.053-0.813S78.34,40.103,78.905,40.103z M79.035,46.542
		c0.319,0,0.619-0.065,0.899-0.195s0.526-0.321,0.738-0.574s0.38-0.567,0.506-0.943s0.19-0.81,0.195-1.302
		c0-0.369-0.056-0.707-0.167-1.012s-0.27-0.57-0.475-0.793s-0.455-0.396-0.749-0.52s-0.623-0.185-0.988-0.185
		c-0.278,0-0.529,0.038-0.752,0.113s-0.421,0.179-0.595,0.311s-0.324,0.287-0.451,0.465s-0.232,0.368-0.314,0.571
		s-0.143,0.414-0.181,0.632s-0.058,0.435-0.058,0.649c0,0.209,0.015,0.425,0.044,0.646s0.079,0.434,0.147,0.639
		s0.162,0.399,0.28,0.581s0.266,0.341,0.441,0.475s0.385,0.242,0.629,0.321S78.711,46.542,79.035,46.542z"/>
	<path d="M89.186,41.497c-0.246-0.168-0.542-0.291-0.888-0.366c-0.346-0.075-0.706-0.113-1.079-0.113
		c-0.209,0-0.403,0.023-0.581,0.068c-0.178,0.045-0.332,0.11-0.461,0.195c-0.129,0.084-0.232,0.187-0.307,0.308
		s-0.113,0.256-0.113,0.407c0,0.16,0.039,0.296,0.116,0.41c0.077,0.114,0.182,0.213,0.313,0.297c0.132,0.084,0.287,0.16,0.464,0.226
		c0.177,0.066,0.366,0.129,0.566,0.188c0.182,0.055,0.376,0.112,0.583,0.171s0.413,0.129,0.618,0.208s0.4,0.173,0.587,0.28
		s0.352,0.233,0.495,0.379c0.143,0.146,0.257,0.317,0.341,0.513c0.084,0.196,0.126,0.421,0.126,0.677
		c0,0.355-0.082,0.664-0.246,0.926s-0.38,0.479-0.649,0.653s-0.577,0.303-0.923,0.39s-0.702,0.13-1.066,0.13
		c-0.242,0-0.481-0.014-0.718-0.041s-0.464-0.073-0.68-0.137s-0.417-0.146-0.602-0.246s-0.343-0.226-0.475-0.376l0.303-0.923
		c0.123,0.146,0.267,0.271,0.431,0.376s0.341,0.19,0.53,0.256c0.189,0.066,0.385,0.114,0.585,0.144s0.397,0.044,0.588,0.044
		c0.256,0,0.491-0.024,0.705-0.072s0.4-0.119,0.558-0.212c0.157-0.093,0.28-0.209,0.37-0.349c0.089-0.139,0.133-0.3,0.133-0.482
		c0-0.209-0.05-0.379-0.151-0.509c-0.1-0.13-0.24-0.242-0.417-0.335c-0.178-0.093-0.39-0.175-0.637-0.246s-0.514-0.151-0.801-0.243
		c-0.342-0.109-0.651-0.225-0.928-0.345s-0.51-0.261-0.702-0.42c-0.192-0.16-0.339-0.345-0.442-0.557
		c-0.103-0.212-0.154-0.464-0.154-0.755c0-0.324,0.074-0.606,0.222-0.848c0.148-0.242,0.343-0.441,0.585-0.598
		c0.242-0.157,0.517-0.274,0.824-0.352c0.308-0.078,0.622-0.116,0.941-0.116c0.47,0,0.904,0.044,1.304,0.133
		c0.399,0.089,0.738,0.243,1.016,0.461L89.186,41.497z"/>
	<path d="M98.117,46.501c-0.378,0.328-0.797,0.567-1.258,0.718s-0.982,0.226-1.565,0.226c-0.551,0-1.043-0.09-1.477-0.27
		s-0.799-0.431-1.097-0.752s-0.526-0.705-0.684-1.152s-0.236-0.937-0.236-1.47c0-0.506,0.078-0.982,0.232-1.429
		s0.38-0.838,0.677-1.176s0.657-0.604,1.083-0.8s0.913-0.294,1.459-0.294c0.538,0,1.005,0.088,1.401,0.263s0.722,0.417,0.978,0.725
		s0.445,0.673,0.571,1.097s0.188,0.884,0.188,1.381c0,0.05-0.001,0.108-0.003,0.174s-0.006,0.126-0.01,0.181h-5.373l0.021,0.308
		c0.027,0.342,0.097,0.654,0.208,0.937c0.112,0.283,0.265,0.526,0.461,0.731s0.434,0.363,0.713,0.475s0.6,0.167,0.959,0.167
		c0.482,0,0.924-0.084,1.324-0.253s0.76-0.41,1.079-0.725L98.117,46.501z M97.208,43.124l-0.007-0.096
		c-0.023-0.296-0.081-0.567-0.174-0.813c-0.094-0.246-0.222-0.458-0.386-0.636c-0.164-0.178-0.363-0.315-0.597-0.414
		s-0.5-0.147-0.795-0.147c-0.319,0-0.605,0.056-0.86,0.167s-0.474,0.263-0.658,0.455c-0.185,0.191-0.333,0.415-0.447,0.67
		s-0.191,0.526-0.232,0.813H97.208z"/>
	<path d="M110.931,46.501c-0.378,0.328-0.797,0.567-1.258,0.718s-0.982,0.226-1.565,0.226c-0.551,0-1.043-0.09-1.477-0.27
		s-0.799-0.431-1.097-0.752s-0.526-0.705-0.684-1.152s-0.236-0.937-0.236-1.47c0-0.506,0.078-0.982,0.232-1.429
		s0.38-0.838,0.677-1.176s0.657-0.604,1.083-0.8s0.913-0.294,1.459-0.294c0.538,0,1.005,0.088,1.401,0.263s0.722,0.417,0.978,0.725
		s0.445,0.673,0.571,1.097s0.188,0.884,0.188,1.381c0,0.05-0.001,0.108-0.003,0.174s-0.006,0.126-0.01,0.181h-5.373l0.021,0.308
		c0.027,0.342,0.097,0.654,0.208,0.937c0.112,0.283,0.265,0.526,0.461,0.731s0.434,0.363,0.713,0.475s0.6,0.167,0.959,0.167
		c0.482,0,0.924-0.084,1.324-0.253s0.76-0.41,1.079-0.725L110.931,46.501z M110.021,43.124l-0.007-0.096
		c-0.023-0.296-0.081-0.567-0.174-0.813c-0.094-0.246-0.222-0.458-0.386-0.636c-0.164-0.178-0.363-0.315-0.597-0.414
		s-0.5-0.147-0.795-0.147c-0.319,0-0.605,0.056-0.86,0.167s-0.474,0.263-0.658,0.455c-0.185,0.191-0.333,0.415-0.447,0.67
		s-0.191,0.526-0.232,0.813H110.021z"/>
	<path d="M114.473,47.287h-1.128v-5.325c0-0.209-0.002-0.416-0.007-0.619s-0.009-0.384-0.014-0.543
		c-0.009-0.182-0.016-0.358-0.021-0.526h1.142l0.027,0.971c0.273-0.387,0.603-0.674,0.988-0.861s0.84-0.28,1.364-0.28
		c0.51,0,0.932,0.084,1.265,0.253s0.596,0.404,0.79,0.708s0.328,0.664,0.403,1.083s0.113,0.879,0.113,1.381v3.76h-1.128v-3.63
		c0-0.396-0.017-0.758-0.051-1.083s-0.107-0.604-0.219-0.834s-0.277-0.408-0.496-0.533s-0.513-0.188-0.882-0.188
		c-0.342,0-0.645,0.066-0.909,0.198s-0.488,0.292-0.67,0.479s-0.322,0.384-0.42,0.591s-0.147,0.389-0.147,0.543V47.287z"/>
	<path d="M122.527,41.005h-1.388v-0.731h1.388l0.034-1.859l1.094-0.321v2.181h1.75v0.731h-1.75v4.19
		c0,0.155,0.004,0.313,0.014,0.475s0.04,0.31,0.092,0.444s0.133,0.244,0.243,0.328s0.264,0.126,0.465,0.126
		c0.146,0,0.298-0.02,0.458-0.058s0.335-0.092,0.526-0.161l-0.007,0.841c-0.16,0.091-0.333,0.156-0.52,0.195
		s-0.399,0.058-0.636,0.058c-0.383,0-0.689-0.065-0.919-0.195s-0.408-0.304-0.533-0.523s-0.208-0.474-0.25-0.766
		s-0.062-0.599-0.062-0.923V41.005z"/>
	<path d="M133.192,46.501c-0.378,0.328-0.797,0.567-1.258,0.718s-0.982,0.226-1.565,0.226c-0.551,0-1.043-0.09-1.477-0.27
		s-0.799-0.431-1.097-0.752s-0.526-0.705-0.684-1.152s-0.236-0.937-0.236-1.47c0-0.506,0.078-0.982,0.232-1.429
		s0.38-0.838,0.677-1.176s0.657-0.604,1.083-0.8s0.913-0.294,1.459-0.294c0.538,0,1.005,0.088,1.401,0.263s0.722,0.417,0.978,0.725
		s0.445,0.673,0.571,1.097s0.188,0.884,0.188,1.381c0,0.05-0.001,0.108-0.003,0.174s-0.006,0.126-0.01,0.181h-5.373l0.021,0.308
		c0.027,0.342,0.097,0.654,0.208,0.937c0.112,0.283,0.265,0.526,0.461,0.731s0.434,0.363,0.713,0.475s0.6,0.167,0.959,0.167
		c0.482,0,0.924-0.084,1.324-0.253s0.76-0.41,1.079-0.725L133.192,46.501z M132.283,43.124l-0.007-0.096
		c-0.023-0.296-0.081-0.567-0.174-0.813c-0.094-0.246-0.222-0.458-0.386-0.636c-0.164-0.178-0.363-0.315-0.597-0.414
		s-0.5-0.147-0.795-0.147c-0.319,0-0.605,0.056-0.86,0.167s-0.474,0.263-0.658,0.455c-0.185,0.191-0.333,0.415-0.447,0.67
		s-0.191,0.526-0.232,0.813H132.283z"/>
	<path d="M136.728,47.287H135.6v-5.325c0-0.287-0.004-0.574-0.014-0.861s-0.018-0.563-0.027-0.827h1.128l0.041,1.06
		c0.191-0.387,0.451-0.688,0.779-0.902s0.693-0.321,1.094-0.321c0.264,0,0.51,0.027,0.738,0.082l0.014,1.06
		c-0.096-0.05-0.212-0.09-0.349-0.12s-0.283-0.044-0.438-0.044c-0.273,0-0.524,0.054-0.752,0.161s-0.421,0.261-0.581,0.461
		s-0.284,0.444-0.373,0.731s-0.133,0.608-0.133,0.964V47.287z"/>
	<path d="M144.407,40.273h1.237l2.27,5.845l2.331-5.845h1.196l-3.104,7.506c-0.123,0.301-0.271,0.585-0.444,0.854
		s-0.372,0.509-0.595,0.721s-0.471,0.392-0.742,0.54s-0.568,0.252-0.892,0.311l-0.629-0.772c0.383-0.1,0.7-0.223,0.95-0.369
		s0.456-0.301,0.615-0.465s0.284-0.334,0.373-0.509s0.163-0.345,0.222-0.509l0.116-0.335L144.407,40.273z"/>
	<path d="M156.119,40.103c0.588,0,1.104,0.096,1.548,0.287s0.814,0.454,1.111,0.786s0.52,0.722,0.67,1.169s0.226,0.925,0.226,1.436
		c0,0.492-0.079,0.96-0.236,1.405s-0.387,0.834-0.69,1.169s-0.678,0.601-1.125,0.796s-0.957,0.294-1.531,0.294
		c-0.583,0-1.098-0.096-1.545-0.287s-0.821-0.451-1.125-0.779s-0.533-0.714-0.69-1.159s-0.236-0.919-0.236-1.425
		s0.08-0.983,0.239-1.432s0.393-0.841,0.701-1.176s0.686-0.599,1.135-0.793S155.535,40.103,156.119,40.103z M158.484,43.794
		c0-0.374-0.048-0.729-0.144-1.066c-0.096-0.337-0.242-0.632-0.438-0.885s-0.445-0.454-0.746-0.602s-0.657-0.222-1.068-0.222
		c-0.397,0-0.746,0.076-1.047,0.229s-0.553,0.358-0.756,0.615s-0.356,0.555-0.459,0.892c-0.103,0.337-0.154,0.688-0.154,1.053
		s0.051,0.711,0.154,1.039c0.103,0.328,0.256,0.619,0.459,0.872s0.458,0.454,0.763,0.602s0.662,0.222,1.068,0.222
		c0.402,0,0.751-0.075,1.047-0.226c0.297-0.15,0.543-0.352,0.739-0.605s0.342-0.544,0.438-0.875
		C158.436,44.506,158.484,44.159,158.484,43.794z"/>
	<path d="M166.695,40.273h1.128v5.332c0,0.301,0.003,0.584,0.01,0.851s0.021,0.543,0.044,0.831h-1.162l-0.021-0.923
		c-0.529,0.72-1.299,1.08-2.311,1.08c-0.346,0-0.652-0.04-0.916-0.12s-0.493-0.188-0.687-0.325s-0.355-0.298-0.485-0.485
		s-0.233-0.387-0.311-0.602s-0.133-0.437-0.167-0.667s-0.051-0.459-0.051-0.687v-4.286h1.128v4.286
		c-0.004,0.652,0.134,1.145,0.417,1.48s0.727,0.502,1.333,0.502c0.328,0,0.619-0.059,0.872-0.178s0.467-0.28,0.643-0.485
		s0.309-0.443,0.4-0.714s0.137-0.557,0.137-0.858V40.273z"/>
	<path d="M171.632,47.287h-1.128v-5.325c0-0.287-0.004-0.574-0.014-0.861s-0.018-0.563-0.027-0.827h1.128l0.041,1.06
		c0.191-0.387,0.451-0.688,0.779-0.902s0.693-0.321,1.094-0.321c0.264,0,0.51,0.027,0.738,0.082l0.014,1.06
		c-0.096-0.05-0.212-0.09-0.349-0.12s-0.283-0.044-0.438-0.044c-0.273,0-0.524,0.054-0.752,0.161s-0.421,0.261-0.581,0.461
		s-0.284,0.444-0.373,0.731s-0.133,0.608-0.133,0.964V47.287z"/>
	<path d="M181.472,47.287h-1.128v-5.325c0-0.209-0.002-0.416-0.007-0.619s-0.009-0.384-0.014-0.543
		c-0.009-0.182-0.016-0.358-0.021-0.526h1.142l0.027,0.971c0.273-0.387,0.603-0.674,0.988-0.861s0.84-0.28,1.364-0.28
		c0.51,0,0.932,0.084,1.265,0.253s0.596,0.404,0.79,0.708s0.328,0.664,0.403,1.083s0.113,0.879,0.113,1.381v3.76h-1.128v-3.63
		c0-0.396-0.017-0.758-0.051-1.083s-0.107-0.604-0.219-0.834s-0.277-0.408-0.496-0.533s-0.513-0.188-0.882-0.188
		c-0.342,0-0.645,0.066-0.909,0.198s-0.488,0.292-0.67,0.479s-0.322,0.384-0.42,0.591s-0.147,0.389-0.147,0.543V47.287z"/>
	<path d="M191.843,40.103c0.287,0,0.549,0.026,0.786,0.079s0.456,0.126,0.656,0.222s0.385,0.214,0.554,0.355
		s0.326,0.301,0.472,0.479l0.041-0.964h1.114l-0.027,1.729v5.284h-1.128l0.014-0.984c-0.109,0.146-0.247,0.288-0.414,0.427
		s-0.354,0.261-0.564,0.366s-0.441,0.189-0.694,0.253s-0.519,0.096-0.796,0.096c-0.392,0-0.748-0.051-1.066-0.154
		s-0.604-0.244-0.854-0.424s-0.468-0.391-0.653-0.632s-0.336-0.501-0.455-0.779s-0.208-0.566-0.267-0.865s-0.089-0.594-0.089-0.885
		c0-0.451,0.069-0.893,0.208-1.326s0.349-0.818,0.629-1.155s0.631-0.608,1.053-0.813S191.278,40.103,191.843,40.103z
		 M191.973,46.542c0.319,0,0.619-0.065,0.899-0.195s0.526-0.321,0.738-0.574s0.38-0.567,0.506-0.943s0.19-0.81,0.195-1.302
		c0-0.369-0.056-0.707-0.167-1.012s-0.27-0.57-0.475-0.793s-0.455-0.396-0.749-0.52s-0.623-0.185-0.988-0.185
		c-0.278,0-0.529,0.038-0.752,0.113s-0.421,0.179-0.595,0.311s-0.324,0.287-0.451,0.465s-0.232,0.368-0.314,0.571
		s-0.143,0.414-0.181,0.632s-0.058,0.435-0.058,0.649c0,0.209,0.015,0.425,0.044,0.646s0.079,0.434,0.147,0.639
		s0.162,0.399,0.28,0.581s0.266,0.341,0.441,0.475s0.385,0.242,0.629,0.321S191.649,46.542,191.973,46.542z"/>
	<path d="M198.975,40.273l0.027,0.943c0.273-0.383,0.598-0.664,0.974-0.844s0.806-0.27,1.289-0.27c0.264,0,0.514,0.033,0.749,0.099
		s0.449,0.158,0.643,0.277s0.363,0.263,0.509,0.434s0.262,0.361,0.349,0.571c0.264-0.479,0.604-0.828,1.019-1.049
		s0.923-0.332,1.524-0.332c0.497,0,0.907,0.081,1.23,0.243s0.58,0.375,0.769,0.639s0.321,0.566,0.396,0.906s0.113,0.689,0.113,1.049
		v4.348h-1.128v-3.814c0-0.292-0.017-0.583-0.051-0.875s-0.109-0.555-0.226-0.79s-0.288-0.425-0.516-0.571s-0.536-0.219-0.923-0.219
		c-0.305,0-0.578,0.062-0.817,0.188s-0.442,0.293-0.608,0.502s-0.293,0.45-0.379,0.721s-0.13,0.553-0.13,0.844v4.013h-1.128v-4.341
		c0-0.264-0.032-0.514-0.096-0.749s-0.165-0.438-0.304-0.612s-0.318-0.311-0.537-0.414s-0.483-0.154-0.793-0.154
		s-0.584,0.061-0.824,0.181s-0.441,0.284-0.605,0.489s-0.288,0.444-0.373,0.718s-0.126,0.563-0.126,0.868v4.013h-1.128v-5.202
		c0-0.301-0.003-0.606-0.01-0.916s-0.017-0.608-0.031-0.896H198.975z"/>
	<path d="M217.167,46.501c-0.378,0.328-0.797,0.567-1.258,0.718s-0.982,0.226-1.565,0.226c-0.551,0-1.043-0.09-1.477-0.27
		s-0.799-0.431-1.097-0.752s-0.526-0.705-0.684-1.152s-0.236-0.937-0.236-1.47c0-0.506,0.078-0.982,0.232-1.429
		s0.38-0.838,0.677-1.176s0.657-0.604,1.083-0.8s0.913-0.294,1.459-0.294c0.538,0,1.005,0.088,1.401,0.263s0.722,0.417,0.978,0.725
		s0.445,0.673,0.571,1.097s0.188,0.884,0.188,1.381c0,0.05-0.001,0.108-0.003,0.174s-0.006,0.126-0.01,0.181h-5.373l0.021,0.308
		c0.027,0.342,0.097,0.654,0.208,0.937c0.112,0.283,0.265,0.526,0.461,0.731s0.434,0.363,0.713,0.475s0.6,0.167,0.959,0.167
		c0.482,0,0.924-0.084,1.324-0.253s0.76-0.41,1.079-0.725L217.167,46.501z M216.257,43.124l-0.007-0.096
		c-0.023-0.296-0.081-0.567-0.174-0.813c-0.094-0.246-0.222-0.458-0.386-0.636c-0.164-0.178-0.363-0.315-0.597-0.414
		s-0.5-0.147-0.795-0.147c-0.319,0-0.605,0.056-0.86,0.167s-0.474,0.263-0.658,0.455c-0.185,0.191-0.333,0.415-0.447,0.67
		s-0.191,0.526-0.232,0.813H216.257z"/>
	<path d="M223.837,41.497c-0.246-0.168-0.542-0.291-0.888-0.366c-0.346-0.075-0.706-0.113-1.079-0.113
		c-0.209,0-0.403,0.023-0.581,0.068c-0.178,0.045-0.332,0.11-0.461,0.195c-0.129,0.084-0.232,0.187-0.307,0.308
		s-0.113,0.256-0.113,0.407c0,0.16,0.039,0.296,0.116,0.41c0.077,0.114,0.182,0.213,0.313,0.297c0.132,0.084,0.287,0.16,0.464,0.226
		c0.177,0.066,0.366,0.129,0.566,0.188c0.182,0.055,0.376,0.112,0.583,0.171s0.413,0.129,0.618,0.208s0.4,0.173,0.587,0.28
		s0.352,0.233,0.495,0.379c0.143,0.146,0.257,0.317,0.341,0.513c0.084,0.196,0.126,0.421,0.126,0.677
		c0,0.355-0.082,0.664-0.246,0.926s-0.38,0.479-0.649,0.653s-0.577,0.303-0.923,0.39s-0.702,0.13-1.066,0.13
		c-0.242,0-0.481-0.014-0.718-0.041s-0.464-0.073-0.68-0.137s-0.417-0.146-0.602-0.246s-0.343-0.226-0.475-0.376l0.303-0.923
		c0.123,0.146,0.267,0.271,0.431,0.376s0.341,0.19,0.53,0.256c0.189,0.066,0.385,0.114,0.585,0.144s0.397,0.044,0.588,0.044
		c0.256,0,0.491-0.024,0.705-0.072s0.4-0.119,0.558-0.212c0.157-0.093,0.28-0.209,0.37-0.349c0.089-0.139,0.133-0.3,0.133-0.482
		c0-0.209-0.05-0.379-0.151-0.509c-0.1-0.13-0.24-0.242-0.417-0.335c-0.178-0.093-0.39-0.175-0.637-0.246s-0.514-0.151-0.801-0.243
		c-0.342-0.109-0.651-0.225-0.928-0.345s-0.51-0.261-0.702-0.42c-0.192-0.16-0.339-0.345-0.442-0.557
		c-0.103-0.212-0.154-0.464-0.154-0.755c0-0.324,0.074-0.606,0.222-0.848c0.148-0.242,0.343-0.441,0.585-0.598
		c0.242-0.157,0.517-0.274,0.824-0.352c0.308-0.078,0.622-0.116,0.941-0.116c0.47,0,0.904,0.044,1.304,0.133
		c0.399,0.089,0.738,0.243,1.016,0.461L223.837,41.497z"/>
</g>
<polygon points="9.55,19.651 6.871,23.203 11.871,23.203 "/>
<polygon points="14.55,23.203 11.871,19.651 16.871,19.651 "/>
<polygon points="19.55,19.651 16.871,23.203 21.871,23.203 "/>
<polygon points="24.55,23.203 21.871,19.651 26.871,19.651 "/>
<polygon points="29.55,19.651 26.871,23.203 31.871,23.203 "/>
<polygon points="34.55,23.203 31.871,19.651 36.871,19.651 "/>
<polygon points="39.55,19.651 36.871,23.203 41.871,23.203 "/>
<polygon points="44.55,23.203 41.871,19.651 46.871,19.651 "/>
<polygon points="49.55,19.651 46.871,23.203 51.871,23.203 "/>
<polygon points="54.55,23.203 51.871,19.651 56.871,19.651 "/>
<polygon points="59.55,19.651 56.871,23.203 61.871,23.203 "/>
<polygon points="64.55,23.203 61.871,19.651 66.871,19.651 "/>
<polygon points="69.55,19.651 66.871,23.203 71.871,23.203 "/>
<polygon points="74.55,23.203 71.871,19.651 76.871,19.651 "/>
<polygon points="79.55,19.651 76.871,23.203 81.871,23.203 "/>
<polygon points="84.55,23.203 81.871,19.651 86.871,19.651 "/>
<polygon points="89.55,19.651 86.871,23.203 91.871,23.203 "/>
<polygon points="94.55,23.203 91.871,19.651 96.871,19.651 "/>
<polygon points="99.55,19.651 96.871,23.203 101.871,23.203 "/>
<polygon points="104.55,23.203 101.871,19.651 106.871,19.651 "/>
<polygon points="109.55,19.651 106.871,23.203 111.871,23.203 "/>
<polygon points="114.55,23.203 111.871,19.651 116.871,19.651 "/>
<polygon points="119.55,19.651 116.871,23.203 121.871,23.203 "/>
<polygon points="124.55,23.203 121.871,19.651 126.871,19.651 "/>
<polygon points="129.55,19.651 126.871,23.203 131.871,23.203 "/>
<polygon points="134.55,23.203 131.871,19.651 136.871,19.651 "/>
<polygon points="139.55,19.651 136.871,23.203 141.871,23.203 "/>
<polygon points="144.55,23.203 141.871,19.651 146.871,19.651 "/>
<polygon points="149.55,19.651 146.871,23.203 151.871,23.203 "/>
<polygon points="154.55,23.203 151.871,19.651 156.871,19.651 "/>
<polygon points="159.55,19.651 156.871,23.203 161.871,23.203 "/>
<polygon points="164.55,23.203 161.871,19.651 166.871,19.651 "/>
<polygon points="169.277,19.651 166.598,23.203 171.598,23.203 "/>
<polygon points="174.277,23.203 171.598,19.651 176.598,19.651 "/>
<polygon points="179.277,19.651 176.598,23.203 181.598,23.203 "/>
<polygon points="184.277,23.203 181.598,19.651 186.598,19.651 "/>
<polygon points="189.277,19.651 186.598,23.203 191.598,23.203 "/>
<polygon points="194.277,23.203 191.598,19.651 196.598,19.651 "/>
<polygon points="199.277,19.651 196.598,23.203 201.598,23.203 "/>
<polygon points="204.277,23.203 201.598,19.651 206.598,19.651 "/>
<polygon points="209.277,19.651 206.598,23.203 211.598,23.203 "/>
<polygon points="214.277,23.203 211.598,19.651 216.598,19.651 "/>
<polygon points="219.277,19.651 216.598,23.203 221.598,23.203 "/>
<polygon points="224.277,23.203 221.598,19.651 226.598,19.651 "/>
<polygon points="229.277,19.651 226.598,23.203 231.598,23.203 "/>
<polygon points="234.277,23.203 231.598,19.651 236.598,19.651 "/>
<polygon points="239.706,19.651 237.027,23.203 242.027,23.203 "/>
<polygon points="244.706,23.203 242.027,19.651 247.027,19.651 "/>
<polygon points="249.706,19.651 247.027,23.203 252.027,23.203 "/>
<polygon points="254.706,23.203 252.027,19.651 257.027,19.651 "/>
<polygon points="259.706,19.651 257.027,23.203 262.027,23.203 "/>
<polygon points="264.706,23.203 262.027,19.651 267.027,19.651 "/>
<polygon points="269.706,19.651 267.027,23.203 272.027,23.203 "/>
</svg>
